<svg xmlns="http://www.w3.org/2000/svg" xmlns:xlink="http://www.w3.org/1999/xlink" viewBox="0 0 1600 600"><defs><linearGradient id="a" x1="-0.26" y1="331.52" x2="1599.74" y2="331.52" gradientUnits="userSpaceOnUse"><stop offset="0" stop-color="#db2227"/><stop offset="1" stop-color="#ffd82f"/></linearGradient><linearGradient id="b" x1="0.26" y1="299.72" x2="1600.26" y2="299.72" gradientUnits="userSpaceOnUse"><stop offset="0" stop-color="#803b96"/><stop offset="0.49" stop-color="#5e439a"/></linearGradient></defs><title>Untitled-2</title><path d="M1599.74,239.08c-134.18,0-268.36-176-402.55-176-129.24,0-258.49,176-387.74,176-135.38,0-270.76-176-406.13-176-134.53,0-269,176-403.58,176V600h1600Z" style="opacity:0.8;fill:url(#a)"/><path d="M.26-.53c90-.26,222,180.2,382.52,180.23,106,0,266.34-178.06,418.75-179.23,150.18-1.16,285.11,180.15,385.08,180.17,110.8,0,250.87-180.81,413.65-181.17V600H.26Z" style="opacity:0.95;fill:url(#b)"/></svg>