<svg xmlns="http://www.w3.org/2000/svg" width="1440" height="206" viewBox="0 0 1440 206"><defs><style>.a{fill:#c6c6c6;}</style></defs><title>card-mask</title><path class="a" d="M0,206V0L24,26.79c24,26.39,72,80.58,120,90.92,48,10.73,96-21.38,144-26.7,48-5.71,96,16.36,144,37.43s96,43.15,144,42.85c48,.3,96-21.77,144-16,48,5.32,96,37.43,144,16,48-21.77,96-96,144-117.8,34.67-15.45,81.35,23.88,122.69,48.91a83.5,83.5,0,0,0,69.46,7.78c74-24.41,90.39,42.08,133.85,27.82,29.47-10,40.85-35.65,51-62.71A173.54,173.54,0,0,1,1440,0h0V206Z"/></svg>