<svg xmlns="http://www.w3.org/2000/svg" viewBox="0 0 250 254.42"><defs><style>.a{fill:#d15f27;}.b{fill:#e47925;}.c{fill:#f78f1e;}.d{fill:#fdb949;}.e{fill:#8e361e;}.f{fill:#722814;}.g{fill:#a4432a;}.h{fill:#ffda73;}.i{fill:#b85542;}</style></defs><title>cookie-2</title><path class="a" d="M99.15,18.26s7,1.36,9.28,8.21a55.15,55.15,0,0,1,2.66,10.64s8,3.43,10.65,10.27,1.56,18.54,10.65,22.43c5.32,2.29,9.57-.91,10.65-.38.76.38-.13,12,8,12.93,6.47.76,8-1.52,10.27.38,1.05.88-1.9,10.65,5.7,12.93s12.55-1.52,14.45-1.14,8,14.45,17.11,10.27,9.51-12.17,10.65-12.93,5.7,2.66,13.31-1.9,10-9.35,10-9.35l7.09,19.62-30.8,23.19-71.61-13.37L86,50.42Z"/><path class="a" d="M247.59,116.77c-1.84-9.2-6.19-18.24-10.18-26-1.74-3.39-3.32-6.79-4.88-10.14-.64,8.13-8.37,14.75-16.41,14.75a16,16,0,0,1-5.83-1.09c-.62,8.14-8.36,14.77-16.42,14.77A16.19,16.19,0,0,1,179.35,100a13.45,13.45,0,0,1-6.87,2c-7.61,0-13.26-6.22-13.59-13.59a11.25,11.25,0,0,1,.2-2.66,13,13,0,0,1-4.57.85c-7.47,0-13-6-13.56-13.14a13.48,13.48,0,0,1-7,2c-7.41,0-12.94-5.88-13.55-13a2.51,2.51,0,0,1-.32-1.47c.29-4.34.15-8.89-1.87-12.84s-5.64-6.71-9.6-8.75A2.66,2.66,0,0,1,107.29,37c1-7.81-2.58-14.21-8.14-18.74-4.65.21-9.26.09-13.84,1.83-7.87,3-11.76,9.64-18.87,13.54C52.51,41.26,40.21,43.25,28.63,55.9,19.42,66,10.69,78.29,5.26,90.82-.42,103.93,3.6,114,3.46,127c0,5.29-3.36,10.82-3.46,16.4-.13,8.1,3,15,6.53,22.16,4.14,8.34,5.31,15,8.17,24,4.76,15.06,13.7,26.4,25.48,36.81,21.55,19,45.6,13.9,70.94,21.91,18.93,6,33.18,9.09,52.87,1.9,4.75-1.74,9.15-3.45,12.44-7,3.64-4,2.14-7.61,8.13-10.38,5.22-2.42,8.94.56,13.53-.84,4.42-1.36,9.52-6.95,12.59-10.36,5.08-5.64,6.74-12.59,10.95-18.46,2.39-3.32,6.32-5.71,8.82-9.1,5.72-7.73,6.16-15.33,8.85-24.22,2.38-7.86,7.86-14.76,9.77-22.68C251.12,138.66,249.4,125.83,247.59,116.77Z"/><path class="b" d="M239,122.47a225.12,225.12,0,0,0-9.54-34,17.13,17.13,0,0,1-13.37,6.92,16,16,0,0,1-5.83-1.09c-.62,8.14-8.36,14.77-16.42,14.77A16.19,16.19,0,0,1,179.35,100a13.45,13.45,0,0,1-6.87,2c-7.61,0-13.26-6.22-13.59-13.59a11.25,11.25,0,0,1,.2-2.66,13,13,0,0,1-4.57.85c-7.47,0-13-6-13.56-13.14a13.48,13.48,0,0,1-7,2c-7.41,0-12.94-5.88-13.55-13a2.51,2.51,0,0,1-.32-1.47c.29-4.34.15-8.89-1.87-12.84s-5.64-6.71-9.6-8.75A2.66,2.66,0,0,1,107.29,37a19.35,19.35,0,0,0-3.51-13.83c-12.3.08-18.24-.53-22.17,6.9-5.14,9.7-12.55,12.55-19.4,13.12s-20.53,8.55-20.53,8.55S18.86,74,14.87,82.54s-7.41,21.68-7.41,27.95,1.14,10.84,4,12,13.12-6.84,13.12-6.84S12,128.17,9.74,137.87s.57,14.26,3.42,20,9.13,13.12,9.7,26.24S48,225.14,61.07,228.56s34.79-2.85,51.34,8S151.19,248,163.17,240s5.7-12.55,10.84-18.82,15.27-4.63,20.53-4.57c16,.19,10.65-24.14,23.39-29.09,9.77-3.79,14.25-18.25,14.25-29.09S241.31,134.45,239,122.47Z"/><path class="c" d="M232.18,127.6A231.72,231.72,0,0,0,225,92.65a16.4,16.4,0,0,1-8.85,2.72,16,16,0,0,1-5.83-1.09c-.62,8.14-8.36,14.77-16.42,14.77A16.19,16.19,0,0,1,179.35,100a13.45,13.45,0,0,1-6.87,2c-7.61,0-13.26-6.22-13.59-13.59a11.25,11.25,0,0,1,.2-2.66,13,13,0,0,1-4.57.85c-7.47,0-13-6-13.56-13.14a13.48,13.48,0,0,1-7,2c-7.41,0-12.94-5.88-13.55-13a2.51,2.51,0,0,1-.32-1.47c.29-4.34.15-8.89-1.87-12.84s-5.64-6.71-9.6-8.75A2.66,2.66,0,0,1,107.29,37a19.2,19.2,0,0,0-2.48-12.24c-7.29-.25-13.27.61-16.93,3.6-6.27,5.13-4,13.69-12,15.4s-20.77,1.85-29.21,8.63S25.71,71.71,20,84.83s-12.54,32.51,4.57,30.8c4.88-.49.57,11.4-2.85,16.54s-8,16-3.43,22.81,16,9.7,14.83,23.39S44,209.17,50.8,212.59s28-4,42.21,1.71,30.8,22.82,41.07,22.82,24.53-.57,27.95-10.84,20.53-19.39,29.09-18.82,7.73-19.26,18.12-26.75,20.09-2.91,16.1-24.59S233.9,141.86,232.18,127.6Z"/><path class="d" d="M108.65,143.53c-1.08,1.35-2.46,2.58-2.79,4.27-.5,2.57,1.49,4.87,3.19,6.84,3.25,3.75,6.13,8.52,5.19,13.39-.3,1.56-1,3.08-.9,4.67.22,3.7,4.3,5.73,7.78,7,2.13.78,4.59,1.53,6.57.43,1.56-.87,2.34-2.65,2.93-4.33,2.13-6.19,4.36-12,5.17-18.54.46-3.68.69-10.19-.57-13.69a18.36,18.36,0,0,0-3.39-5.46c-2.15-2.57-12.12-10.12-16.09-8.62C112.18,130.83,113.93,136.92,108.65,143.53Z"/><path class="d" d="M139,117.17a3.35,3.35,0,0,0,1.8,2.33c2.81,1.68,6.43,1.4,9.32,2.93,4.9,2.59,5.51,9.35,6,14.87.63,7-7.22,14.45-3.8,21.67s17.19,3.88,23.73-.48c1.88-1.26,3.47-2.92,5.27-4.29a21.65,21.65,0,0,1,8.65-3.95c1.34-.28,2.8-.48,3.79-1.42,1.17-1.12,1.32-2.93,1.23-4.55a24,24,0,0,0-15.45-20.65c-5.94-2.14-8.4-1.73-11.25-7.43s-9-8.4-15.35-8.08C150.61,108.24,138.69,114.13,139,117.17Z"/><path class="d" d="M80.87,123.08c-4.78,6.92-2,16.68,3.35,23.19,3.7,4.53,8.8,9.44,7.42,15.13a15.21,15.21,0,0,1-3,5.37l-7.87,10.47c-1.49,2-3.87,4.17-6.06,3-1.76-.93-1.9-3.37-3-5-2-2.9-6.31-2.63-9.67-1.63s-7.11,2.39-10.2.73c-4.49-2.4-3.91-9.15-1.46-13.62s6.21-8.65,6.19-13.75A10,10,0,0,0,52.48,139c-1.91-1.39-4.26-2.05-6.22-3.35-5.41-3.59-6.66-11.36-4.61-17.51,3.18-9.55,13.59-23.85,22.26-11.77,1.39,1.94,3.08,4,5.42,4.43s4.66-.89,6.88-1.87c4.25-1.88,10-15,14.52-11.58s16,12.55,13.69,17.69-8,2.28-12.55,2.85S82.42,120.84,80.87,123.08Z"/><path class="d" d="M158.89,88.33a11.17,11.17,0,0,1,.2-2.66,13,13,0,0,1-4.57.85c-7.47,0-13-6-13.56-13.15a13.49,13.49,0,0,1-7,2,13.24,13.24,0,0,1-4.45-.76,29.13,29.13,0,0,1-3.88,4,5.62,5.62,0,0,1-3.43,1.51c-2.41,0-4.08-2.69-4-5.1s1.4-4.57,2.56-6.69a10.55,10.55,0,0,0,.6-1.72,15,15,0,0,1-1-4.18,2.51,2.51,0,0,1-.32-1.47c0-.3,0-.59,0-.89L120,60c-5.22-2.17-12.24,6-17.87,5.43-9.51-1-15.4-6.84-18.25,0S81,80.83,86.74,79.69s13.6,2.4,15.36,6.34c.61,1.38,2.43,1.88,3.88,2.3,3.35,1,6.77-.94,10.14-1.86a17.81,17.81,0,0,1,11.37.73c4.62,1.91,9.16,7,13.82,5.16,4.29-1.66,9.12-7.53,13.84-1.34.8,1,1.54,2.29,2.78,2.74a2.68,2.68,0,0,0,2.17-.17A15.2,15.2,0,0,1,158.89,88.33Z"/><path class="d" d="M52,65.43C45.41,68.34,41.29,72,41.68,83.68c.13,4-7.48,8.24-9.59,4.84A7.26,7.26,0,0,1,31.23,85C30.47,69.4,44,54,63.92,51.17c13-1.86,21.68-8,25.1-13.69s5.7,4.57,5.7,4.57l-2.28,4.56S81.6,44.9,77.61,53.45s-2.85,10.84-9.69,12S57.08,63.15,52,65.43Z"/><path class="d" d="M216.12,95.37a16,16,0,0,1-5.83-1.09,15.33,15.33,0,0,1-3.91,8.92,51,51,0,0,1,2,12.39c.23,3.43.44,7,2.06,10s5.08,5.39,8.42,4.56c4.3-1.07,5.87-6.36,6-10.79.25-8.39-1.91-16.57-4.67-24.57A15.32,15.32,0,0,1,216.12,95.37Z"/><path class="b" d="M51.76,192.9A76,76,0,0,0,64,184.22c-.16,4.35,0,9.42,3.48,12,3.72,2.8,9.36,1,12.44-2.53s4.36-8.16,6-12.52,4-8.85,8.25-10.83c3-1.39,6.87-1.65,8.42-4.53,1-1.79.58-4,0-5.94-1.54-4.75-4.38-9-6.33-13.56s-2.95-10-.72-14.5c1.38-2.78,5.45-4.86,7.43-2.46-5.18,4.46-4.45,12.8-1.63,19s7.28,11.85,8.49,18.57a5.18,5.18,0,0,1-.06,2.68c-1,2.75-4.88,2.43-7.79,2.75-6.54.73-11,7-13.59,13s-4.42,12.76-9.25,17.22a11.36,11.36,0,0,0-2.35,2.5,7.19,7.19,0,0,0-.68,3.84,23.51,23.51,0,0,0,4.43,12.88c-4.28-5.91-16.31,4.15-19.6-4.94-1.12-3.09.89-8.22-.62-12.21C58.58,200.19,54.91,196.4,51.76,192.9Z"/><path class="b" d="M28.06,170.58a28.14,28.14,0,0,0,4.42-22.4,2.24,2.24,0,0,1,.08-1.8,2.12,2.12,0,0,1,1.57-.63c4.91-.54,11-.47,13.33,3.92a12.61,12.61,0,0,0-6.63,10.89c0,2.27.59,4.5.56,6.77-.11,8.37-8.6,14.44-10.09,22.68L28,169.58Z"/><path class="b" d="M36.57,104.78c4.27-5.63,6-13.06,11-18,7.28-7.21,19.91-7.58,26-15.86,3.44-4.72,4-11.11,7.5-15.77.69,6.9-2,13.64-4.71,20S70.14,88.63,63.47,90.29c-3.07.77-6.37.2-9.41,1.07-8,2.29-10.05,12.4-14.67,19.32-5.9,8.85-16.91,13-23.58,21.3,0-6.73-1.81-13.83,3.4-17.85S31.63,111.44,36.57,104.78Z"/><path class="b" d="M123.43,126.65c7.77,4.68,15.41,5.82,17.49,14.64,2.91,12.31-8.14,30.05-1.14,40.6,1.56,2.36,3.92,4.07,5.8,6.19,6.91,7.77,6.4,20.06,1.6,29.28s-13,16.1-21.06,22.71l25.54,1.18c-4.31-.35-5.75-6.34-4.07-10.32s5.12-7,6.69-11.06c1.75-4.49.95-9.6,2.32-14.22,1.48-5,5.37-9,7.2-13.88,3.4-9.12-2.12-20.53-11.38-23.54a10.92,10.92,0,0,1-4.14-1.79c-1.66-1.48-1.9-4-1.87-6.19.13-9.75,8.78-19.6,3.07-27.51-4.47-6.2-18.52-9.27-25.17-13-6.36-3.62-11.92-11.19-8.59-18.59-7.11-3.67-8.57,3.3-7.49,8.48C109.76,116.94,117.46,123.06,123.43,126.65Z"/><path class="b" d="M124.88,71.78a17.88,17.88,0,0,0-.73,3.31c.67-.75,1.36-1.48,2.06-2.2A14,14,0,0,1,124.88,71.78Z"/><path class="b" d="M215.58,140.57c-5.3-1.43-10.31-5.28-11.5-10.64-1.31-5.91,2.18-12.26.28-18a11.05,11.05,0,0,0-3.1-4.73A16,16,0,0,1,179.35,100a13.16,13.16,0,0,1-10.71,1.4c1.3,6.89,3.64,13.11,7.27,16.93,5.53,5.83,14.81,3.46,20.47,8.36,8.49,7.34,3,13.19,16.39,16.31A22.21,22.21,0,0,1,226,152.18,108.52,108.52,0,0,1,232,140.93C226.49,141.47,220.88,142,215.58,140.57Z"/><path class="b" d="M181.83,181.65a11.06,11.06,0,0,0,4.33-.32,9.35,9.35,0,0,0,3.56-2.59,28.94,28.94,0,0,0,6.36-10.55c.72-2.12,1.36-4.54,3.29-5.66s4.42-.45,6.49.44,4.23,2,6.45,1.64,4.13-3.1,2.76-4.89c2.14,3,9.7-1.89,10.27-13.86.74,6.94,6.27,25.09-8.36,35.63-2.31,1.67-2.12.62-4.57-.84a26.75,26.75,0,0,0-8.31-2.83,9.7,9.7,0,0,0-8.22,2.93c-2.19,2.13-3.95,4.77-6.54,6.39-2.92,1.82-6.51,2.12-10,2.21a112.79,112.79,0,0,1-23.13-1.76q-1.38-6-2.77-12.09C153.49,181.25,179.21,181.5,181.83,181.65Z"/><path class="b" d="M98.66,88.62C96.47,86.16,94.19,83,90.9,83.1c-2.87.05-5,2.58-6.68,4.9q-6.59,9.15-12.38,18.84L88.46,92.08a2,2,0,0,1,3.14-.18c7.82,6.16,15.49,13.11,23.81,18.48C118.59,95.93,106.38,97.28,98.66,88.62Z"/><path class="b" d="M177.22,112.7c-.26.37.71.41.65,0s-.62-.6-1.07-.67a47.85,47.85,0,0,1-23.1-10.2c-3.92,4.83-11.54,4.5-16.49,8.27-5.14,3.92-6.13,11.13-6.72,17.57-3-3.2-7.74-4.55-10.72-7.76a3,3,0,0,1-.86-1.36,3.07,3.07,0,0,1,.61-2.07,81.05,81.05,0,0,0,7.23-16.6c8,4.52,19.64.37,23-8.23a65.23,65.23,0,0,0,29.42,16.63C179.19,109.87,177.17,111.08,177.22,112.7Z"/><path class="e" d="M23,143.71a24.76,24.76,0,0,0,4.94,10.49c1.43,1.9,3.12,3.77,5.36,4.58s5.15.22,6.3-1.87c1-1.9.67-4.79,2.62-5.73,1.64-.79,3.9.49,5.27-.7s.52-3.17-.77-4.15-2.95-1.31-4.3-2.2c-2.91-1.94-3.6-5.85-5.46-8.8a11.94,11.94,0,0,0-4.5-4.17C24.48,126.93,22.05,138.25,23,143.71Z"/><path class="e" d="M71.48,200.72q-.69-8.33-1.37-16.65a6.88,6.88,0,0,0-.56-2.62,6.32,6.32,0,0,0-7.34-3.08c-3.88,1.2-7.61,6.75-11.24,8.57A5.88,5.88,0,0,0,48,189.32c-1,2.11.85,4.61,3,5.49s4.63.76,6.89,1.39c4,1.12,6.9,4.36,10.35,6.61a2.43,2.43,0,0,0,2.4.48C71.52,202.83,71.55,201.67,71.48,200.72Z"/><path class="e" d="M106.48,213.35a20.54,20.54,0,0,0,4.16.8,11.51,11.51,0,0,1,7.91,5.54,10.15,10.15,0,0,0,1.7,2.71c1.56,1.45,4.28,1.27,6,.06a8.93,8.93,0,0,0,3.25-5.21c1.61-6.06-.43-13.09-5.77-16.84C111.7,191.92,95.71,209,106.48,213.35Z"/><path class="e" d="M194.63,163.24a15,15,0,0,0,22,8.13,8.58,8.58,0,0,0,3.64-3.9c1.6-3.93-1.25-8.19-4.23-11.19-1.68-1.69-3.58-3.34-5.9-3.83C203.05,151,191.84,154.7,194.63,163.24Z"/><path class="e" d="M85.45,132.38c0,3.74,2.4,7.05,5,9.78,1.94,2.05,4.3,4,7.12,4.17a8.14,8.14,0,0,0,6.42-3.24,18.58,18.58,0,0,0,3.14-6.7c1-3.39,1.48-7.47-.92-10a9,9,0,0,0-5-2.41C95.12,122.72,85.32,124.09,85.45,132.38Z"/><path class="b" d="M60.5,121.9c-3-2-8.55,11.41-5.13,12.55S65.63,125.32,60.5,121.9Z"/><path class="b" d="M71.34,115.06c-4.94-1.41-4,10.26-.57,8.55S75.33,116.2,71.34,115.06Z"/><path class="b" d="M189.41,194.34c-3.43-3.42-9.7,1.14-7.42,4.56S192.83,197.76,189.41,194.34Z"/><path class="b" d="M179.14,151.56c-4.5.75-9.13-8.56-5.13-10.27S182.56,151,179.14,151.56Z"/><path class="c" d="M176.86,125.89c-3.61,0-3.42,6.85,0,6.85S180.28,125.89,176.86,125.89Z"/><path class="c" d="M70.77,137.3c-2.7-1.08-2.28,5.7.57,5.7S73.62,138.44,70.77,137.3Z"/><path class="b" d="M99.86,178.37c-3.68,1.84,0,9.12,3.42,7.41S103.28,176.66,99.86,178.37Z"/><path class="b" d="M209.94,125.89s5.7,10.84,11.41,8,3.42-18.82,3.42-18.82-1.71,12.54-5.13,14.25C214.38,131.94,209.94,125.89,209.94,125.89Z"/><path class="b" d="M26.28,88.82c-3.52,4.54-.19,31-5.9,30.61C11.33,118.82,23.2,92.8,26.28,88.82Z"/><path class="e" d="M50.62,70.35A21.74,21.74,0,0,0,45,84a5.92,5.92,0,0,0,.81,3.73c1.39,1.91,4.24,1.86,6.55,1.35A31.5,31.5,0,0,0,65.2,83c2.17-1.73,4.26-4.21,3.8-6.94-.4-2.33-2.54-4-4.69-4.92a19.76,19.76,0,0,0-13.4-1Z"/><path class="f" d="M46.77,146.4c.5,2.18-1.77,2.21-5.7,2.81s-1.09,5.14-7.36,5.2-10.79-15.12-10.79-15.12h0a16.84,16.84,0,0,0,.07,4.41,24.76,24.76,0,0,0,4.94,10.49c1.43,1.9,3.12,3.77,5.36,4.58s5.15.22,6.3-1.87c1-1.9.67-4.79,2.62-5.73,1.64-.79,3.9.49,5.27-.7C48.65,149.45,48,147.4,46.77,146.4Z"/><path class="f" d="M70.12,184.14q-.74,6-1.45,11.93a2.08,2.08,0,0,1-.25.89c-.6.93-2,.38-2.89-.33-2.23-1.86-4.16-4.38-7-5.08-2-.49-4.06,0-6-.43-1.59-.33-3.15-1.72-3.24-3.19A3.88,3.88,0,0,0,48,189.32c-1,2.11.85,4.61,3,5.49s4.63.76,6.89,1.39c4,1.12,6.9,4.36,10.35,6.61a2.43,2.43,0,0,0,2.4.48c.82-.46.85-1.62.78-2.57Q70.79,192.44,70.12,184.14Z"/><path class="f" d="M122.47,218.5c-3.22-1-4-5.39-6.9-7.22-3.26-2.1-8.64-.6-10.58-4a5.53,5.53,0,0,1-.58-2.83c-2.26,3.35-2.22,7.11,2.07,8.86a20.54,20.54,0,0,0,4.16.8,11.51,11.51,0,0,1,7.91,5.54,10.15,10.15,0,0,0,1.7,2.71c1.56,1.45,4.28,1.27,6,.06a8.93,8.93,0,0,0,3.25-5.21,16.27,16.27,0,0,0,.53-4.71,11.4,11.4,0,0,1-1.62,3.5C127.11,217.91,124.67,219.21,122.47,218.5Z"/><path class="f" d="M107.89,131.71c0-.54-.06-1.08-.08-1.62a7.7,7.7,0,0,0-.38-1.66,27.49,27.49,0,0,1-4.35,7.65c-1.46,1.81-3.32,3.52-5.62,3.9-3.28.54-6.38-1.77-8.39-4.41a12.45,12.45,0,0,1-2.28-4.24c-.18-.7,0-2.36-.07-3.54a7.75,7.75,0,0,0-1.27,4.59c0,3.74,2.4,7.05,5,9.78,1.94,2.05,4.3,4,7.12,4.17a8.14,8.14,0,0,0,6.42-3.24,18.58,18.58,0,0,0,3.14-6.7A19,19,0,0,0,107.89,131.71Z"/><path class="f" d="M67.44,73.24a6.65,6.65,0,0,1-1.21,3.21A17.63,17.63,0,0,1,62.45,80c-3,2.34-6.66,4.83-10.38,3.92a4.26,4.26,0,0,1-2.42-1.46,5.2,5.2,0,0,1-.85-2.64C48.45,76.42,50.68,73,51,70.14h-.05l-.29.2A21.74,21.74,0,0,0,45,84a5.92,5.92,0,0,0,.81,3.73c1.39,1.91,4.24,1.86,6.55,1.35A31.5,31.5,0,0,0,65.2,83c2.17-1.73,4.26-4.21,3.8-6.94A5.31,5.31,0,0,0,67.44,73.24Z"/><path class="f" d="M214,154.38a16.56,16.56,0,0,1,1.92,5.67c.29,2.64-.65,5.58-2.93,6.93a7.81,7.81,0,0,1-3.78.9,14.83,14.83,0,0,1-10.28-4.14c-1.58-1.47-2.69-3.88-4.13-5.78a7.08,7.08,0,0,0-.15,5.28,15,15,0,0,0,22,8.13,8.58,8.58,0,0,0,3.64-3.9c1.6-3.93-1.25-8.19-4.23-11.19A22.22,22.22,0,0,0,214,154.38Z"/><path class="g" d="M53.09,73c-1.61,3.21,9.5,5.32,10.64,2.66S54.61,70,53.09,73Z"/><path class="g" d="M88.83,129.7c-.44,2.62,13.35,3.18,14.09-.31S89.59,125.13,88.83,129.7Z"/><path class="g" d="M28,133.5c-2.66,2.28,4.94,15.21,8.36,12.93S30.65,131.22,28,133.5Z"/><path class="g" d="M62.21,180.65C59,182,63.35,192.82,65.63,192.06S66.78,178.75,62.21,180.65Z"/><path class="g" d="M110.12,203.84c.27,2.65,4.95-.76,8.37,1.53s4.94,8.74,6.84,6.84,1.91-8.37-4.56-10.27S109.74,200,110.12,203.84Z"/><path class="g" d="M197.58,158.59c.62,2.48,6.47-2.66,9.89-.38s4.18,3.43,5.7,2.67,0-4.95-3.8-5.71S196.82,155.55,197.58,158.59Z"/><path class="a" d="M131.8,104.6a26.33,26.33,0,0,0,11-1.9,37.45,37.45,0,0,0,8.36-5.33s-3.42,5.71-8.74,8a49.54,49.54,0,0,1-11.79,3Z"/><path class="a" d="M120.77,117.53a7.58,7.58,0,0,0,4.94,7.22c5.33,2.28,14.45,8,16.74,11.41s1.14,16.73,0,22.43c0,0,6.08-18.25,3.8-22.05S132.18,125.13,128,123.23s-4.19-7.22-4.19-7.22Z"/><path class="a" d="M63,231.22s7.23-9.88,6.85-13.31S66,206.13,66,206.13s7.23,8.36,7.23,11.4S71.34,232,71.34,232Z"/><path class="a" d="M9.74,122.85s5.7-1.52,8.36-4.18,3.81-13.31,3.81-13.31,1.14,12.55-2.29,16.73a41.24,41.24,0,0,1-9.12,7.61Z"/><path class="a" d="M188.84,115.63s6.84,3,8.74,5.32,3,7.22,4.56,9.13c0,0,.39-9.13-1.52-12.17s-8.74-8.37-8.74-8.37Z"/><path class="a" d="M149.29,193.58s3,10.26-.38,17.87A157.26,157.26,0,0,1,140.54,227s9.13-8.37,11.41-16.35a60.39,60.39,0,0,0,1.9-16.73Z"/><path class="e" d="M136.77,182.31c1.3,4.62,5,8.22,9.1,10.71,3.53,2.15,8,3.63,11.73,1.88,4.42-2.07,5.86-7.63,6.15-12.5.19-3.24.08-6.63-1.45-9.48C155.45,160.14,132.45,167,136.77,182.31Z"/><path class="f" d="M163.75,182.4a27.25,27.25,0,0,0-.12-5.19,25.66,25.66,0,0,1-1.86,5.48,11.49,11.49,0,0,1-6.31,6c-4.89,1.63-10.18-1.47-13.49-5.42-2.46-2.93-4.06-6.26-3.72-10.14a7.89,7.89,0,0,1,.21-1.26,11.61,11.61,0,0,0-1.69,10.45c1.3,4.62,5,8.22,9.1,10.71,3.53,2.15,8,3.63,11.73,1.88C162,192.83,163.46,187.27,163.75,182.4Z"/><path class="g" d="M141.3,174.18c-1.5,3.52,5.71,6.47,9.13,2.29s9.13,6.08,9.13,1.52-2.67-8.75-8.37-8.37S142.45,171.52,141.3,174.18Z"/><path class="e" d="M107.16,108.77c1.72,4.54,5.89,7.83,10.45,9.5,2.3.84,5,1.27,7.07-.11,2.23-1.53,2.72-4.63,4.54-6.63,1.06-1.15,2.52-1.88,3.63-3,3.09-3,2.75-8.5,0-11.82C124.12,86.28,101.26,93.26,107.16,108.77Z"/><path class="f" d="M133.11,102.16a5.87,5.87,0,0,1-3.86,4.27c-1.09.28-2.31.15-3.27.75a8.07,8.07,0,0,0-1.89,2.44c-2.7,3.91-9.17,3.45-12.48,0-2.58-2.68-3.44-6.33-3.63-9.94,0-.56-.06-1.06-.11-1.53-1.79,2.78-2.32,6.37-.71,10.59,1.72,4.54,5.89,7.83,10.45,9.5,2.3.84,5,1.27,7.07-.11,2.23-1.53,2.72-4.63,4.54-6.63,1.06-1.15,2.52-1.88,3.63-3,2.84-2.8,2.77-7.63.59-11A14,14,0,0,1,133.11,102.16Z"/><path class="g" d="M110.88,102.7c-2.68-2.42,1.91-8.37,10.27-8s11,4.18,8.75,6.85-4.57-3-8.75-2.67S114.69,106.12,110.88,102.7Z"/><path class="e" d="M193.87,109.05a16.15,16.15,0,0,1-14.52-9.1,13.53,13.53,0,0,1-6,1.93c-1.08,1.8-1.23,4.31.13,7.81,1.6,4.09,5.32,7,9.3,8.88,2.5,1.17,5.82,1.86,7.74-.13a7.5,7.5,0,0,0,1.46-2.73l2.45-6.67Z"/><path class="f" d="M193.87,109.05a16.21,16.21,0,0,1-4.56-.65c-.38,1.6-.51,3.32-1.56,4.56-2,2.34-5.85,1.49-8.29-.35a12.93,12.93,0,0,1-5-10.84c-.35,0-.7.09-1.05.11-1.08,1.8-1.23,4.31.13,7.81,1.6,4.09,5.32,7,9.3,8.88,2.5,1.17,5.82,1.86,7.74-.13a7.35,7.35,0,0,0,1.46-2.73c.82-2.22,1.63-4.45,2.45-6.67Z"/><path class="g" d="M179.72,100.65c-1.7.43-2.94,1.2-3.05,2.43-.21,2.3,1.9,6.46,5.7,5.32,1.89-.57,1.9-1.61,1.81-2.6A17,17,0,0,1,179.72,100.65Z"/><path class="d" d="M108.65,39.37A2.66,2.66,0,0,1,107.29,37,19.29,19.29,0,0,0,106,27.16a39.87,39.87,0,0,0-11.85,1.77c-8,2.85-8,13.93-5.7,18.25,4,7.42,10.27-1.71,20-2.85a12.36,12.36,0,0,0,5.31-1.7A28.11,28.11,0,0,0,108.65,39.37Z"/><path class="b" d="M118.25,48.12a16,16,0,0,0-2.8-3.9,3.94,3.94,0,0,1-1.91.47c-10-.19-20.26-22.92-21.89-.67-1.43,19.59,7.77,17.84,21.9,13.81,2.5-.72,5.39-3.45,6.31-4.73A17.38,17.38,0,0,0,118.25,48.12Z"/><path class="e" d="M110.43,45.58a38.63,38.63,0,0,1-8.29-8.92c-1.55-2.33-3.52-5.17-6.3-4.83-2.2.27-3.57,2.49-4.53,4.49-1.71,3.57-3.22,7.39-3.1,11.35s2.22,8.09,5.92,9.52a13.63,13.63,0,0,0,6,.55C108.82,57,121.26,54,110.43,45.58Z"/><path class="f" d="M110.43,45.58a38.74,38.74,0,0,1-6.37-6.3,28.54,28.54,0,0,0,2.33,4.78c.88,1.45,1.94,3,1.84,4.67-.33,5.27-7.84,5.6-11.41,4.91-3.37-.64-6.09-3-8.59-7.12,0,.38,0,.77,0,1.15.12,4,2.22,8.09,5.92,9.52a13.63,13.63,0,0,0,6,.55C108.82,57,121.26,54,110.43,45.58Z"/><path class="g" d="M95.67,35c-1.63,1-3,14.07.38,13.69s7.23-.38,6.85-3S97.58,33.87,95.67,35Z"/><path class="h" d="M106.48,28.43c-2.41.2-4,.7-3.77,1.64.3,1.49,2,2.66,4.69,3.12A19,19,0,0,0,106.48,28.43Z"/><path class="h" d="M216.12,95.37a17.22,17.22,0,0,1-2.18-.15c5,14.27,3.23,23.26,5.7,23.26,2.09,0,.18-11.72-2.79-23.13Z"/><path class="h" d="M35.4,77.41c-3.07,0,6.28-16,13.12-18.82s18.26-4,22.25-5.71,7.41,1.72-.57,4S54.8,58,46.81,64.29,38.26,77.41,35.4,77.41Z"/><path class="h" d="M143.21,117.91c-1.5-2.5,13-8.26,15.4-3.42C159.75,116.77,144.92,120.76,143.21,117.91Z"/><path class="h" d="M89,100.8c-2.42,3.22,8,14.26,9.7,12.54S90.73,98.51,89,100.8Z"/><path class="h" d="M86.17,66.57c-.48,2.87,15.4,7.42,21.1,6.28s11.41-5.71,9.7-7.42-6.85,2.28-12,2.85S86.74,63.15,86.17,66.57Z"/><path class="h" d="M110.69,147.57c.5,2,14.83-3.43,13.69-8s-6.84-10.84-7.41-6.84S110.12,145.29,110.69,147.57Z"/><path class="h" d="M56.51,107.07c-3.47,0-7.42,4.56-9.13,9.13S44,126.46,46.24,127s1.71-4.56,4.56-8,9.7-2.28,10.84-4.56S59.93,107.07,56.51,107.07Z"/><path class="c" d="M107.29,38.25s11,3.43,12.93,11-.76,16,5.32,20.53,10.3,4.83,15.42,3.56c0,0,.94,7.85,6.26,10.13a33.15,33.15,0,0,0,11.87,2.17s-.08,9.24,5.24,12.66,8.15,3.59,8.15,3.59a9.78,9.78,0,0,1-10.43-3.21,21.35,21.35,0,0,1-4.94-11.4s-9.51,0-12.55-3.43a42.87,42.87,0,0,1-5.33-8s-8.45,1.59-14.64-3.42-4-14.83-7-21.68S107.29,38.25,107.29,38.25Z"/><path class="f" d="M172.7,102.9s6.46-4.57,8-4.19,1.14,3.43,5.32,6.47a23.65,23.65,0,0,0,8.47,3.86s-5,1.46-8.85-2a42.23,42.23,0,0,1-5.9-6.43Z"/><path class="b" d="M160.15,51.18c5.7-6.08-1.05-21.58-3.52-24.81s-10.27-2.76-14.26.86c-2.26,2-11.69,13.3-8.84,19.77.73,1.67,3.3,2.09,5.07,2.51,2.21.51,4.53-.18,6.8,0s4.29,1.25,6.4,2S158.61,52.82,160.15,51.18Z"/><path class="c" d="M155.49,25.23c-2.57-.91-8.27-1.33-10.17.57s-9.7,13.69-7.23,17.68c.91,1.47,4,2.66,7.13,1.81,5.18-1.41,13.27,3.69,14.83,1C162.52,42.15,158.72,26.37,155.49,25.23Z"/><path class="d" d="M145.24,33.36c.9.16,1.76-.47,2.67-.44a2.6,2.6,0,0,1,2,1.38,8.19,8.19,0,0,1,.76,2.43c.45,2.14,1.07,4.4,2.71,5.84s4.62,1.53,5.72-.35a5.34,5.34,0,0,0,.54-2.23,36.76,36.76,0,0,0,.09-5.14c-.14-2.68-.61-5.48-2.27-7.59-2.08-2.66-7-4.07-10.17-2.5C145.26,25.78,141.27,32.7,145.24,33.36Z"/><path class="h" d="M146.08,25.23s5.7-3.42,10.07-.19c3,2.23,4.77,11.61,5,15.87.57,8.85-6.56,5.71-6.56,5.71s5.42-.29,4.28-10c-.65-5.5-2.28-9.41-5.13-10.84S146.08,25.23,146.08,25.23Z"/><path class="f" d="M136.61,12.64c2.62-2.79-.48-9.91-1.62-11.39s-4.71-1.27-6.55.39c-1,.94-5.37,6.11-4.06,9.08.34.77,1.52,1,2.33,1.15a21.65,21.65,0,0,0,3.12,0,12,12,0,0,1,2.94.93C133.74,13.15,135.9,13.4,136.61,12.64Z"/><path class="e" d="M134.47.73c-1.18-.42-3.8-.62-4.67.26s-4.46,6.28-3.32,8.12a3.14,3.14,0,0,0,3.27.83c2.38-.65,6.1,1.69,6.81.48C137.7,8.5,136,1.25,134.47.73Z"/><path class="g" d="M129.76,4.46c.41.07.81-.22,1.23-.2a1.15,1.15,0,0,1,.92.63A3.59,3.59,0,0,1,132.27,6a4.64,4.64,0,0,0,1.24,2.68,1.78,1.78,0,0,0,2.62-.16,2.45,2.45,0,0,0,.26-1,16.88,16.88,0,0,0,0-2.36,6,6,0,0,0-1-3.48A4.22,4.22,0,0,0,130.71.51C129.77,1,127.94,4.15,129.76,4.46Z"/><path class="i" d="M130.15.73s2.62-1.58,4.62-.09c1.39,1,2.19,5.33,2.32,7.29.26,4.06-3,2.62-3,2.62s2.48-.13,2-4.59c-.3-2.52-1-4.32-2.36-5A6.94,6.94,0,0,0,130.15.73Z"/><path class="b" d="M243.37,53.46c2.62-2.79-.48-9.91-1.61-11.39s-4.72-1.27-6.55.39c-1,.94-5.37,6.11-4.06,9.08.34.77,1.51,1,2.33,1.15a21.65,21.65,0,0,0,3.12,0,12.38,12.38,0,0,1,2.94.92C240.51,54,242.67,54.21,243.37,53.46Z"/><path class="c" d="M241.23,41.54c-1.18-.41-3.8-.61-4.67.27s-4.45,6.28-3.32,8.12a3.14,3.14,0,0,0,3.28.82c2.37-.64,6.09,1.7,6.81.49C244.46,49.31,242.72,42.07,241.23,41.54Z"/><path class="d" d="M236.53,45.28c.41.07.8-.22,1.22-.2a1.18,1.18,0,0,1,.93.63,3.88,3.88,0,0,1,.35,1.11,4.8,4.8,0,0,0,1.24,2.69,1.79,1.79,0,0,0,2.63-.17,2.36,2.36,0,0,0,.25-1,16.88,16.88,0,0,0,0-2.36,6.07,6.07,0,0,0-1-3.49,4.24,4.24,0,0,0-4.67-1.14C236.53,41.8,234.7,45,236.53,45.28Z"/><path class="h" d="M236.91,41.54s2.62-1.57,4.63-.08c1.38,1,2.19,5.33,2.31,7.29.26,4.06-3,2.62-3,2.62s2.49-.13,2-4.59c-.29-2.52-1-4.32-2.35-5A7,7,0,0,0,236.91,41.54Z"/><path class="b" d="M191.66,53.88c-1.73,1.52-3.42,7.42-3.42,9.41s4.27,2,6.27,3.42,2,9.42,4,9.7,10-2.85,11.41-8,1.14-14-2.28-15.12S193.94,51.89,191.66,53.88Z"/><path class="c" d="M193.94,54.74c-1.14,1.14-3.71,5.42-2.57,6.56s5.42,2.56,6.28,4.56.57,7.41,2.56,7.7,8-.29,9.7-5.13,3.14-12.55-2.28-15.12S195.94,52.74,193.94,54.74Z"/><path class="d" d="M196.79,52.74c-1.84.92-3.71,6.56-2.28,6.85s5.13.57,6.56,2.85-1.71,6.27-1.14,8,8.84.57,10-2,4-8.84.86-12.84S199.07,51.6,196.79,52.74Z"/><path class="h" d="M191.66,53.88a23.73,23.73,0,0,1,11.12-2.28c6.27.29,9.7,4,9.7,6.27s-.57,10.84-3.43,12.55-9.12,0-9.12,0,7.13.86,8.84-2.28S211.91,59.3,210.2,57s-4.57-3.14-10-3.71A20.83,20.83,0,0,0,191.66,53.88Z"/><path class="b" d="M168.37,25.77A7.86,7.86,0,0,0,167,29.64c0,.82,1.76.82,2.58,1.41s.82,3.87,1.64,4,4.1-1.17,4.69-3.28.47-5.74-.94-6.21S169.31,25,168.37,25.77Z"/><path class="c" d="M169.31,26.13c-.47.46-1.53,2.22-1.06,2.69s2.23,1.06,2.58,1.88.23,3,1,3.16,3.29-.12,4-2.11,1.29-5.16-.94-6.21A5.52,5.52,0,0,0,169.31,26.13Z"/><path class="d" d="M170.48,25.3c-.76.38-1.53,2.7-.94,2.82s2.11.23,2.7,1.17-.71,2.58-.47,3.28,3.63.24,4.1-.82,1.64-3.63.35-5.27S171.41,24.84,170.48,25.3Z"/><path class="h" d="M168.37,25.77a9.77,9.77,0,0,1,4.57-.93c2.58.11,4,1.64,4,2.57s-.23,4.46-1.4,5.16-3.75,0-3.75,0,2.93.35,3.63-.94,1.29-3.63.59-4.57-1.88-1.29-4.11-1.52A8.48,8.48,0,0,0,168.37,25.77Z"/><path class="f" d="M217.05,24.3a6.84,6.84,0,0,0,2,3c.59.41,1.48-.84,2.31-1.13s3.18,1.38,3.68.85,1.24-3.52,0-5-3.86-3.24-4.91-2.48S216.94,23.22,217.05,24.3Z"/><path class="e" d="M217.77,23.81c.1.57.82,2.22,1.39,2.12s1.88-1.05,2.65-.89,2.29,1.38,2.79.86,1.58-2.41.52-3.92-3-3.53-4.91-2.48A4.89,4.89,0,0,0,217.77,23.81Z"/><path class="g" d="M217.78,22.56c-.11.73,1.15,2.45,1.53,2.1s1.24-1.39,2.21-1.33,1.48,1.81,2.1,2,2-2.48,1.5-3.35-1.76-3-3.59-2.92S217.92,21.65,217.78,22.56Z"/><path class="i" d="M217.05,24.3a8.43,8.43,0,0,1,1.65-3.73c1.39-1.78,3.19-2,3.86-1.54s3.06,2.43,3,3.62-1.9,2.68-1.9,2.68,1.74-1.92,1.17-3.07-1.93-2.76-3-2.74-1.87.69-3.17,2.16A7.55,7.55,0,0,0,217.05,24.3Z"/><path class="b" d="M199.07,23.36c-2.14.83-5.41,8-2,11.41s3.13,7.13,5.42,7.42,3.7-5.42,7.41-5.71,5.42-2.85,4-5.13-9.12-2.28-9.41-4.85S202.78,21.94,199.07,23.36Z"/><path class="c" d="M200.5,23.36c-1.8,1-4,6-2,8.56s4,7.13,6.56,4.85,8.84-2.28,8.56-4.28-6.85-3.42-8-6.28S202.5,22.22,200.5,23.36Z"/><path class="d" d="M200.5,23.36c-1.83,1-.86,5.14.57,7.13s7.7,1.71,8.27.86-2-1.43-2.85-3.71S204.21,21.37,200.5,23.36Z"/><path class="h" d="M200.5,23.36s2.85-2,4.28-.28.85,4.28,2.85,4.85,5.13,1.42,5.7,2.85l.57,1.42s-.28-1.42-4.27-2.28-4.28-.85-5.14-3.42S203.35,22.51,200.5,23.36Z"/></svg>