<svg xmlns="http://www.w3.org/2000/svg" viewBox="0 0 268.75 256"><defs><style>.a{fill:#f6b658;}.b{fill:#e3a45a;}.c{fill:#c68a4f;}.d{fill:#ffc554;}.e{fill:#673815;}.f{fill:#fff;opacity:0.43;}</style></defs><title>cookies</title><path class="a" d="M23.22,41.26C14,51.7,6.45,64.94,7.72,78.81c.54,6,2.7,11.78,2.59,17.77-.14,7.58-3.87,14.56-6.32,21.73C-3,138.64.26,161,5.38,181.84c4.13,16.8,10.83,35,26.29,42.79,8.24,4.14,17.8,4.62,26.51,7.65,6.54,2.27,12.48,5.94,18.63,9.12,43.18,22.31,98.52,18.8,138.52-8.8,4.64-3.2,9.17-6.8,12.17-11.57,3.31-5.27,4.51-11.58,7.07-17.26,6-13.38,19.11-22.24,26.81-34.74a50,50,0,0,0,7.3-28.72c-.7-12.86-6.33-24.89-9.06-37.48-4.55-21-1.6-45-15-61.86-6.7-8.41-16.55-13.57-26.1-18.5C194.83,10.25,169.42-2.32,142.9.37,130.82,1.59,119.21,6,107.11,7c-9.31.78-18.69-.44-28,.12C58.17,8.38,36.59,26.1,23.22,41.26Z"/><path class="b" d="M259.62,102.83C256.24,87.25,257,70,252.14,55.27c0,.72,0,1.43-.08,2.13-.58,12-2.62,24-.95,35.87,2.8,19.87,15.79,39.85,8.45,58.52-5.31,13.54-19.67,21.12-28.12,32.94-3.51,4.9-6.3,10.82-11.7,13.48s-12.43,1.44-17.1,5.23c-5.74,4.65-4.6,13.91-8.77,20-2.08,3.05-5.35,5.08-8.68,6.69A56.21,56.21,0,0,1,152.33,235c-14-2.18-27-9.64-41.2-9.68-11.31,0-23.82,4.43-33.19-1.9-3.15-2.12-5.49-5.25-8.54-7.52-10.47-7.82-25.48-3.44-38-7.09-10.4-3-18.5-11.53-23.48-21.15A45.33,45.33,0,0,1,5,180.31c.12.51.25,1,.37,1.53,4.13,16.8,10.83,35,26.29,42.79,8.24,4.14,17.8,4.62,26.51,7.65,6.54,2.27,12.48,5.94,18.63,9.12,43.18,22.31,98.52,18.8,138.52-8.8,4.64-3.2,9.17-6.8,12.17-11.57,3.31-5.27,4.51-11.58,7.07-17.26,6-13.38,19.11-22.24,26.81-34.74a50,50,0,0,0,7.3-28.72C268,127.45,262.35,115.42,259.62,102.83Z"/><path class="c" d="M7.43,189.43a45.48,45.48,0,0,0,6.15,7,50.81,50.81,0,0,1-5.69-8.72A45.33,45.33,0,0,1,5,180.31c.12.51.25,1,.37,1.53C6,184.35,6.67,186.89,7.43,189.43Z"/><path class="c" d="M268.68,140.31c-.7-12.86-6.33-24.89-9.06-37.48C256.24,87.25,257,70,252.14,55.27c0,.72,0,1.43-.08,2.13-.17,3.44-.45,6.87-.74,10.31,1.29,10.11,1.78,20.62,3.91,30.45,2.73,12.59,8.36,24.62,9.06,37.48a50,50,0,0,1-7.3,28.73c-7.69,12.49-20.76,21.35-26.8,34.73-2.57,5.68-3.76,12-7.08,17.26-3,4.78-7.53,8.37-12.16,11.57-40,27.6-95.35,31.12-138.52,8.8-6.15-3.18-12.1-6.85-18.64-9.12-8.7-3-18.27-3.51-26.51-7.65a35,35,0,0,1-7.74-5.33,36.72,36.72,0,0,0,12.13,10c8.24,4.14,17.8,4.62,26.51,7.65,6.54,2.27,12.48,5.94,18.63,9.12,43.18,22.31,98.52,18.8,138.52-8.8,4.64-3.2,9.17-6.8,12.17-11.57,3.31-5.27,4.51-11.58,7.07-17.26,6-13.38,19.11-22.24,26.81-34.74A50,50,0,0,0,268.68,140.31Z"/><path class="b" d="M211,45.59c.22,2.7-1.4,5.23-3.35,7.1S203.39,56,201.51,58a3.4,3.4,0,0,0-1,1.75,3.69,3.69,0,0,0,.57,2.07c1.31,2.55,2.79,5.07,3.41,7.86s.23,6-1.8,8a8.44,8.44,0,0,1-7.42,1.88,24.85,24.85,0,0,1-7.32-3,28.09,28.09,0,0,0,9.5,4.82,12.52,12.52,0,0,0,10.26-1.62c2.88-2.11,4.4-6.19,3-9.46a9.72,9.72,0,0,1-1-2.48,4.05,4.05,0,0,1,2-3.73,18.13,18.13,0,0,1,4.12-1.69c2.88-1,5.67-2.72,7.16-5.39,2.35-4.2.77-9.74-2.48-13.3s-7.82-5.56-12.29-7.38c-6.59-2.69-14-5.54-21.22-4.38C193.89,34.67,210.21,35.67,211,45.59Z"/><path class="b" d="M41.14,164.23a5.08,5.08,0,0,1,2-1.25,5,5,0,0,1,2.83.5l8.26,3.19a7.3,7.3,0,0,1,3.34,2.06c.66.86.92,2,1.62,2.81a5.14,5.14,0,0,0,3.45,1.54A11.33,11.33,0,0,0,74.43,165a3,3,0,0,0-.16-2.48,4.64,4.64,0,0,0-1.58-1.14,6.81,6.81,0,0,1-2.24-9,3.55,3.55,0,0,0,.77,3.73,22.08,22.08,0,0,0,3.11,2.58,13.37,13.37,0,0,1,4.76,8.42,7.24,7.24,0,0,1-.64,4.57,12.23,12.23,0,0,1-2.6,2.78,22.65,22.65,0,0,0-5.55,8,9.77,9.77,0,0,1-1.83,3.39c-.92.91-2.55,1.28-3.49.38-1.33-1.27-1-4.5-2.87-4.25-.7.1-1.15.79-1.7,1.23-2.08,1.64-5.17-.52-6.16-3s-1.07-5.35-2.76-7.4a7.93,7.93,0,0,0-4.25-2.45,12.06,12.06,0,0,0-8.11.79,11.79,11.79,0,0,0-6.36,8.3C34.28,171.46,35,169.5,41.14,164.23Z"/><path class="b" d="M184.68,185.59a12.69,12.69,0,0,0,5.62-9.06,4.77,4.77,0,0,1,.81-2.8,4,4,0,0,1,1.3-.84l17-8.06c-4.42,3.68-11.14,4.63-14.13,9.54a18,18,0,0,0-1.65,4.1l-2.22,7.17a4.91,4.91,0,0,1-1.18,2.27,5.26,5.26,0,0,1-2.27,1,30.29,30.29,0,0,0-19.32,16.33c1.05-3.92,2-10,4.49-13.23C175.88,188.46,181.09,187.9,184.68,185.59Z"/><path class="b" d="M130.68,84.29c-3,3.31-7.73,5.1-9.88,9-1.62,3-1.42,6.6-1.18,10l.78,11q.72-8.17,1.46-16.34a5.45,5.45,0,0,1,.56-2.34c.65-1.13,2-1.64,3.12-2.22,3.94-2,6.91-5.4,9.77-8.74a12.7,12.7,0,0,0,3-4.92,14.47,14.47,0,0,0,0-4.69,54.09,54.09,0,0,1,1.47-17.19c-2.83,4.22-4.47,6-4.74,11.14C134.8,74.52,134.62,80,130.68,84.29Z"/><path class="d" d="M18.63,72.66C19,80.81,21,89.27,18.2,96.93c-1.58,4.35-4.56,9.48-1.65,13.09,1.62,2,4.64,2.48,7.1,1.7a14.65,14.65,0,0,0,6.19-4.53A38.23,38.23,0,0,0,39,88c.93-5.78.53-11.77,2.07-17.41,2.73-10,11-17.36,19.27-23.64,3.35-2.55,6.81-5.08,9.23-8.52,3.42-4.83,4.44-10.91,5.36-16.76a3.22,3.22,0,0,0-.16-2.13c-.56-.93-1.88-1-2.94-.8-4.39.91-7.28,4.93-10.39,8.16-10.33,10.7-25,15.19-34.58,26.82-.41-.26-.08-.4-.6-.6C19.94,57.1,18.36,65.78,18.63,72.66Z"/><path class="d" d="M110.62,23.92q.67,5.59,1.33,11.19a10.84,10.84,0,0,0,1.56,5.24c2.33,3.18,7.38,2.81,10.7.7s5.64-5.47,8.69-8c3.76-3.06,8.45-4.69,13-6.25a58.49,58.49,0,0,1,11.88-3.15c7.38-.9,15.33.92,22-2.43a4.94,4.94,0,0,0,1.81-1.38c1.39-1.93-.12-4.69-2-6.08-3.71-2.69-8.68-2.88-13.23-2.3s-9,1.81-13.64,1.62-9.14-1.86-13.74-2.68C128.58,8.59,108.92,9.6,110.62,23.92Z"/><path class="d" d="M17.31,126.09a25.49,25.49,0,0,0-4.38,8.27,67.15,67.15,0,0,0-3.65,27.18,15.45,15.45,0,0,0,1.93,7.34c1.8,2.78,5.18,4.58,6,7.78.33,1.25.28,2.7,1.19,3.61,1.47,1.46,4.2,0,4.78-2s-.2-4.09-.81-6.07a37.26,37.26,0,0,1-1.48-14c.23-2.76,1-5.8,3.3-7.29s5.46-.9,8.2-.29c4.49,1,9.75,1.6,13.17-1.47,2.44-2.21,3.18-5.69,4.64-8.64,2.5-5.07,7.3-8.85,9.14-14.19s.38-11.19-1.55-16.48c-1.66-4.53-5.89-9-9.92-4.31-2.81,3.22-3,8.16-6.7,11C34,121.91,23.91,118.44,17.31,126.09Z"/><path class="e" d="M51.15,72.85c-.19,2.67.38,5.57,2.33,7.39A11.65,11.65,0,0,0,58,82.53a87.88,87.88,0,0,0,8.58,2.23,30.56,30.56,0,0,0,11.26.61,14.49,14.49,0,0,0,10.18-6.71C90.11,75,89.86,70,86.93,67c-1.78-1.83-4.28-2.75-6.68-3.62C74.4,61.23,67,56.17,60.93,58.93A17.23,17.23,0,0,0,51.15,72.85Z"/><path class="e" d="M54.19,127.26c-3.65.48-7.27,2.3-9.15,5.46a13.5,13.5,0,0,0-1.58,7.4,13.18,13.18,0,0,0,1.12,5.27c2.41,5.08,8.68,6.87,12.81,10.69,1.54,1.43,3,3.26,5.06,3.57a7.78,7.78,0,0,0,4.22-1c3.91-1.82,8.11-4.31,9.17-8.49.78-3.09-.39-6.31-1.63-9.25C70.46,132,64.46,125.93,54.19,127.26Z"/><path class="e" d="M116.29,197.29c.41-6,4-11.49,8.9-15a32.46,32.46,0,0,1,16.88-5.54c5.29-.34,11.34.65,14.3,5,3.14,4.66.65,12-4.67,13.81-2.78.94-6.16.64-8.23,2.72-2.23,2.24-1.64,5.93-2.39,9a10.84,10.84,0,0,1-11.46,7.81C122.79,214.39,115.84,203.94,116.29,197.29Z"/><path class="e" d="M138.33,116a6.52,6.52,0,0,0,2.9,8.06c2.77,1.44,6.2.66,9.17,1.65s5,3.54,7.41,5.51,5.85,3.44,8.52,1.86c2.18-1.29,2.92-4.12,2.91-6.66a11.17,11.17,0,0,0-.89-4.65,12.54,12.54,0,0,0-4.74-5.06C158.56,113.34,141.71,108,138.33,116Z"/><path class="e" d="M217.85,119.6c-2.31,3.42-3,7.63-3.95,11.64-1,4.42-2.54,9-6,12-1.27,1.11-2.84,2.05-3.49,3.61a5.36,5.36,0,0,0-.23,2.92c.79,4.89,5.81,8.33,10.76,8.51s9.68-2.27,13.45-5.49a35,35,0,0,0,10.45-15.53,19.48,19.48,0,0,0,.8-11C237.34,117.46,224,110.52,217.85,119.6Z"/><path class="e" d="M163.83,31.65c-3.18,0-6.58,1.39-8,4.25-1.23,2.58-.59,5.62-.9,8.46-.43,3.83-2.59,7.23-3.57,11-.56,2.14-.58,4.76,1.11,6.19,2.19,1.84,5.43.51,8.26.14,5.12-.68,10.21,2.19,15.34,1.59a11.51,11.51,0,0,0,6.71-19.65c-1.5-1.47-3.38-2.52-4.8-4.06C174,35.07,170.37,31.74,163.83,31.65Z"/><path class="d" d="M121.29,180.25c4.38-3.07,9.72-4.45,15-5.29a36.61,36.61,0,0,1,9.74-.5,25.46,25.46,0,0,1,8,2.29,2.87,2.87,0,0,0,2.14.42,2.1,2.1,0,0,0,1.18-1.42c.81-2.53-.75-5.19-2.55-7.13a13.29,13.29,0,0,0-5.47-3.83c-5.21-1.7-10.58,1.48-15.81,3.13-3.91,1.23-8.08,1.61-11.91,3.08-5.68,2.17-10.61,7.3-10.84,13.38a40.3,40.3,0,0,1-.07,4.4,17,17,0,0,0-.64,3.9,2.35,2.35,0,0,0,2.48,2.35C112.7,189.08,116.47,183.62,121.29,180.25Z"/><path class="d" d="M200.85,143c-1.48,1.51-2.5,3.76-1.77,5.74.65,1.77,2.44,2.81,3.73,4.18s2,3.87.44,5a2.8,2.8,0,0,1-1.79.45c-2-.1-3.59-1.48-4.89-2.93a17.54,17.54,0,0,1-4.18-7.36,10.35,10.35,0,0,1,1.22-8.21c1.43-2.13,3.77-3.54,5.14-5.71a19.19,19.19,0,0,0,1.88-5.31,10.6,10.6,0,0,1,2.48-5c1.35-1.32,3.59-1.9,5.15-.84,3,2,2.16,9.14,1.08,12C207.92,138.81,203.53,140.27,200.85,143Z"/><path class="d" d="M136.59,110.52a11.19,11.19,0,0,1,9.9-3.94c1.64.21,3.21.79,4.86.89a4.57,4.57,0,0,0,4.3-1.85c1.15-2-.27-4.52-2-6.05a15.18,15.18,0,0,0-25.24,11.1c-.07,3.52,1.09,7.08.28,10.5a11.66,11.66,0,0,0-.67,3.51c.22,2.66,3.86,4.17,6.08,2.69,3-2,1.52-4.74.55-7.17C133.41,117.06,134.5,113.09,136.59,110.52Z"/><path class="f" d="M144.3,114.59a4.88,4.88,0,0,0-2.75,3,2.52,2.52,0,0,0,.48,2.67,2.46,2.46,0,0,0,2.67,0c.84-.43,1.53-1.11,2.33-1.61,2.81-1.73,6.4-.87,9.68-.58a1.2,1.2,0,0,0,1-.21.82.82,0,0,0,0-1,2.15,2.15,0,0,0-.85-.67C153.8,114.54,147.71,113.18,144.3,114.59Z"/><path class="f" d="M65.25,61.69a18,18,0,0,0-3.62.87,10.4,10.4,0,0,0-6.32,11.09,2.46,2.46,0,0,0,1.18,2,2.09,2.09,0,0,0,2.22-.75c1.76-2,1.34-5.54,3.6-6.93a4.7,4.7,0,0,1,4-.07c1.31.49,2.51,1.24,3.85,1.64a3.62,3.62,0,0,0,2.45,0c1.42-.61,1.88-2.53,1.35-4C72.67,62,68.59,61.15,65.25,61.69Z"/><path class="f" d="M50,131.58a8.2,8.2,0,0,0-3.12,6,5.12,5.12,0,0,0,.19,1.87c.73,2.29,3.41,3.28,4.9,5.17a25.44,25.44,0,0,0,1.6,2.25,2.26,2.26,0,0,0,2.48.7,2.07,2.07,0,0,0,.86-2.4,5.93,5.93,0,0,0-1.49-2.3c-.64-.72-1.29-1.44-1.93-2.17A5.86,5.86,0,0,1,52,138.32a3.05,3.05,0,0,1,3.43-3.52c2,.43,3.31,2.89,5.37,2.82a2.9,2.9,0,0,0,2.54-3,4.41,4.41,0,0,0-2.43-3.46C57.92,129.52,52.68,129.52,50,131.58Z"/><path class="f" d="M123.43,188.07a14.14,14.14,0,0,0-3.68,4.77,9,9,0,0,0,.13,7.14,5.23,5.23,0,0,0,1.91,2.32,2.85,2.85,0,0,0,2.89.1c1.54-1,1.38-3.18,1.45-5a12.15,12.15,0,0,1,9.33-11.06c3-.65,6.17-.08,9.26-.14,1.45,0,3.17-.39,3.7-1.74a2.77,2.77,0,0,0-1.56-3.25,8.15,8.15,0,0,0-3.87-.57c-3.58.07-7-.32-10.2,1.33S126.1,185.4,123.43,188.07Z"/><path class="f" d="M225.72,118.77a9.71,9.71,0,0,0-4.61,3.73,8.88,8.88,0,0,0-1.45,2.94,20.44,20.44,0,0,0-.2,4.5,14.67,14.67,0,0,1-2.71,8.11c-.81,1.14-1.82,2.61-1.05,3.77a2.12,2.12,0,0,0,2.54.57,5.76,5.76,0,0,0,2.12-1.81,14.81,14.81,0,0,0,3.2-5.33c.4-1.44.41-3,.86-4.4s1.55-2.82,3-2.93c2-.15,3.51,1.91,5.47,1.91,2.24,0,3.57-2.84,2.94-5C234.76,121.07,229.62,117.46,225.72,118.77Z"/><path class="f" d="M158.62,39.71a2,2,0,0,0,.44,1.39,1.7,1.7,0,0,0,.75.45,2.66,2.66,0,0,0,3-1.2,4.63,4.63,0,0,1,.45-.82,1.92,1.92,0,0,1,1.58-.54,3.76,3.76,0,0,1,3.26,2.53,15,15,0,0,1,.35,1.91,4.45,4.45,0,0,0,3,3.54,3.27,3.27,0,0,0,3.91-4.14c-.45-1.47-1.84-2.4-2.92-3.49a42.45,42.45,0,0,0-3.13-3.42C165.93,33.16,158.62,34.47,158.62,39.71Z"/><path class="b" d="M244.67,132a14.33,14.33,0,0,1-.85,5.7c-2.33,5.93-9.6,9.5-10.19,15.85,1.94-1.29,3.25-3.34,5-4.84,2.12-1.78,4.81-2.7,7.3-3.91s5-2.89,6-5.46a9.11,9.11,0,0,0-.16-6.42,27.43,27.43,0,0,0-3.2-5.71q-3.06-4.55-6.13-9.1c-.44-.66-1.11-1.41-1.88-1.18-2.39.72.72,4.78,1.33,5.78A19.41,19.41,0,0,1,244.67,132Z"/><path class="b" d="M71.77,210.73c3-.88,6.5-.91,9-2.85,1.9-1.48,2.91-3.8,3.8-6q2.82-7.12,5-14.48a141.23,141.23,0,0,1-5.07,20.36A6,6,0,0,1,83,210.52a6,6,0,0,1-2.36,1.07l-7.32,2.13a2.94,2.94,0,0,0-1.5.78,2.88,2.88,0,0,0-.12,2.6c1,3.58,2.14,7.12,3.42,10.61a13.16,13.16,0,0,1-8.72-5.53C63.35,217.78,67.21,212.05,71.77,210.73Z"/><path class="f" d="M24.27,66.2c-.68,4.65,1.07,9.31,1,14,0,6.75-3.7,12.94-4.76,19.61A3.11,3.11,0,0,0,24,99.44a7.22,7.22,0,0,0,2.07-3.06c4-9.69,1.23-21.43,6.27-30.63,2.93-5.35,8.11-9,12.16-13.6.45-.51.89-1.32.42-1.81a1.38,1.38,0,0,0-.82-.31c-2.8-.3-4.6,1.06-6.61,2.72a16.26,16.26,0,0,1-4.73,2.78A14.2,14.2,0,0,0,24.27,66.2Z"/><path class="f" d="M36.15,126c-4,1-8.16,1.3-11.87,3-4.81,2.25-8.24,6.85-10,11.87s-1.88,10.46-1.45,15.75c2.06.23,4-1.26,5-3.06a21.05,21.05,0,0,0,1.74-5.92c.73-3.42,2-6.89,4.52-9.27s6.71-3.31,9.59-1.35c1.21.82,2.29,2.14,3.75,2.09,1.93-.07,2.82-2.36,3.45-4.19a26.54,26.54,0,0,1,5.85-9.62c1.88-2,3.84-5.66-.31-4.37C42.92,122.1,40,125,36.15,126Z"/><path class="d" d="M84.05,54.62c2.21,3,5.73,4.59,9,6.4,2,1.16,4.18,2.61,4.89,4.85,1.07,3.33-1.4,6.78-1.32,10.28A7.11,7.11,0,0,0,108.68,81c1.87-1.85,2.56-4.55,3.72-6.91a17.8,17.8,0,0,1,7.07-7.54c2.35-1.35,5-2.16,7.18-3.77,4.13-3,5.86-8.35,6.7-13.4.17-1,.24-2.18-.53-2.83a2.62,2.62,0,0,0-1.93-.42c-5.19.41-9.65,4.84-14.84,4.4a8.41,8.41,0,0,1-7.25-6.16c-.77-3.09.19-6.76-1.81-9.24a6.69,6.69,0,0,0-3.43-2.08A11.57,11.57,0,0,0,89.79,40.8c-.45,1.61-.55,3.92-2.06,5-1.29.9-2.76-.19-3.79.38C81.16,47.67,82.46,52.49,84.05,54.62Z"/><path class="b" d="M218.73,71.07a3.85,3.85,0,0,0,.82,3.25,30,30,0,0,0,2.39,2.53,12.05,12.05,0,0,1,2.89,5.46c.13.56.29,1.21.83,1.41a1.47,1.47,0,0,0,1.21-.28A7.56,7.56,0,0,0,230,74.69a11,11,0,0,0-1.63-2.84,8.47,8.47,0,0,0-2.95-2.67C223.65,68.34,219.37,68.85,218.73,71.07Z"/><path class="b" d="M232.79,59.29c-1.59.26-3.39,1.23-3.44,2.85a2.89,2.89,0,0,0,1.81,2.52,8.08,8.08,0,0,0,3.21.52c1.48,0,3.34-.23,3.76-1.64a2.59,2.59,0,0,0-.49-2.13,5,5,0,0,0-5.58-1.82Z"/><path class="b" d="M38,179.17a6.3,6.3,0,0,0-.15,4.46A3.64,3.64,0,0,0,41.32,186a5,5,0,0,0,2.86-1.66,8.44,8.44,0,0,0,2.66-5.58C46.92,171.79,39.59,174.69,38,179.17Z"/><path class="b" d="M39.88,197.64a7.33,7.33,0,0,0-5.62,2.73,2.07,2.07,0,0,0-.48.93,1.83,1.83,0,0,0,.29,1.17c.94,1.61,3,2.21,4.81,2.48,1.7.26,3.67.27,4.87-1a3.56,3.56,0,0,0-.25-4.8,4.13,4.13,0,0,0-4.81-.64Z"/><path class="b" d="M77.21,91.54c5-.74,9.88-3.53,11.92-8.12-.25,3.73-.69,7.84-3.44,10.36a13.21,13.21,0,0,1-3.54,2.12c-4.8,2.16-10.29,3.66-15.27,2C62.64,96.44,59,92.77,54.51,93a7.31,7.31,0,0,1-2.24,0A1.52,1.52,0,0,1,51,91.38a1.9,1.9,0,0,1,1-1.1C59.13,86.31,69.41,92.71,77.21,91.54Z"/><path class="b" d="M242.79,91.47c-2,2-3.32,4.66-5.35,6.66-4.38,4.33-11.19,4.78-17.34,4.57s-12.72-.73-18,2.34a49,49,0,0,1,23.32,1.19c2.15.65,4.43,1.46,6.6.88,4.61-1.22,6.64-8,11.41-8,1.82,0,3.44,1.1,4.94,2.14l8.17,5.71C253.88,101.86,252.36,82.07,242.79,91.47Z"/></svg>