<svg xmlns="http://www.w3.org/2000/svg" viewBox="0 0 1920 1080"><defs><style>.a{fill:#c4d8e7;}.b,.i{fill:#fff;}.c{fill:#3a475b;}.d{fill:#263238;}.e{fill:#ffc829;}.f,.h{fill:#010101;}.f{opacity:0.1;}.g{fill:#37474f;}.h{opacity:0.2;}.i{opacity:0.4;}.j{fill:#dcdbdb;}.k{fill:#455b64;}</style></defs><title>Untitled-1</title><rect class="a" x="655.3" width="663.32" height="1080"/><path class="b" d="M937.49,678c0,113.36-161.17,96.51,27.25,402H0V0H747.53c8.11,93.71,206.81,199.45,206.81,293.51-2.78,63.34-104.78,126.62-107.55,190C844,548.3,940.33,613.19,937.49,678Z"/><path class="c" d="M1920,1080H964.74C860.57,786.79,1116,815.3,1116,701.22c0-149.66-280.28-168.94-125.44-295.88C1160.55,265.94,904,148,751.53,0H1920Z"/><path class="b" d="M1844.64,543.85c0,190.47-154.4,344.87-344.86,344.87s-344.87-154.4-344.87-344.87S1170.59,148,1361.05,148,1844.64,353.39,1844.64,543.85Z"/><path class="d" d="M1240,623.58c-21,20.56-24.51,52.36-20.09,80.21.11.63,1.09.46,1.09-.14,0-6.34-.19-12.62-.17-18.88.11-.29.21-.56.33-.85,5.47-4,10.51-8.48,13.63-14.65,3.51-6.9,4.89-14.67,7.57-21.88.25-.69-.49-.48-1-.13-12.77,9.42-16.84,19.56-20.5,33.1a112.73,112.73,0,0,1,2.22-21.09c2.76-12.85,8.22-25.59,17.45-35.13C1240.94,623.78,1240.41,623.22,1240,623.58Z"/><path class="e" d="M1244,626c3.61.12,5.88,5.89,8.69,7.58,1.49.9,2.94.84,4-.63,2.79-3.89-1-8.69-4.64-11.38,2.57,1.06,4.71,2.92,7.48,3.45,1.68.3,3-.32,3.38-2,1.22-5.31-5.43-7.67-10-7.78,2.21-1.54,8.56-5.72,5.19-7.78s-10.87,3.92-13.29,5.89c-3.57,2.89-7.83,7.22-8,11.75C1236.59,630.34,1241.21,627.09,1244,626Z"/><path class="f" d="M1244,626c3.61.12,5.88,5.89,8.69,7.58,1.49.9,2.94.84,4-.63,2.79-3.89-1-8.69-4.64-11.38,2.57,1.06,4.71,2.92,7.48,3.45,1.68.3,3-.32,3.38-2,1.22-5.31-5.43-7.67-10-7.78,2.21-1.54,8.56-5.72,5.19-7.78s-10.87,3.92-13.29,5.89c-3.57,2.89-7.83,7.22-8,11.75C1236.59,630.34,1241.21,627.09,1244,626Z"/><path class="e" d="M1242.94,626.87c4.62-2.1,13.49.92,14.25-.83,1.53-3.55-5.56-6-9.39-6.47,3.53-1,10.28-2.47,10.07-5.87-.25-4.15-10.36-.58-15.47,3.34-6.44,4.94-6.4,9.71-5.34,10.66C1238.53,629,1242.18,627.22,1242.94,626.87Z"/><path class="d" d="M1192.23,621.55c21.76,19.74,26.49,51.38,23.13,79.38-.09.64-1.07.5-1.1-.09-.24-6.34-.28-12.62-.54-18.88-.13-.28-.23-.55-.36-.83-5.62-3.77-10.83-8.08-14.18-14.13-3.77-6.75-5.44-14.47-8.4-21.57-.27-.68.47-.5,1-.17,13.12,8.93,17.58,18.9,21.75,32.3a112.54,112.54,0,0,0-3-21c-3.24-12.74-9.18-25.26-18.77-34.44C1191.34,621.77,1191.85,621.2,1192.23,621.55Z"/><path class="e" d="M1188.38,624.09c-3.6.26-5.65,6.12-8.4,7.91-1.45,1-2.9,1-4-.48-2.94-3.78.7-8.73,4.2-11.55-2.54,1.16-4.6,3.1-7.35,3.73-1.67.37-3-.2-3.45-1.89-1.43-5.26,5.14-7.87,9.7-8.16-2.28-1.45-8.78-5.39-5.49-7.58s11,3.5,13.51,5.38c3.68,2.76,8.1,6.92,8.43,11.45C1195.94,628.17,1191.2,625.1,1188.38,624.09Z"/><path class="f" d="M1188.38,624.09c-3.6.26-5.65,6.12-8.4,7.91-1.45,1-2.9,1-4-.48-2.94-3.78.7-8.73,4.2-11.55-2.54,1.16-4.6,3.1-7.35,3.73-1.67.37-3-.2-3.45-1.89-1.43-5.26,5.14-7.87,9.7-8.16-2.28-1.45-8.78-5.39-5.49-7.58s11,3.5,13.51,5.38c3.68,2.76,8.1,6.92,8.43,11.45C1195.94,628.17,1191.2,625.1,1188.38,624.09Z"/><path class="e" d="M1189.46,624.94c-4.7-1.92-13.45,1.44-14.27-.28-1.66-3.5,5.33-6.2,9.14-6.82-3.56-.82-10.37-2.09-10.29-5.49.1-4.16,10.33-1,15.59,2.75,6.62,4.69,6.76,9.46,5.73,10.45C1194,626.91,1190.23,625.26,1189.46,624.94Z"/><path class="d" d="M1214.48,673.68a214.35,214.35,0,0,0,6.76,31.22.78.78,0,0,0,1.52-.31c-1.43-9.62-4-19.06-5.46-28.68a143.65,143.65,0,0,1-1.67-29.44c.91-16.21,5.31-33.45,15.89-46.13.23-.3-.26-.73-.5-.45-21.18,24.69-17.81,55-17.79,57.67-3-10.22-6.08-21.93-17.42-32.34-.49-.45-.87-.24-.79.53,2,19,7.3,28.85,18.29,39C1213.62,667.74,1214,670.73,1214.48,673.68Z"/><path class="e" d="M1231.71,603.18c3.81-1.69,9.06,3.16,12.83,3.49,2,.18,3.48-.61,3.82-2.66.94-5.44-5.45-8.5-10.54-9.48,3.21-.19,6.36.66,9.5-.19,1.9-.53,2.94-1.83,2.49-3.8-1.4-6.12-9.5-5.22-14.3-3,1.53-2.71,6-10.24,1.47-10.68s-9.3,9.53-10.83,12.8c-2.24,4.8-4.48,11.44-2.37,16.22C1226.23,611.43,1229.39,605.73,1231.71,603.18Z"/><path class="f" d="M1231.71,603.18c3.81-1.69,9.06,3.16,12.83,3.49,2,.18,3.48-.61,3.82-2.66.94-5.44-5.45-8.5-10.54-9.48,3.21-.19,6.36.66,9.5-.19,1.9-.53,2.94-1.83,2.49-3.8-1.4-6.12-9.5-5.22-14.3-3,1.53-2.71,6-10.24,1.47-10.68s-9.3,9.53-10.83,12.8c-2.24,4.8-4.48,11.44-2.37,16.22C1226.23,611.43,1229.39,605.73,1231.71,603.18Z"/><path class="e" d="M1231.08,604.63c3.73-4.51,14.46-5.84,14.36-8-.21-4.46-8.79-3.42-13-2,3.18-2.76,9.42-7.74,7.49-11.16-2.35-4.18-11,4.61-14.37,11.25-4.2,8.37-1.75,13.29-.17,13.75C1227.57,609.07,1230.46,605.37,1231.08,604.63Z"/><path class="e" d="M1200.55,679.39l-9.34,71.35H1248c-1.17-6.32-11.75-71.43-11.75-71.43Z"/><rect class="g" x="1475" y="639.66" width="57.05" height="4.67"/><rect class="g" x="1475" y="645.74" width="57.05" height="4.67"/><rect class="g" x="1475" y="651.83" width="57.05" height="4.67"/><rect class="g" x="1475" y="657.92" width="57.05" height="4.67"/><rect class="g" x="1475" y="664.01" width="57.05" height="4.67"/><rect class="g" x="1448.28" y="785.44" width="108.47" height="4.67"/><rect class="g" x="1448.28" y="791.53" width="108.47" height="4.67"/><rect class="g" x="1448.28" y="797.62" width="108.47" height="4.67"/><rect class="g" x="1448.28" y="803.71" width="108.47" height="4.67"/><rect class="g" x="1448.28" y="809.79" width="108.47" height="4.67"/><path class="e" d="M1400.69,601c.06-.64-23.74-8.61-23.74-8.61l1.41-81.74,31.55-6.77Z"/><path class="h" d="M1400.69,601c.06-.64-23.74-8.61-23.74-8.61l1.41-81.74,31.55-6.77Z"/><path class="e" d="M1618.62,633.11c.17-.61,25.25.1,25.25.1L1670.69,556l-27.3-17.22Z"/><path class="h" d="M1618.62,633.11c.17-.61,25.25.1,25.25.1L1670.69,556l-27.3-17.22Z"/><path class="e" d="M1396.11,631.13s8.82-132.21,16.56-175.71c0,0,159.71,12.08,245.93,45,0,0-44.45,154.43-46.75,162.09C1611.85,662.55,1499.38,640.39,1396.11,631.13Z"/><path class="f" d="M1538.67,473.08q-3.89,23.88-7.94,47.73l-8.23,47.68-.45-.68,53.52,12.72,26.72,6.48,26.7,6.6-26.84-6-26.81-6.14L1521.78,569l-.54-.13.1-.55,8.52-47.62Q1534.17,496.84,1538.67,473.08Z"/><path class="f" d="M1532.8,482.15a3.13,3.13,0,0,1-2.8,3.11,3.12,3.12,0,1,1,0-6.22A3.13,3.13,0,0,1,1532.8,482.15Zm0,0a2.58,2.58,0,0,0-.88-1.92,2.52,2.52,0,1,0-1.92,4.43,2.5,2.5,0,0,0,2.8-2.51Z"/><path class="f" d="M1530,501.82a3.11,3.11,0,0,1-5.16,2.35,3.18,3.18,0,0,1-1.06-2.35,3.21,3.21,0,0,1,1.06-2.35,3.17,3.17,0,0,1,2.35-.75A3.13,3.13,0,0,1,1530,501.82Zm0,0a2.52,2.52,0,0,0-2.81-2.5,2.53,2.53,0,0,0,0,5,2.51,2.51,0,0,0,2.81-2.51Z"/><path class="f" d="M1526.54,522.61a3.11,3.11,0,0,1-2.8,3.1,3.12,3.12,0,1,1,0-6.21A3.13,3.13,0,0,1,1526.54,522.61Zm0,0a2.56,2.56,0,0,0-.88-1.92,2.52,2.52,0,1,0-1.92,4.43,2.52,2.52,0,0,0,2.8-2.51Z"/><path class="f" d="M1523.09,543.4a3.12,3.12,0,0,1-2.81,3.1,3.13,3.13,0,0,1-2.35-5.45,3.11,3.11,0,0,1,5.16,2.35Zm0,0a2.51,2.51,0,0,0-2.81-2.51,2.52,2.52,0,1,0,1.93,4.43A2.58,2.58,0,0,0,1523.09,543.4Z"/><path class="f" d="M1534.86,576.55a3.12,3.12,0,0,1-2.81,3.1,3.13,3.13,0,0,1-2.35-5.45,3.11,3.11,0,0,1,5.16,2.35Zm0,0a2.51,2.51,0,0,0-2.81-2.51,2.52,2.52,0,1,0,1.93,4.43A2.61,2.61,0,0,0,1534.86,576.55Z"/><path class="f" d="M1554.48,581.33a3.14,3.14,0,0,1-2.81,3.11,3.18,3.18,0,0,1-2.35-.76,3.13,3.13,0,0,1-1-2.35,3.17,3.17,0,0,1,1-2.35,3.12,3.12,0,0,1,5.16,2.35Zm0,0a2.51,2.51,0,0,0-2.81-2.5,2.53,2.53,0,0,0,0,5,2.51,2.51,0,0,0,2.81-2.51Z"/><path class="f" d="M1574.1,586.12a3.12,3.12,0,0,1-2.81,3.1,3.12,3.12,0,1,1,0-6.21A3.13,3.13,0,0,1,1574.1,586.12Zm0,0a2.56,2.56,0,0,0-.88-1.92,2.52,2.52,0,1,0,0,3.84A2.56,2.56,0,0,0,1574.1,586.12Z"/><path class="f" d="M1593.72,590.91a3.11,3.11,0,1,1-2.81-3.11A3.13,3.13,0,0,1,1593.72,590.91Zm0,0a2.51,2.51,0,0,0-2.81-2.51,2.53,2.53,0,0,0,0,5,2.51,2.51,0,0,0,2.81-2.5Z"/><path class="f" d="M1613.33,595.91a3.13,3.13,0,0,1-3,2.88,3.12,3.12,0,1,1,.47-6.2A3.14,3.14,0,0,1,1613.33,595.91Zm0,0a2.59,2.59,0,0,0-.73-2,2.52,2.52,0,1,0-2.26,4.27,2.61,2.61,0,0,0,2-.43A2.57,2.57,0,0,0,1613.33,595.91Z"/><path class="f" d="M1519.63,564.18a3.13,3.13,0,0,1-2.8,3.11,3.13,3.13,0,0,1-2.35-5.46,3.11,3.11,0,0,1,5.15,2.35Zm0,0a2.54,2.54,0,0,0-.88-1.92,2.6,2.6,0,0,0-1.92-.58,2.53,2.53,0,0,0,0,5,2.6,2.6,0,0,0,1.92-.58A2.56,2.56,0,0,0,1519.63,564.18Z"/><circle class="h" cx="1456.28" cy="564.9" r="45.35" transform="translate(27.09 1195.2) rotate(-45)"/><circle class="d" cx="1456.28" cy="564.9" r="36.37" transform="translate(412.41 1726.88) rotate(-69.27)"/><rect class="e" x="1444.83" y="550.8" width="8.61" height="8.61" transform="translate(107.42 -224.6) rotate(9.2)"/><rect class="e" x="1437.7" y="540.92" width="8.61" height="8.61" transform="translate(105.75 -223.59) rotate(9.2)"/><rect class="e" x="1471.72" y="546.43" width="8.61" height="8.61" transform="translate(107.07 -228.96) rotate(9.2)"/><rect class="e" x="1432.22" y="574.74" width="8.61" height="8.61" transform="translate(111.09 -222.28) rotate(9.2)"/><rect class="e" x="1466.24" y="580.26" width="8.61" height="8.61" transform="translate(112.41 -227.65) rotate(9.2)"/><rect class="e" x="1442.1" y="567.62" width="8.61" height="8.61" transform="translate(110.08 -223.95) rotate(9.2)"/><rect class="e" x="1451.97" y="560.59" width="8.61" height="8.61" transform="translate(109.08 -225.62) rotate(9.2)"/><rect class="e" x="1461.84" y="553.56" width="8.61" height="8.61" transform="translate(108.08 -227.29) rotate(9.2)"/><rect class="e" x="1459.11" y="570.37" width="8.61" height="8.61" transform="translate(110.75 -226.66) rotate(9.2)"/><circle class="e" cx="1577.98" cy="583.9" r="45.35" transform="translate(126.19 1434.35) rotate(-50.67)"/><circle class="h" cx="1577.98" cy="583.9" r="45.35" transform="translate(126.19 1434.35) rotate(-50.67)"/><path class="h" d="M1622.11,594.4c-.21.89-.45,1.75-.71,2.62L1533,578.16a47,47,0,0,1,.87-4.75,45.36,45.36,0,0,1,88.25,21Z"/><circle class="d" cx="1577.98" cy="583.9" r="36.37" transform="translate(-103.13 653.47) rotate(-22.68)"/><rect class="e" x="1573.68" y="562.47" width="8.61" height="42.88" transform="translate(177.77 -349.04) rotate(13.37)"/><path class="e" d="M1624.74,593.54l-92.85-22.06a47.72,47.72,0,0,1,92.85,22.06Z"/><path class="h" d="M1624.74,593.54l-92.85-22.06a47.72,47.72,0,0,1,92.85,22.06Z"/><path class="f" d="M1499.07,610.86a16.84,16.84,0,0,1,4.2-10.21,12.22,12.22,0,0,1,4.93-3.31,13.69,13.69,0,0,1,5.94-.66,11,11,0,0,1,9.32,7,18.56,18.56,0,0,1,1,11,29.32,29.32,0,0,0-3.2-9.86,9.45,9.45,0,0,0-7.41-4.92,11.24,11.24,0,0,0-8.81,2.58A23.82,23.82,0,0,0,1499.07,610.86Z"/><path class="b" d="M1408.54,518.36c.37-4.85.92-9.67,1.38-14.5s1-9.65,1.63-14.47,1.18-9.63,1.8-14.44,1.3-9.62,2-14.42l.17-1.29,1.3.09q15.7,1,31.34,2.57,7.82.81,15.62,1.81c5.19.75,10.38,1.43,15.54,2.38l-31.35-1.94-31.32-2,1.47-1.2c-.71,4.8-1.37,9.6-2.12,14.4s-1.48,9.58-2.28,14.37-1.6,9.57-2.44,14.35S1409.52,513.6,1408.54,518.36Z"/><path class="b" d="M1416.08,555a39.69,39.69,0,0,1,7.25-16.21c.89-1.21,1.9-2.34,2.87-3.49s2.14-2.13,3.21-3.2,2.36-1.9,3.57-2.81,2.54-1.66,3.84-2.44,2.74-1.34,4.12-2l4.31-1.49,4.46-.92c1.5-.22,3-.27,4.52-.38a43.65,43.65,0,0,1,17.46,3.34,62.29,62.29,0,0,0-17.32-1.14,40.68,40.68,0,0,0-16.18,5,47.18,47.18,0,0,0-13.14,10.84A53.47,53.47,0,0,0,1416.08,555Z"/><path class="b" d="M1541.19,567.26a39.53,39.53,0,0,1,9.42-15c1-1.08,2.2-2.05,3.32-3.07s2.41-1.81,3.62-2.71,2.6-1.56,3.92-2.3,2.75-1.29,4.15-1.89,2.89-.94,4.35-1.37l4.47-.88,4.55-.3c1.51,0,3,.16,4.52.25a43.65,43.65,0,0,1,16.84,5.73,62.31,62.31,0,0,0-17-3.53,40.7,40.7,0,0,0-16.72,2.74,47.47,47.47,0,0,0-14.51,8.92A53.35,53.35,0,0,0,1541.19,567.26Z"/><path class="e" d="M1401.19,712.6c-11.62,0-37.06-2.61-53.42-23.65-20.94-26.92-13.37-78.58-13-80.77l9.09,1.38c-.08.5-7.3,50,11.21,73.74,18.09,23.27,50.91,19.93,51.24,19.89l1,9.13A54.92,54.92,0,0,1,1401.19,712.6Z"/><path class="i" d="M1401.19,712.6c-11.62,0-37.06-2.61-53.42-23.65-20.94-26.92-13.37-78.58-13-80.77l9.09,1.38c-.08.5-7.3,50,11.21,73.74,18.09,23.27,50.91,19.93,51.24,19.89l1,9.13A54.92,54.92,0,0,1,1401.19,712.6Z"/><path class="e" d="M1346.49,615.82a31.62,31.62,0,0,1-5.07-.42c-15.34-2.49-22.13-11.66-25.12-18.92s-3.7-16.08-2.06-26.17l19.44,3.15c-1,6.25-.71,11.76.83,15.5,1.11,2.68,3.24,5.89,10.06,7,3.11.5,6.48.24,10-5.08a36.54,36.54,0,0,0,4.93-13.22L1379,580.8c-.45,2.78-2.36,12.52-8,21C1364.9,610.94,1356.33,615.82,1346.49,615.82Z"/><path class="e" d="M1420.4,738.92c0-.42-16.48-3-16.48-3l-8-53.66,19.92-7.87Z"/><path class="h" d="M1420.4,738.92c0-.42-16.48-3-16.48-3l-8-53.66,19.92-7.87Z"/><path class="e" d="M1583,739c0-.42,16.54-2.68,16.54-2.68l9.17-53.48-19.74-8.3Z"/><path class="h" d="M1583,739c0-.42,16.54-2.68,16.54-2.68l9.17-53.48-19.74-8.3Z"/><path class="e" d="M1413.56,662.32s133-5.68,177.92,1.81c0,0-13.19,128.69-13.91,131.18,0,0-132.3-.35-153,0C1424.59,795.31,1413.39,709.74,1413.56,662.32Z"/><path class="h" d="M1454,697.59s72.61-2.87,97.13.91c0,0-7.2,64.89-7.59,66.15,0,0-72.22-.18-83.51,0C1460,764.65,1455,720.23,1454,697.59Z"/><path class="h" d="M1463.88,764.62c-1.67,0-3,0-3.91,0,0,0-5-44.42-6-67.06l4.53-.17Z"/><path class="e" d="M1485.29,713.6a7.72,7.72,0,1,0,5,9.69A7.73,7.73,0,0,0,1485.29,713.6Zm4.15,9.4a6.78,6.78,0,1,1-4.43-8.5A6.79,6.79,0,0,1,1489.44,723Zm-4.15-9.4a7.72,7.72,0,1,0,5,9.69A7.73,7.73,0,0,0,1485.29,713.6Zm4.15,9.4a6.78,6.78,0,1,1-4.43-8.5A6.79,6.79,0,0,1,1489.44,723Zm-4.15-9.4a7.72,7.72,0,1,0,5,9.69A7.73,7.73,0,0,0,1485.29,713.6Zm4.15,9.4a6.78,6.78,0,1,1-4.43-8.5A6.79,6.79,0,0,1,1489.44,723Zm-1.57-17.56a16.28,16.28,0,1,0,10.62,20.42A16.29,16.29,0,0,0,1487.87,705.44Zm3.61,18.21a8.92,8.92,0,1,1-5.83-11.19A8.93,8.93,0,0,1,1491.48,723.65Zm-1.15-.36a7.72,7.72,0,1,0-9.68,5A7.72,7.72,0,0,0,1490.33,723.29Zm-.89-.29a6.78,6.78,0,1,1-4.43-8.5A6.79,6.79,0,0,1,1489.44,723Zm-4.15-9.4a7.72,7.72,0,1,0,5,9.69A7.73,7.73,0,0,0,1485.29,713.6Zm4.15,9.4a6.78,6.78,0,1,1-4.43-8.5A6.79,6.79,0,0,1,1489.44,723Zm-4.15-9.4a7.72,7.72,0,1,0,5,9.69A7.73,7.73,0,0,0,1485.29,713.6Zm4.15,9.4a6.78,6.78,0,1,1-4.43-8.5A6.79,6.79,0,0,1,1489.44,723Z"/><polygon class="e" points="1481.27 736.79 1475.3 734.9 1474.3 739.24 1479.6 740.91 1481.27 736.79"/><polygon class="e" points="1470.54 731.2 1467.65 725.64 1463.88 728 1466.45 732.93 1470.54 731.2"/><polygon class="e" points="1466.91 719.66 1468.79 713.69 1464.46 712.69 1462.79 718 1466.91 719.66"/><polygon class="e" points="1472.5 708.93 1478.05 706.04 1475.69 702.27 1470.76 704.84 1472.5 708.93"/><polygon class="e" points="1484.04 705.3 1490 707.18 1491.01 702.85 1485.7 701.18 1484.04 705.3"/><polygon class="e" points="1494.76 710.89 1497.65 716.44 1501.42 714.09 1498.85 709.15 1494.76 710.89"/><polygon class="e" points="1498.39 722.43 1496.51 728.4 1500.84 729.4 1502.52 724.09 1498.39 722.43"/><polygon class="e" points="1492.8 733.15 1487.25 736.04 1489.61 739.81 1494.54 737.24 1492.8 733.15"/><path class="j" d="M1511.54,736.32a5.2,5.2,0,1,0,1.52,7.19A5.19,5.19,0,0,0,1511.54,736.32Zm1,6.84a4.56,4.56,0,1,1-1.33-6.31A4.56,4.56,0,0,1,1512.53,743.16Zm-1-6.84a5.2,5.2,0,1,0,1.52,7.19A5.19,5.19,0,0,0,1511.54,736.32Zm1,6.84a4.56,4.56,0,1,1-1.33-6.31A4.56,4.56,0,0,1,1512.53,743.16Zm-1-6.84a5.2,5.2,0,1,0,1.52,7.19A5.19,5.19,0,0,0,1511.54,736.32Zm1,6.84a4.56,4.56,0,1,1-1.33-6.31A4.56,4.56,0,0,1,1512.53,743.16Zm2.16-11.67a11,11,0,1,0,3.2,15.16A11,11,0,0,0,1514.69,731.49Zm-1,12.46a6,6,0,1,1-1.76-8.31A6,6,0,0,1,1513.74,744Zm-.68-.44a5.2,5.2,0,1,0-7.19,1.52A5.19,5.19,0,0,0,1513.06,743.51Zm-.53-.35a4.56,4.56,0,1,1-1.33-6.31A4.56,4.56,0,0,1,1512.53,743.16Zm-1-6.84a5.2,5.2,0,1,0,1.52,7.19A5.19,5.19,0,0,0,1511.54,736.32Zm1,6.84a4.56,4.56,0,1,1-1.33-6.31A4.56,4.56,0,0,1,1512.53,743.16Zm-1-6.84a5.2,5.2,0,1,0,1.52,7.19A5.19,5.19,0,0,0,1511.54,736.32Zm1,6.84a4.56,4.56,0,1,1-1.33-6.31A4.56,4.56,0,0,1,1512.53,743.16Z"/><polygon class="j" points="1504.74 750.62 1501.21 748.32 1499.78 750.95 1502.92 753 1504.74 750.62"/><polygon class="j" points="1498.79 745.06 1497.92 740.94 1495.05 741.78 1495.83 745.45 1498.79 745.06"/><polygon class="j" points="1498.53 736.92 1500.82 733.39 1498.2 731.96 1496.15 735.1 1498.53 736.92"/><polygon class="j" points="1504.09 730.97 1508.21 730.1 1507.37 727.23 1503.7 728.01 1504.09 730.97"/><polygon class="j" points="1512.23 730.7 1515.76 733 1517.19 730.38 1514.05 728.33 1512.23 730.7"/><polygon class="j" points="1518.18 736.27 1519.05 740.39 1521.92 739.55 1521.14 735.88 1518.18 736.27"/><polygon class="j" points="1518.44 744.41 1516.15 747.94 1518.77 749.37 1520.82 746.23 1518.44 744.41"/><polygon class="j" points="1512.88 750.36 1508.76 751.23 1509.6 754.1 1513.27 753.32 1512.88 750.36"/><polygon class="e" points="1588.27 780.34 1593.38 781.29 1608 682.28 1602.17 681.21 1588.27 780.34"/><path class="e" d="M1543.49,764.65l7.59-66.15,51.09-17.29s-13.9,100.2-13.9,99.13Z"/><path class="i" d="M1543.49,764.65l7.59-66.15,51.09-17.29s-13.9,100.2-13.9,99.13Z"/><path class="b" d="M1419.66,701.18c-.83-5.48-1.28-11-1.62-16.54-.16-2.76-.23-5.53-.29-8.3s-.11-5.54,0-8.32l0-.72.71,0c10.15-.55,20.29-1.21,30.44-1.66s20.31-1,30.47-1.27c-10.13.92-20.26,1.7-30.4,2.43s-20.28,1.36-30.42,2l.73-.76,0,8.27.1,8.28q0,4.14.14,8.28Z"/><path class="b" d="M1558.21,699.47c3.16-1.51,6.38-2.9,9.63-4.19s6.52-2.57,9.83-3.72,6.64-2.24,10-3.18A92.19,92.19,0,0,1,1598,686l.86-.14-.15.81c-.81,4.29-1.64,8.56-2.64,12.82.38-4.35.9-8.68,1.46-13l.7.68c-3.37.8-6.72,1.74-10.06,2.73s-6.66,2-10,3.13Z"/><polygon class="f" points="1441.77 662.59 1442.63 679.14 1443.37 695.69 1444.64 728.8 1445.64 761.91 1446.04 778.47 1446.31 795.04 1445.45 778.49 1444.71 761.94 1443.44 728.84 1442.44 695.72 1442.04 679.16 1441.77 662.59"/><path class="f" d="M1437,672.57a3.12,3.12,0,0,1-2.14,3.59,3.09,3.09,0,0,1-4-2.37,3.09,3.09,0,0,1,2.73-3.71A3.11,3.11,0,0,1,1437,672.57Zm0,0a2.5,2.5,0,1,0-2.25,3,2.5,2.5,0,0,0,2.25-3Z"/><path class="f" d="M1438.17,692.41A3.12,3.12,0,0,1,1436,696a3.09,3.09,0,0,1-4-2.37,3.11,3.11,0,0,1,2.73-3.72A3.14,3.14,0,0,1,1438.17,692.41Zm0,0a2.59,2.59,0,0,0-1.24-1.72,2.52,2.52,0,1,0-1,4.73,2.5,2.5,0,0,0,2.25-3Z"/><path class="f" d="M1438.89,713.46a3.11,3.11,0,0,1-2.13,3.6,3.15,3.15,0,0,1-2.45-.27,3.23,3.23,0,0,1-1.51-2.1,3.11,3.11,0,0,1,2.73-3.72A3.13,3.13,0,0,1,1438.89,713.46Zm0,0a2.49,2.49,0,0,0-3.24-1.89,2.52,2.52,0,1,0,3.24,1.89Z"/><path class="f" d="M1439.62,734.52a3.11,3.11,0,0,1-4.59,3.32,3.17,3.17,0,0,1-1.5-2.09,3.12,3.12,0,0,1,.57-2.51,3.11,3.11,0,0,1,5.52,1.28Zm0,0a2.61,2.61,0,0,0-1.25-1.71,2.56,2.56,0,0,0-2-.18,2.52,2.52,0,1,0,2.76,4A2.59,2.59,0,0,0,1439.62,734.52Z"/><path class="f" d="M1440.34,755.58a3.12,3.12,0,0,1-2.14,3.6,3.12,3.12,0,1,1,2.14-3.6Zm0,0a2.52,2.52,0,0,0-3.25-1.9,2.53,2.53,0,0,0,1,4.91,2.5,2.5,0,0,0,1.77-1A2.56,2.56,0,0,0,1440.34,755.58Z"/><path class="f" d="M1441.06,776.64a3.13,3.13,0,0,1-2.13,3.6,3.23,3.23,0,0,1-2.46-.28,3.12,3.12,0,0,1,1.23-5.81A3.12,3.12,0,0,1,1441.06,776.64Zm0,0a2.5,2.5,0,0,0-3.24-1.9,2.52,2.52,0,0,0,1,4.91,2.5,2.5,0,0,0,2.25-3Z"/><rect class="e" x="1371.93" y="820.05" width="78.69" height="9.19" transform="translate(-178.52 444.78) rotate(-16.86)"/><rect class="i" x="1371.93" y="820.05" width="78.69" height="9.19" transform="translate(-178.52 444.78) rotate(-16.86)"/><rect class="e" x="1404.61" y="817.82" width="9.19" height="13.66" transform="translate(-183.66 465.91) rotate(-17.64)"/><polygon class="e" points="1374.34 853.35 1354.9 769.2 1296.25 783.11 1325.13 865.12 1374.34 853.35"/><polygon class="e" points="1387.35 849.07 1374.34 853.35 1354.9 769.2 1373.62 773.66 1387.35 849.07"/><polygon class="h" points="1387.35 849.07 1374.34 853.35 1354.9 769.2 1373.62 773.66 1387.35 849.07"/><circle class="e" cx="1448.93" cy="813.24" r="9.98"/><rect class="e" x="1583.36" y="785.15" width="9.19" height="78.69" transform="translate(335.68 2102.46) rotate(-73.02)"/><rect class="i" x="1583.36" y="785.15" width="9.19" height="78.69" transform="translate(335.68 2102.46) rotate(-73.02)"/><rect class="e" x="1583.2" y="819.9" width="13.66" height="9.19" transform="translate(319.56 2087) rotate(-72.23)"/><polygon class="e" points="1624.84 853.28 1644.45 769.17 1703.07 783.2 1674.02 865.15 1624.84 853.28"/><polygon class="e" points="1611.83 848.97 1624.84 853.28 1644.45 769.17 1625.72 773.59 1611.83 848.97"/><polygon class="h" points="1611.83 848.97 1624.84 853.28 1644.45 769.17 1625.72 773.59 1611.83 848.97"/><path class="e" d="M1540.35,813a10,10,0,1,0,10-10A10,10,0,0,0,1540.35,813Z"/><path class="e" d="M1615.69,709.2c.23-.22,24.42-22.66,52.88-15,29.09,7.86,53.12,51.68,53.36,52.12L1730,742c-1-1.94-26.1-47.75-59-56.62-33.51-9-60.47,16.12-61.6,17.19Z"/><path class="i" d="M1615.69,709.2c.23-.22,24.42-22.66,52.88-15,29.09,7.86,53.12,51.68,53.36,52.12L1730,742c-1-1.94-26.1-47.75-59-56.62-33.51-9-60.47,16.12-61.6,17.19Z"/><path class="e" d="M1711.2,790.45l17.43-9.19a36.63,36.63,0,0,1-4-13.53c-.39-6.37,2.14-8.61,4.92-10.08,6.11-3.22,9.75-1.94,12.24-.48,3.49,2.06,7,6.28,10,11.88l17.42-9.2c-4.77-9-10.62-15.64-17.41-19.65s-17.71-7.22-31.45,0c-10.7,5.65-16.17,15.84-15.39,28.7C1705.55,779,1709.89,788,1711.2,790.45Z"/><path class="d" d="M1619.36,678.5c3.78-2.61,7.64-5.07,11.52-7.5s7.81-4.8,11.74-7.14,7.91-4.61,11.93-6.81l6-3.29c2-1,4.06-2.15,6.12-3.15-1.88,1.32-3.81,2.55-5.72,3.82l-5.8,3.68c-3.87,2.45-7.81,4.79-11.74,7.13s-7.91,4.62-11.93,6.82S1623.48,676.46,1619.36,678.5Z"/><path class="d" d="M1609.36,716.09c5.4,3.08,10.53,6.56,15.59,10.14s10,7.32,14.65,11.44c-5.41-3.08-10.53-6.56-15.59-10.14S1614,720.2,1609.36,716.09Z"/><path class="d" d="M1618.24,711.47c4.17,1.27,8.28,2.7,12.38,4.15s8.17,3,12.23,4.56,8.09,3.19,12.09,4.9l6,2.58c2,.91,4,1.77,5.93,2.73-2.09-.62-4.14-1.33-6.22-2l-6.16-2.15c-4.1-1.45-8.17-3-12.22-4.56s-8.1-3.19-12.1-4.91S1622.17,713.35,1618.24,711.47Z"/><path class="d" d="M1630.1,682c4-1,8-1.9,12.06-2.74s8.09-1.59,12.14-2.33,8.12-1.38,12.2-2l6.13-.85c2-.23,4.09-.51,6.15-.68-2,.53-4,1-6,1.45l-6,1.29c-4,.86-8.09,1.59-12.14,2.33s-8.12,1.38-12.21,2S1634.21,681.64,1630.1,682Z"/><path class="d" d="M1533.69,707a43.37,43.37,0,0,1,3.18-9.44,38,38,0,0,1,5.31-8.48,20.55,20.55,0,0,1,8.07-6,14.23,14.23,0,0,1,10.14.1,13.52,13.52,0,0,1,7.24,7.17,16.35,16.35,0,0,1,1.36,5,11.16,11.16,0,0,1-.6,5.25,4.81,4.81,0,0,1-1.77,2.28,3.59,3.59,0,0,1-1.45.54,3.32,3.32,0,0,1-1.6-.15,4.53,4.53,0,0,1-2.08-2.1,12.53,12.53,0,0,1-1-2.48,32.78,32.78,0,0,1-.83-10.14,41.67,41.67,0,0,1,5.86-19.21,25.13,25.13,0,0,1,7-7.41,21.27,21.27,0,0,1,9.46-3.65,26.64,26.64,0,0,1,5-.44,15.36,15.36,0,0,1,2.53.16,16.27,16.27,0,0,1,2.51.33,31,31,0,0,1,9.4,3.56,39.09,39.09,0,0,1,7.88,6.18,41.88,41.88,0,0,1,6.2,7.79,43.42,43.42,0,0,0-14.46-13.28,30.17,30.17,0,0,0-9.2-3.25,35.08,35.08,0,0,0-4.86-.37,25.25,25.25,0,0,0-4.83.54,20.87,20.87,0,0,0-8.89,3.57,23.75,23.75,0,0,0-6.52,7,40.26,40.26,0,0,0-5.5,18.53,31.29,31.29,0,0,0,.71,9.63c.39,1.47,1.08,3.13,2.1,3.6a3,3,0,0,0,.37.08,3.65,3.65,0,0,0,.47,0,2,2,0,0,0,.86-.32,3.39,3.39,0,0,0,1.23-1.59,9.88,9.88,0,0,0,.52-4.55,14.86,14.86,0,0,0-1.21-4.57,12.53,12.53,0,0,0-6.44-6.61,13.13,13.13,0,0,0-9.32-.28,19.77,19.77,0,0,0-7.83,5.59A43.42,43.42,0,0,0,1533.69,707Z"/><path class="d" d="M1385.24,748.67a22.76,22.76,0,0,1,6.5-7.45,24.09,24.09,0,0,1,9-4.31,19.36,19.36,0,0,1,10,.2,20,20,0,0,1,8.57,5.34,25.28,25.28,0,0,1,5.37,8.56,23.32,23.32,0,0,1,1.66,10,8.24,8.24,0,0,1-1.86,5,3.85,3.85,0,0,1-2.71,1.22,5.87,5.87,0,0,1-2.77-.62,4.64,4.64,0,0,1-2-2.12,7.08,7.08,0,0,1-.6-2.7,14.62,14.62,0,0,1,.85-5.13,29.64,29.64,0,0,1,4.92-8.85,35.69,35.69,0,0,1,7.27-7,27.14,27.14,0,0,1,19.14-5.27,25.42,25.42,0,0,1,17.16,9.67,34.91,34.91,0,0,1,5,8.64,39.81,39.81,0,0,1,2.62,9.55,40,40,0,0,0-8.21-17.67,25.21,25.21,0,0,0-7.46-6.15,24.83,24.83,0,0,0-9.21-2.76,26.06,26.06,0,0,0-18.13,5.19,32.89,32.89,0,0,0-11.56,15.14,13.51,13.51,0,0,0-.81,4.57,3.89,3.89,0,0,0,1.77,3.55,4.25,4.25,0,0,0,2,.46,2.34,2.34,0,0,0,1.69-.75,6.94,6.94,0,0,0,1.48-4.12,22.15,22.15,0,0,0-1.52-9.38,25,25,0,0,0-5-8.16,19.19,19.19,0,0,0-8-5.17,18.29,18.29,0,0,0-9.52-.42A24.68,24.68,0,0,0,1385.24,748.67Z"/><path class="d" d="M1310.92,360.71a43.25,43.25,0,0,0-4.66-19.07,19.89,19.89,0,0,0-6.27-7.3,13.08,13.08,0,0,0-9.12-1.95,12.54,12.54,0,0,0-7.83,4.88,14.72,14.72,0,0,0-2.27,4.15,9.67,9.67,0,0,0-.57,4.54,3.35,3.35,0,0,0,.81,1.84,1.93,1.93,0,0,0,.75.51,3.47,3.47,0,0,0,.46.13,2.41,2.41,0,0,0,.38,0c1.1-.2,2.17-1.65,2.9-3a31,31,0,0,0,3-9.18,40.18,40.18,0,0,0-.91-19.31,23.89,23.89,0,0,0-4.65-8.4,21,21,0,0,0-7.78-5.59,25.22,25.22,0,0,0-4.57-1.67,14.78,14.78,0,0,0-2.38-.49,15.26,15.26,0,0,0-2.42-.31,29.79,29.79,0,0,0-9.71,1,43.25,43.25,0,0,0-17.21,9.44,41.76,41.76,0,0,1,7.88-6.09,39.22,39.22,0,0,1,9.12-4.11,30.56,30.56,0,0,1,10-1.21,15.28,15.28,0,0,1,2.52.26,16,16,0,0,1,2.49.45,27.73,27.73,0,0,1,4.8,1.64,21.26,21.26,0,0,1,8.32,5.81,25.16,25.16,0,0,1,5,8.85,41.71,41.71,0,0,1,1.1,20.06,32.63,32.63,0,0,1-3.23,9.64,12,12,0,0,1-1.51,2.18,4.48,4.48,0,0,1-2.51,1.55,3.4,3.4,0,0,1-1.6-.24,3.6,3.6,0,0,1-1.28-.87,4.9,4.9,0,0,1-1.18-2.63,11.25,11.25,0,0,1,.68-5.24,16.2,16.2,0,0,1,2.51-4.53,13.5,13.5,0,0,1,8.74-5.25,14.21,14.21,0,0,1,9.87,2.33,20.51,20.51,0,0,1,6.4,7.78,38,38,0,0,1,3.13,9.5A43.05,43.05,0,0,1,1310.92,360.71Z"/><path class="d" d="M1665.66,444.51a43.23,43.23,0,0,0-19.63.08,19.93,19.93,0,0,0-8.56,4.39,13.07,13.07,0,0,0-4,8.41,12.53,12.53,0,0,0,2.91,8.76,14.7,14.7,0,0,0,3.51,3.17,9.67,9.67,0,0,0,4.28,1.62,3.38,3.38,0,0,0,2-.36,1.87,1.87,0,0,0,.67-.61,2.86,2.86,0,0,0,.24-.42c.06-.14,0-.25.09-.37,0-1.11-1.1-2.49-2.23-3.51a31.4,31.4,0,0,0-8.23-5.05,40.26,40.26,0,0,0-19-3.61,23.63,23.63,0,0,0-9.25,2.56,21,21,0,0,0-7.25,6.26,25.65,25.65,0,0,0-2.69,4.05,14.35,14.35,0,0,0-1,2.21,15.18,15.18,0,0,0-.87,2.27,30.07,30.07,0,0,0-1.33,9.67,43.24,43.24,0,0,0,5.17,18.94,41.67,41.67,0,0,1-4.09-9.08,39.56,39.56,0,0,1-1.87-9.83,30.7,30.7,0,0,1,1.15-10,15.81,15.81,0,0,1,.85-2.39,16,16,0,0,1,1-2.32,27.13,27.13,0,0,1,2.71-4.28,21.21,21.21,0,0,1,7.58-6.74,25.16,25.16,0,0,1,9.78-2.79,41.63,41.63,0,0,1,19.76,3.6,33.21,33.21,0,0,1,8.63,5.39,12.9,12.9,0,0,1,1.76,2,4.51,4.51,0,0,1,.92,2.81,3.52,3.52,0,0,1-1.75,2.53,4.8,4.8,0,0,1-2.83.54,11.13,11.13,0,0,1-4.94-1.88,16.32,16.32,0,0,1-3.82-3.5,13.51,13.51,0,0,1-3.06-9.73,14.26,14.26,0,0,1,4.56-9.05,20.68,20.68,0,0,1,9.07-4.41,38,38,0,0,1,10-.82A43,43,0,0,1,1665.66,444.51Z"/><path class="d" d="M1566.2,340.57a27.52,27.52,0,0,1-.62-11.81,28.87,28.87,0,0,1,4.12-11.19,23,23,0,0,1,8.75-8.19,23.84,23.84,0,0,1,11.76-2.57,30.39,30.39,0,0,1,11.71,2.83,27.88,27.88,0,0,1,9.75,7.15,9.84,9.84,0,0,1,2.57,5.77,4.51,4.51,0,0,1-1.26,3.2,6.82,6.82,0,0,1-2.83,1.75,5.38,5.38,0,0,1-3.39-.15,8.18,8.18,0,0,1-2.72-1.78,17.41,17.41,0,0,1-3.53-5.07,35.77,35.77,0,0,1-3.19-11.64,42.63,42.63,0,0,1,.37-12c1.34-7.91,5.43-15.56,11.92-20.45a30.87,30.87,0,0,1,10.76-5.35,31.29,31.29,0,0,1,12-.77,42.58,42.58,0,0,1,11.47,3.22,48.58,48.58,0,0,1,10.26,5.95,47.78,47.78,0,0,0-21.82-8.35,30.06,30.06,0,0,0-11.57,1,30.16,30.16,0,0,0-17.72,14.11,34.15,34.15,0,0,0-3.79,10.93,39.56,39.56,0,0,0,2.78,22.73,16.11,16.11,0,0,0,3.17,4.64c1.3,1.27,3,2.11,4.63,1.6a5.38,5.38,0,0,0,2.18-1.33,3,3,0,0,0,.85-2.17,8.5,8.5,0,0,0-2.21-4.85,26.39,26.39,0,0,0-9.21-6.8,30,30,0,0,0-11.18-2.8,22.79,22.79,0,0,0-11.2,2.28,22,22,0,0,0-8.54,7.66A29.63,29.63,0,0,0,1566.2,340.57Z"/><path class="k" d="M1379.87,749a6.83,6.83,0,1,0,4.46,8.57A6.84,6.84,0,0,0,1379.87,749Zm3.67,8.32a6,6,0,1,1-3.92-7.52A6,6,0,0,1,1383.54,757.34Zm-3.67-8.32a6.83,6.83,0,1,0,4.46,8.57A6.84,6.84,0,0,0,1379.87,749Zm3.67,8.32a6,6,0,1,1-3.92-7.52A6,6,0,0,1,1383.54,757.34Zm-3.67-8.32a6.83,6.83,0,1,0,4.46,8.57A6.84,6.84,0,0,0,1379.87,749Zm3.67,8.32a6,6,0,1,1-3.92-7.52A6,6,0,0,1,1383.54,757.34Zm-1.39-15.53a14.4,14.4,0,1,0,9.4,18.05A14.4,14.4,0,0,0,1382.15,741.81Zm3.2,16.1a7.89,7.89,0,1,1-5.16-9.9A7.9,7.9,0,0,1,1385.35,757.91Zm-1-.32a6.83,6.83,0,1,0-8.56,4.46A6.84,6.84,0,0,0,1384.33,757.59Zm-.79-.25a6,6,0,1,1-3.92-7.52A6,6,0,0,1,1383.54,757.34Zm-3.67-8.32a6.83,6.83,0,1,0,4.46,8.57A6.84,6.84,0,0,0,1379.87,749Zm3.67,8.32a6,6,0,1,1-3.92-7.52A6,6,0,0,1,1383.54,757.34Zm-3.67-8.32a6.83,6.83,0,1,0,4.46,8.57A6.84,6.84,0,0,0,1379.87,749Zm3.67,8.32a6,6,0,1,1-3.92-7.52A6,6,0,0,1,1383.54,757.34Z"/><polygon class="k" points="1376.31 769.53 1371.03 767.87 1370.14 771.7 1374.84 773.18 1376.31 769.53"/><polygon class="k" points="1366.82 764.59 1364.26 759.68 1360.93 761.76 1363.2 766.13 1366.82 764.59"/><polygon class="k" points="1363.61 754.38 1365.27 749.1 1361.44 748.21 1359.96 752.91 1363.61 754.38"/><polygon class="k" points="1368.55 744.89 1373.46 742.33 1371.38 739 1367.02 741.27 1368.55 744.89"/><polygon class="k" points="1378.76 741.68 1384.04 743.34 1384.93 739.51 1380.23 738.03 1378.76 741.68"/><polygon class="k" points="1388.25 746.62 1390.81 751.53 1394.14 749.45 1391.87 745.08 1388.25 746.62"/><polygon class="k" points="1391.46 756.83 1389.8 762.11 1393.63 763 1395.11 758.3 1391.46 756.83"/><polygon class="k" points="1386.52 766.32 1381.61 768.88 1383.69 772.21 1388.06 769.94 1386.52 766.32"/><path class="d" d="M1646.23,703.12a22,22,0,1,0-30.79,4.56A22,22,0,0,0,1646.23,703.12Zm-9.42-7a10.28,10.28,0,1,1-2.13-14.37A10.28,10.28,0,0,1,1636.81,696.13Z"/><polygon class="d" points="1619.38 709.47 1612.59 704.42 1609.39 709.51 1615.44 714 1619.38 709.47"/><polygon class="d" points="1608.15 697.58 1606.91 689.21 1601.05 690.55 1602.15 697.99 1608.15 697.58"/><polygon class="d" points="1608.61 681.23 1613.65 674.43 1608.57 671.24 1604.08 677.28 1608.61 681.23"/><polygon class="d" points="1620.5 669.99 1628.87 668.75 1627.53 662.9 1620.09 664 1620.5 669.99"/><polygon class="d" points="1636.85 670.45 1643.65 675.5 1646.84 670.41 1640.8 665.92 1636.85 670.45"/><polygon class="d" points="1648.09 682.34 1649.33 690.71 1655.18 689.37 1654.08 681.93 1648.09 682.34"/><polygon class="d" points="1647.62 698.69 1642.58 705.49 1647.67 708.68 1652.16 702.64 1647.62 698.69"/><polygon class="d" points="1635.73 709.93 1627.36 711.17 1628.7 717.02 1636.15 715.92 1635.73 709.93"/><path class="d" d="M1620.68,691.06l4.67,5.9,7.44-1.11,2.77-7-4.67-5.89-7.45,1.1Zm8.86-3a2.39,2.39,0,0,1-2.85,3.83,2.39,2.39,0,0,1,2.85-3.83Z"/><path class="d" d="M1662.73,274.59a6,6,0,1,0,3.9,7.5A6,6,0,0,0,1662.73,274.59Zm3.21,7.28a5.25,5.25,0,1,1-3.43-6.59A5.26,5.26,0,0,1,1665.94,281.87Zm-3.21-7.28a6,6,0,1,0,3.9,7.5A6,6,0,0,0,1662.73,274.59Zm3.21,7.28a5.25,5.25,0,1,1-3.43-6.59A5.26,5.26,0,0,1,1665.94,281.87Zm-3.21-7.28a6,6,0,1,0,3.9,7.5A6,6,0,0,0,1662.73,274.59Zm3.21,7.28a5.25,5.25,0,1,1-3.43-6.59A5.26,5.26,0,0,1,1665.94,281.87Zm-1.22-13.6a12.6,12.6,0,1,0,8.23,15.8A12.61,12.61,0,0,0,1664.72,268.27Zm2.8,14.09a6.91,6.91,0,1,1-4.51-8.66A6.92,6.92,0,0,1,1667.52,282.36Zm-.89-.27a6,6,0,1,0-7.49,3.9A6,6,0,0,0,1666.63,282.09Zm-.69-.22a5.25,5.25,0,1,1-3.43-6.59A5.26,5.26,0,0,1,1665.94,281.87Zm-3.21-7.28a6,6,0,1,0,3.9,7.5A6,6,0,0,0,1662.73,274.59Zm3.21,7.28a5.25,5.25,0,1,1-3.43-6.59A5.26,5.26,0,0,1,1665.94,281.87Zm-3.21-7.28a6,6,0,1,0,3.9,7.5A6,6,0,0,0,1662.73,274.59Zm3.21,7.28a5.25,5.25,0,1,1-3.43-6.59A5.26,5.26,0,0,1,1665.94,281.87Z"/><polygon class="d" points="1659.61 292.54 1654.99 291.08 1654.22 294.43 1658.33 295.73 1659.61 292.54"/><polygon class="d" points="1651.31 288.21 1649.07 283.91 1646.15 285.73 1648.14 289.55 1651.31 288.21"/><polygon class="d" points="1648.5 279.27 1649.95 274.65 1646.6 273.88 1645.31 277.99 1648.5 279.27"/><polygon class="d" points="1652.82 270.97 1657.12 268.73 1655.3 265.82 1651.48 267.81 1652.82 270.97"/><polygon class="d" points="1661.76 268.16 1666.38 269.62 1667.15 266.26 1663.04 264.97 1661.76 268.16"/><polygon class="d" points="1670.06 272.49 1672.3 276.78 1675.21 274.96 1673.22 271.14 1670.06 272.49"/><polygon class="d" points="1672.87 281.42 1671.41 286.04 1674.77 286.81 1676.06 282.7 1672.87 281.42"/><polygon class="d" points="1668.54 289.72 1664.25 291.96 1666.07 294.88 1669.89 292.89 1668.54 289.72"/><path class="d" d="M1601.33,504.1a6,6,0,1,0,3.91,7.5A6,6,0,0,0,1601.33,504.1Zm3.21,7.28a5.25,5.25,0,1,1-3.42-6.58A5.24,5.24,0,0,1,1604.54,511.38Zm-3.21-7.28a6,6,0,1,0,3.91,7.5A6,6,0,0,0,1601.33,504.1Zm3.21,7.28a5.25,5.25,0,1,1-3.42-6.58A5.24,5.24,0,0,1,1604.54,511.38Zm-3.21-7.28a6,6,0,1,0,3.91,7.5A6,6,0,0,0,1601.33,504.1Zm3.21,7.28a5.25,5.25,0,1,1-3.42-6.58A5.24,5.24,0,0,1,1604.54,511.38Zm-1.21-13.59a12.6,12.6,0,1,0,8.22,15.8A12.59,12.59,0,0,0,1603.33,497.79Zm2.79,14.09a6.9,6.9,0,1,1-4.51-8.66A6.91,6.91,0,0,1,1606.12,511.88Zm-.88-.28a6,6,0,1,0-7.5,3.9A6,6,0,0,0,1605.24,511.6Zm-.7-.22a5.25,5.25,0,1,1-3.42-6.58A5.24,5.24,0,0,1,1604.54,511.38Zm-3.21-7.28a6,6,0,1,0,3.91,7.5A6,6,0,0,0,1601.33,504.1Zm3.21,7.28a5.25,5.25,0,1,1-3.42-6.58A5.24,5.24,0,0,1,1604.54,511.38Zm-3.21-7.28a6,6,0,1,0,3.91,7.5A6,6,0,0,0,1601.33,504.1Zm3.21,7.28a5.25,5.25,0,1,1-3.42-6.58A5.24,5.24,0,0,1,1604.54,511.38Z"/><polygon class="d" points="1598.22 522.05 1593.6 520.59 1592.82 523.94 1596.93 525.24 1598.22 522.05"/><polygon class="d" points="1589.91 517.72 1587.68 513.42 1584.76 515.25 1586.75 519.07 1589.91 517.72"/><polygon class="d" points="1587.1 508.79 1588.56 504.17 1585.21 503.39 1583.91 507.5 1587.1 508.79"/><polygon class="d" points="1591.43 500.49 1595.73 498.25 1593.9 495.33 1590.08 497.32 1591.43 500.49"/><polygon class="d" points="1600.36 497.67 1604.98 499.13 1605.76 495.78 1601.65 494.48 1600.36 497.67"/><polygon class="d" points="1608.67 502 1610.9 506.3 1613.82 504.48 1611.83 500.65 1608.67 502"/><polygon class="d" points="1611.48 510.93 1610.02 515.55 1613.37 516.33 1614.67 512.22 1611.48 510.93"/><polygon class="d" points="1607.15 519.24 1602.85 521.47 1604.67 524.39 1608.5 522.4 1607.15 519.24"/><path class="d" d="M1250,323.41a18.95,18.95,0,1,0-22.89,13.93A18.95,18.95,0,0,0,1250,323.41Zm-9.81-2.39a8.85,8.85,0,1,1-6.5-10.69A8.86,8.86,0,0,1,1240.17,321Z"/><polygon class="d" points="1230.81 337.44 1223.73 335.71 1222.9 340.82 1229.2 342.36 1230.81 337.44"/><polygon class="d" points="1217.92 331.77 1214.13 325.54 1209.93 328.57 1213.3 334.11 1217.92 331.77"/><polygon class="d" points="1212.81 318.64 1214.53 311.56 1209.43 310.74 1207.89 317.03 1212.81 318.64"/><polygon class="d" points="1218.48 305.75 1224.7 301.96 1221.68 297.77 1216.14 301.13 1218.48 305.75"/><polygon class="d" points="1231.6 300.64 1238.68 302.37 1239.51 297.26 1233.21 295.73 1231.6 300.64"/><polygon class="d" points="1244.5 306.31 1248.28 312.54 1252.48 309.51 1249.11 303.97 1244.5 306.31"/><polygon class="d" points="1249.61 319.44 1247.88 326.51 1252.99 327.34 1254.52 321.05 1249.61 319.44"/><polygon class="d" points="1243.94 332.33 1237.71 336.12 1240.74 340.31 1246.27 336.94 1243.94 332.33"/><path class="d" d="M1225.67,322.41l5.68,3.11,5.54-3.37-.15-6.48-5.68-3.11-5.54,3.37Zm6-5.37a2.06,2.06,0,1,1-2.48,1.51A2.05,2.05,0,0,1,1231.69,317Z"/></svg>