<svg xmlns="http://www.w3.org/2000/svg" viewBox="0 0 1920 1080"><defs><style>.a{fill:#c4d8e7;}.b,.i{fill:#fff;}.c{fill:#3a475b;}.d{fill:#263238;}.e{fill:#ffc829;}.f,.h{fill:#010101;}.f{opacity:0.1;}.g{fill:#37474f;}.h{opacity:0.2;}.i{opacity:0.4;}.j{fill:#dcdbdb;}.k{fill:#455b64;}</style></defs><title>Untitled-1</title><rect class="a" x="655.3" width="663.32" height="1080"/><path class="b" d="M937.49,678c0,113.36-161.17,96.51,27.25,402H0V0H747.53c8.11,93.71,206.81,199.45,206.81,293.51-2.78,63.34-104.78,126.62-107.55,190C844,548.3,940.33,613.19,937.49,678Z"/><path class="c" d="M1920,1080H964.74C860.57,786.79,1116,815.3,1116,701.22c0-149.66-280.28-168.94-125.44-295.88C1160.55,265.94,904,148,751.53,0H1920Z"/><path class="b" d="M1749.78,536.84c0,138.07-111.93,250-250,250s-250-111.93-250-250,11.36-287,149.43-287S1749.78,398.77,1749.78,536.84Z"/><path class="d" d="M1311.49,594.64c-15.22,14.9-17.77,38-14.57,58.14.09.46.79.33.79-.1,0-4.59-.13-9.15-.12-13.69.08-.21.15-.4.24-.61,4-2.89,7.62-6.15,9.88-10.62,2.54-5,3.54-10.64,5.49-15.86.18-.5-.35-.35-.7-.1-9.26,6.83-12.21,14.18-14.87,24a82.71,82.71,0,0,1,1.61-15.29c2-9.32,6-18.55,12.65-25.47C1312.14,594.78,1311.75,594.37,1311.49,594.64Z"/><path class="e" d="M1314.35,596.38c2.62.08,4.26,4.27,6.3,5.49a2,2,0,0,0,2.89-.45c2-2.83-.75-6.31-3.36-8.26,1.86.77,3.41,2.12,5.42,2.5a1.89,1.89,0,0,0,2.45-1.46c.89-3.85-3.94-5.56-7.25-5.64,1.61-1.12,6.21-4.15,3.76-5.65s-7.87,2.84-9.63,4.27c-2.59,2.1-5.68,5.24-5.79,8.53C1309,599.54,1312.34,597.18,1314.35,596.38Z"/><path class="f" d="M1314.35,596.38c2.62.08,4.26,4.27,6.3,5.49a2,2,0,0,0,2.89-.45c2-2.83-.75-6.31-3.36-8.26,1.86.77,3.41,2.12,5.42,2.5a1.89,1.89,0,0,0,2.45-1.46c.89-3.85-3.94-5.56-7.25-5.64,1.61-1.12,6.21-4.15,3.76-5.65s-7.87,2.84-9.63,4.27c-2.59,2.1-5.68,5.24-5.79,8.53C1309,599.54,1312.34,597.18,1314.35,596.38Z"/><path class="e" d="M1313.59,597c3.35-1.52,9.78.67,10.33-.6,1.11-2.58-4-4.35-6.81-4.69,2.56-.69,7.45-1.79,7.3-4.26-.18-3-7.51-.42-11.21,2.43-4.67,3.58-4.64,7-3.87,7.72C1310.39,598.57,1313,597.27,1313.59,597Z"/><path class="d" d="M1276.83,593.16c15.77,14.31,19.2,37.25,16.77,57.55-.07.46-.78.36-.8-.07-.17-4.59-.21-9.15-.39-13.68-.1-.21-.17-.4-.26-.61-4.08-2.73-7.86-5.85-10.29-10.24-2.73-4.89-3.94-10.49-6.08-15.63-.2-.5.34-.37.7-.13,9.51,6.48,12.73,13.71,15.76,23.42a81.78,81.78,0,0,0-2.19-15.22c-2.35-9.24-6.66-18.31-13.61-25C1276.18,593.33,1276.56,592.91,1276.83,593.16Z"/><path class="e" d="M1274,595c-2.62.19-4.1,4.43-6.09,5.73a2,2,0,0,1-2.9-.35c-2.13-2.74.51-6.32,3-8.37-1.84.84-3.33,2.24-5.33,2.7a1.89,1.89,0,0,1-2.5-1.37c-1-3.81,3.73-5.7,7-5.91-1.64-1.06-6.36-3.91-4-5.5s8,2.54,9.79,3.9c2.67,2,5.87,5,6.11,8.3C1279.52,598,1276.08,595.73,1274,595Z"/><path class="f" d="M1274,595c-2.62.19-4.1,4.43-6.09,5.73a2,2,0,0,1-2.9-.35c-2.13-2.74.51-6.32,3-8.37-1.84.84-3.33,2.24-5.33,2.7a1.89,1.89,0,0,1-2.5-1.37c-1-3.81,3.73-5.7,7-5.91-1.64-1.06-6.36-3.91-4-5.5s8,2.54,9.79,3.9c2.67,2,5.87,5,6.11,8.3C1279.52,598,1276.08,595.73,1274,595Z"/><path class="e" d="M1274.82,595.62c-3.4-1.39-9.75,1-10.34-.2-1.21-2.54,3.86-4.5,6.62-4.95-2.58-.59-7.51-1.51-7.46-4,.07-3,7.49-.71,11.3,2,4.8,3.4,4.91,6.85,4.16,7.57C1278.08,597.05,1275.38,595.85,1274.82,595.62Z"/><path class="d" d="M1293,631a155.53,155.53,0,0,0,4.9,22.62.56.56,0,0,0,1.1-.22c-1-7-2.92-13.81-4-20.79a104.42,104.42,0,0,1-1.21-21.34c.66-11.75,3.85-24.25,11.52-33.44.17-.22-.19-.53-.36-.33-15.35,17.9-12.91,39.85-12.9,41.81-2.17-7.41-4.41-15.9-12.63-23.45-.35-.32-.63-.17-.57.39,1.47,13.74,5.29,20.91,13.26,28.26C1292.33,626.65,1292.61,628.82,1293,631Z"/><path class="e" d="M1305.45,579.85c2.76-1.23,6.57,2.29,9.3,2.52a2.25,2.25,0,0,0,2.77-1.92c.68-4-4-6.16-7.64-6.87,2.32-.14,4.61.48,6.89-.14a2.18,2.18,0,0,0,1.8-2.75c-1-4.44-6.89-3.79-10.36-2.21,1.1-2,4.35-7.43,1.06-7.74s-6.74,6.91-7.85,9.28c-1.63,3.48-3.25,8.29-1.72,11.75C1301.47,585.83,1303.76,581.69,1305.45,579.85Z"/><path class="f" d="M1305.45,579.85c2.76-1.23,6.57,2.29,9.3,2.52a2.25,2.25,0,0,0,2.77-1.92c.68-4-4-6.16-7.64-6.87,2.32-.14,4.61.48,6.89-.14a2.18,2.18,0,0,0,1.8-2.75c-1-4.44-6.89-3.79-10.36-2.21,1.1-2,4.35-7.43,1.06-7.74s-6.74,6.91-7.85,9.28c-1.63,3.48-3.25,8.29-1.72,11.75C1301.47,585.83,1303.76,581.69,1305.45,579.85Z"/><path class="e" d="M1305,580.9c2.71-3.27,10.48-4.23,10.41-5.82-.15-3.24-6.37-2.48-9.42-1.44,2.3-2,6.82-5.62,5.43-8.1-1.71-3-8,3.35-10.42,8.16-3,6.07-1.27,9.64-.12,10C1302.45,584.12,1304.54,581.44,1305,580.9Z"/><path class="e" d="M1282.86,635.09l-6.77,51.73h41.2c-.85-4.58-8.52-51.79-8.52-51.79Z"/><rect class="g" x="1481.82" y="606.29" width="41.36" height="3.39"/><rect class="g" x="1481.82" y="610.7" width="41.36" height="3.39"/><rect class="g" x="1481.82" y="615.12" width="41.36" height="3.39"/><rect class="g" x="1481.82" y="619.53" width="41.36" height="3.39"/><rect class="g" x="1481.82" y="623.94" width="41.36" height="3.39"/><rect class="g" x="1462.45" y="711.98" width="78.63" height="3.39"/><rect class="g" x="1462.45" y="716.39" width="78.63" height="3.39"/><rect class="g" x="1462.45" y="720.8" width="78.63" height="3.39"/><rect class="g" x="1462.45" y="725.22" width="78.63" height="3.39"/><rect class="g" x="1462.45" y="729.63" width="78.63" height="3.39"/><path class="e" d="M1428,578.29c0-.46-17.21-6.24-17.21-6.24l1-59.26,22.87-4.91Z"/><path class="h" d="M1428,578.29c0-.46-17.21-6.24-17.21-6.24l1-59.26,22.87-4.91Z"/><path class="e" d="M1585.93,601.55c.12-.45,18.31.07,18.31.07l19.43-56-19.78-12.48Z"/><path class="h" d="M1585.93,601.55c.12-.45,18.31.07,18.31.07l19.43-56-19.78-12.48Z"/><path class="e" d="M1424.63,600.11s6.39-95.85,12-127.38c0,0,115.78,8.76,178.28,32.65,0,0-32.22,112-33.89,117.51C1581,622.89,1499.49,606.83,1424.63,600.11Z"/><path class="f" d="M1528,485.53q-2.82,17.31-5.76,34.6l-6,34.57-.33-.49,38.8,9.22,19.37,4.69,19.36,4.79L1574,568.56l-19.43-4.45L1515.73,555l-.39-.09.07-.4,6.18-34.53C1523.66,508.52,1525.81,497,1528,485.53Z"/><path class="f" d="M1523.72,492.11a2.25,2.25,0,0,1-3.74,1.7,2.26,2.26,0,0,1,0-3.4,2.25,2.25,0,0,1,3.74,1.7Zm0,0a1.86,1.86,0,0,0-.64-1.39,1.82,1.82,0,1,0-1.4,3.21,1.82,1.82,0,0,0,2-1.82Z"/><path class="f" d="M1521.68,506.37a2.25,2.25,0,1,1-4.5,0,2.28,2.28,0,0,1,.77-1.7,2.25,2.25,0,0,1,1.7-.55A2.27,2.27,0,0,1,1521.68,506.37Zm0,0A1.83,1.83,0,0,0,1521,505a1.81,1.81,0,0,0-1.39-.42,1.83,1.83,0,0,0,0,3.63,1.89,1.89,0,0,0,1.39-.42A1.85,1.85,0,0,0,1521.68,506.37Z"/><path class="f" d="M1519.18,521.44a2.26,2.26,0,0,1-2,2.25,2.25,2.25,0,0,1-2.47-2.25,2.26,2.26,0,0,1,.76-1.7,2.28,2.28,0,0,1,1.71-.55A2.26,2.26,0,0,1,1519.18,521.44Zm0,0a1.86,1.86,0,0,0-.64-1.39,1.82,1.82,0,1,0-1.39,3.21,1.82,1.82,0,0,0,2-1.82Z"/><path class="f" d="M1516.68,536.51a2.27,2.27,0,0,1-2,2.25,2.26,2.26,0,0,1-1.7-4,2.25,2.25,0,0,1,3.74,1.7Zm0,0a1.94,1.94,0,0,0-.64-1.4,1.86,1.86,0,0,0-1.4-.41,1.82,1.82,0,1,0,1.4,3.2A1.9,1.9,0,0,0,1516.68,536.51Z"/><path class="f" d="M1525.21,560.54a2.25,2.25,0,0,1-3.74,1.7,2.26,2.26,0,0,1,0-3.4,2.25,2.25,0,0,1,3.74,1.7Zm0,0a1.86,1.86,0,0,0-.64-1.39,1.82,1.82,0,1,0-1.4,3.21,1.82,1.82,0,0,0,2-1.82Z"/><path class="f" d="M1539.43,564a2.25,2.25,0,0,1-3.74,1.7,2.26,2.26,0,0,1,1.71-4A2.26,2.26,0,0,1,1539.43,564Zm0,0a1.82,1.82,0,1,0-2,1.82,1.87,1.87,0,0,0,1.39-.43A1.83,1.83,0,0,0,1539.43,564Z"/><path class="f" d="M1553.65,567.48a2.25,2.25,0,0,1-3.73,1.7,2.3,2.3,0,0,1-.77-1.7,2.25,2.25,0,1,1,4.5,0Zm0,0a1.8,1.8,0,0,0-2-1.81,1.83,1.83,0,0,0,0,3.63,1.88,1.88,0,0,0,1.4-.43A1.86,1.86,0,0,0,1553.65,567.48Z"/><path class="f" d="M1567.88,571a2.25,2.25,0,1,1-2-2.25A2.27,2.27,0,0,1,1567.88,571Zm0,0a1.86,1.86,0,0,0-.64-1.39,1.82,1.82,0,1,0-1.4,3.21,1.83,1.83,0,0,0,2-1.82Z"/><path class="f" d="M1582.1,574.58a2.27,2.27,0,0,1-2.2,2.08,2.3,2.3,0,0,1-1.66-.67,2.33,2.33,0,0,1-.63-1.76,2.28,2.28,0,0,1,.89-1.64,2.3,2.3,0,0,1,1.74-.42A2.28,2.28,0,0,1,1582.1,574.58Zm0,0a1.82,1.82,0,0,0-1.89-2,1.83,1.83,0,0,0-.28,3.62,1.87,1.87,0,0,0,1.42-.31A1.91,1.91,0,0,0,1582.1,574.58Z"/><path class="f" d="M1514.17,551.58a2.26,2.26,0,0,1-2,2.25,2.26,2.26,0,0,1-2.47-2.25,2.33,2.33,0,0,1,.76-1.71,2.26,2.26,0,0,1,3.74,1.71Zm0,0a1.85,1.85,0,0,0-.64-1.4,1.9,1.9,0,0,0-1.39-.42,1.83,1.83,0,0,0,0,3.63,1.81,1.81,0,0,0,1.39-.42A1.83,1.83,0,0,0,1514.17,551.58Z"/><circle class="h" cx="1468.24" cy="552.09" r="32.88" transform="translate(7.31 1123.25) rotate(-41.96)"/><circle class="d" cx="1468.24" cy="552.09" r="26.37" transform="translate(432.12 1729.8) rotate(-69.27)"/><rect class="e" x="1459.94" y="541.88" width="6.24" height="6.24" transform="translate(105.99 -226.96) rotate(9.2)"/><rect class="e" x="1454.78" y="534.72" width="6.24" height="6.24" transform="translate(104.78 -226.23) rotate(9.2)"/><rect class="e" x="1479.43" y="538.71" width="6.24" height="6.24" transform="translate(105.73 -230.12) rotate(9.2)"/><rect class="e" x="1450.81" y="559.23" width="6.24" height="6.24" transform="translate(108.65 -225.28) rotate(9.2)"/><rect class="e" x="1475.46" y="563.23" width="6.24" height="6.24" transform="translate(109.6 -229.17) rotate(9.2)"/><rect class="e" x="1457.97" y="554.07" width="6.24" height="6.24" transform="translate(107.91 -226.49) rotate(9.2)"/><rect class="e" x="1465.12" y="548.97" width="6.24" height="6.24" transform="translate(107.19 -227.7) rotate(9.2)"/><rect class="e" x="1472.27" y="543.88" width="6.24" height="6.24" transform="translate(106.47 -228.91) rotate(9.2)"/><rect class="e" x="1470.3" y="556.07" width="6.24" height="6.24" transform="translate(108.4 -228.46) rotate(9.2)"/><circle class="e" cx="1556.47" cy="565.87" r="32.88" transform="translate(132.26 1411.11) rotate(-50.67)"/><circle class="h" cx="1556.47" cy="565.87" r="32.88" transform="translate(132.26 1411.11) rotate(-50.67)"/><path class="h" d="M1588.46,573.48c-.15.65-.32,1.27-.52,1.9l-64.08-13.67c.15-1.14.35-2.29.62-3.44a32.88,32.88,0,0,1,64,15.21Z"/><circle class="d" cx="1556.47" cy="565.87" r="26.37" transform="translate(-97.84 643.79) rotate(-22.68)"/><rect class="e" x="1553.35" y="550.33" width="6.24" height="31.08" transform="translate(173.02 -344.55) rotate(13.37)"/><path class="e" d="M1590.37,572.86l-67.32-16a34.6,34.6,0,0,1,67.32,16Z"/><path class="h" d="M1590.37,572.86l-67.32-16a34.6,34.6,0,0,1,67.32,16Z"/><path class="f" d="M1499.26,585.42a12.13,12.13,0,0,1,3-7.4,8.84,8.84,0,0,1,3.57-2.41,10.08,10.08,0,0,1,4.31-.48,8.51,8.51,0,0,1,4.13,1.59,8.63,8.63,0,0,1,2.63,3.46,13.53,13.53,0,0,1,.68,8,21.11,21.11,0,0,0-2.31-7.14,6.86,6.86,0,0,0-5.38-3.57,8.19,8.19,0,0,0-6.39,1.87A17.43,17.43,0,0,0,1499.26,585.42Z"/><path class="b" d="M1433.63,518.36c.28-3.52.67-7,1-10.52s.76-7,1.19-10.48.86-7,1.3-10.47,1-7,1.42-10.46l.12-.93.94.06q11.39.72,22.72,1.87,5.67.58,11.32,1.31c3.77.54,7.53,1,11.27,1.73l-22.73-1.41-22.7-1.47,1.07-.87c-.52,3.48-1,7-1.55,10.43s-1.06,7-1.64,10.43-1.16,6.93-1.77,10.4S1434.35,514.91,1433.63,518.36Z"/><path class="b" d="M1439.1,544.93a28.75,28.75,0,0,1,5.26-11.75c.64-.88,1.37-1.7,2.08-2.54s1.55-1.54,2.33-2.31,1.71-1.38,2.58-2,1.85-1.2,2.79-1.77,2-1,3-1.42l3.13-1.08,3.23-.67c1.09-.16,2.19-.19,3.28-.27a31.65,31.65,0,0,1,12.66,2.42,44.89,44.89,0,0,0-12.56-.83,29.45,29.45,0,0,0-11.73,3.64,34.07,34.07,0,0,0-9.52,7.86A38.67,38.67,0,0,0,1439.1,544.93Z"/><path class="b" d="M1529.79,553.81a28.63,28.63,0,0,1,6.84-10.91c.75-.79,1.59-1.49,2.4-2.22s1.75-1.32,2.63-2,1.89-1.13,2.84-1.67,2-.94,3-1.37,2.09-.68,3.15-1l3.24-.64,3.3-.22c1.09,0,2.19.12,3.28.18a31.86,31.86,0,0,1,12.2,4.15,45.09,45.09,0,0,0-12.32-2.55,29.59,29.59,0,0,0-12.12,2,34.41,34.41,0,0,0-10.52,6.47A39.2,39.2,0,0,0,1529.79,553.81Z"/><path class="e" d="M1428.31,659.17c-8.43,0-26.86-1.89-38.73-17.15-15.18-19.51-9.69-57-9.45-58.55l6.59,1c-.06.36-5.29,36.21,8.12,53.46,13.12,16.87,36.91,14.44,37.15,14.42l.75,6.62A42.08,42.08,0,0,1,1428.31,659.17Z"/><path class="i" d="M1428.31,659.17c-8.43,0-26.86-1.89-38.73-17.15-15.18-19.51-9.69-57-9.45-58.55l6.59,1c-.06.36-5.29,36.21,8.12,53.46,13.12,16.87,36.91,14.44,37.15,14.42l.75,6.62A42.08,42.08,0,0,1,1428.31,659.17Z"/><path class="e" d="M1388.66,589a23.3,23.3,0,0,1-3.68-.3c-11.12-1.81-16-8.46-18.21-13.72s-2.68-11.66-1.5-19l14.1,2.29c-.73,4.52-.52,8.51.6,11.23.8,1.94,2.35,4.27,7.29,5.07,2.26.36,4.7.17,7.26-3.69a26.74,26.74,0,0,0,3.57-9.58l14.1,2.28a41.33,41.33,0,0,1-5.77,15.2C1402,585.48,1395.79,589,1388.66,589Z"/><path class="e" d="M1442.23,678.25c0-.31-11.94-2.21-11.94-2.21l-5.79-38.9,14.44-5.71Z"/><path class="h" d="M1442.23,678.25c0-.31-11.94-2.21-11.94-2.21l-5.79-38.9,14.44-5.71Z"/><path class="e" d="M1560.09,678.32c0-.3,12-1.94,12-1.94l6.64-38.77-14.31-6Z"/><path class="h" d="M1560.09,678.32c0-.3,12-1.94,12-1.94l6.64-38.77-14.31-6Z"/><path class="e" d="M1437.27,622.72s96.42-4.12,129,1.31c0,0-9.56,93.29-10.08,95.1,0,0-95.9-.26-110.9,0C1445.27,719.13,1437.15,657.09,1437.27,622.72Z"/><path class="h" d="M1466.56,648.29s52.63-2.08,70.41.66c0,0-5.22,47-5.5,47.95,0,0-52.36-.13-60.54,0C1470.93,696.9,1467.33,664.7,1466.56,648.29Z"/><path class="h" d="M1473.75,696.88l-2.83,0s-3.59-32.2-4.37-48.62l3.29-.11Z"/><path class="e" d="M1489.28,659.89a5.6,5.6,0,1,0,3.65,7A5.61,5.61,0,0,0,1489.28,659.89Zm3,6.82a4.91,4.91,0,1,1-3.21-6.16A4.91,4.91,0,0,1,1492.28,666.71Zm-3-6.82a5.6,5.6,0,1,0,3.65,7A5.61,5.61,0,0,0,1489.28,659.89Zm3,6.82a4.91,4.91,0,1,1-3.21-6.16A4.91,4.91,0,0,1,1492.28,666.71Zm-3-6.82a5.6,5.6,0,1,0,3.65,7A5.61,5.61,0,0,0,1489.28,659.89Zm3,6.82a4.91,4.91,0,1,1-3.21-6.16A4.91,4.91,0,0,1,1492.28,666.71ZM1491.14,654a11.8,11.8,0,1,0,7.7,14.8A11.8,11.8,0,0,0,1491.14,654Zm2.62,13.2a6.47,6.47,0,1,1-4.22-8.11A6.48,6.48,0,0,1,1493.76,667.18Zm-.83-.26a5.6,5.6,0,1,0-7,3.65A5.61,5.61,0,0,0,1492.93,666.92Zm-.65-.21a4.91,4.91,0,1,1-3.21-6.16A4.91,4.91,0,0,1,1492.28,666.71Zm-3-6.82a5.6,5.6,0,1,0,3.65,7A5.61,5.61,0,0,0,1489.28,659.89Zm3,6.82a4.91,4.91,0,1,1-3.21-6.16A4.91,4.91,0,0,1,1492.28,666.71Zm-3-6.82a5.6,5.6,0,1,0,3.65,7A5.61,5.61,0,0,0,1489.28,659.89Zm3,6.82a4.91,4.91,0,1,1-3.21-6.16A4.91,4.91,0,0,1,1492.28,666.71Z"/><polygon class="e" points="1486.36 676.7 1482.03 675.34 1481.3 678.48 1485.15 679.69 1486.36 676.7"/><polygon class="e" points="1478.58 672.65 1476.48 668.63 1473.75 670.33 1475.62 673.91 1478.58 672.65"/><polygon class="e" points="1475.95 664.28 1477.31 659.96 1474.17 659.23 1472.96 663.08 1475.95 664.28"/><polygon class="e" points="1480 656.51 1484.02 654.41 1482.32 651.68 1478.74 653.54 1480 656.51"/><polygon class="e" points="1488.37 653.88 1492.69 655.24 1493.42 652.1 1489.57 650.89 1488.37 653.88"/><polygon class="e" points="1496.14 657.93 1498.24 661.95 1500.97 660.25 1499.11 656.67 1496.14 657.93"/><polygon class="e" points="1498.78 666.29 1497.41 670.62 1500.55 671.35 1501.76 667.5 1498.78 666.29"/><polygon class="e" points="1494.72 674.07 1490.7 676.16 1492.4 678.9 1495.98 677.03 1494.72 674.07"/><path class="j" d="M1508.31,676.36a3.77,3.77,0,1,0,1.1,5.22A3.78,3.78,0,0,0,1508.31,676.36Zm.71,5a3.31,3.31,0,1,1-1-4.57A3.3,3.3,0,0,1,1509,681.32Zm-.71-5a3.77,3.77,0,1,0,1.1,5.22A3.78,3.78,0,0,0,1508.31,676.36Zm.71,5a3.31,3.31,0,1,1-1-4.57A3.3,3.3,0,0,1,1509,681.32Zm-.71-5a3.77,3.77,0,1,0,1.1,5.22A3.78,3.78,0,0,0,1508.31,676.36Zm.71,5a3.31,3.31,0,1,1-1-4.57A3.3,3.3,0,0,1,1509,681.32Zm1.57-8.46a7.95,7.95,0,1,0,2.31,11A8,8,0,0,0,1510.59,672.86Zm-.69,9a4.35,4.35,0,1,1-1.27-6A4.36,4.36,0,0,1,1509.9,681.89Zm-.49-.31a3.77,3.77,0,1,0-5.22,1.1A3.78,3.78,0,0,0,1509.41,681.58Zm-.39-.26a3.31,3.31,0,1,1-1-4.57A3.3,3.3,0,0,1,1509,681.32Zm-.71-5a3.77,3.77,0,1,0,1.1,5.22A3.78,3.78,0,0,0,1508.31,676.36Zm.71,5a3.31,3.31,0,1,1-1-4.57A3.3,3.3,0,0,1,1509,681.32Zm-.71-5a3.77,3.77,0,1,0,1.1,5.22A3.78,3.78,0,0,0,1508.31,676.36Zm.71,5a3.31,3.31,0,1,1-1-4.57A3.3,3.3,0,0,1,1509,681.32Z"/><polygon class="j" points="1503.37 686.73 1500.82 685.07 1499.78 686.97 1502.05 688.45 1503.37 686.73"/><polygon class="j" points="1499.06 682.7 1498.43 679.71 1496.35 680.32 1496.91 682.98 1499.06 682.7"/><polygon class="j" points="1498.87 676.8 1500.54 674.24 1498.63 673.2 1497.15 675.48 1498.87 676.8"/><polygon class="j" points="1502.9 672.49 1505.89 671.86 1505.28 669.78 1502.62 670.34 1502.9 672.49"/><polygon class="j" points="1508.8 672.29 1511.36 673.96 1512.4 672.05 1510.13 670.57 1508.8 672.29"/><polygon class="j" points="1513.12 676.33 1513.75 679.32 1515.83 678.7 1515.27 676.05 1513.12 676.33"/><polygon class="j" points="1513.31 682.23 1511.64 684.79 1513.55 685.83 1515.03 683.55 1513.31 682.23"/><polygon class="j" points="1509.28 686.54 1506.29 687.17 1506.9 689.25 1509.56 688.69 1509.28 686.54"/><polygon class="e" points="1563.93 708.27 1567.63 708.96 1578.23 637.19 1574.01 636.42 1563.93 708.27"/><path class="e" d="M1531.47,696.9,1537,649l37-12.53s-10.08,72.63-10.08,71.85Z"/><path class="i" d="M1531.47,696.9,1537,649l37-12.53s-10.08,72.63-10.08,71.85Z"/><path class="b" d="M1441.7,650.89c-.61-4-.93-8-1.18-12-.11-2-.16-4-.21-6s-.07-4,0-6v-.52l.51,0c7.36-.4,14.72-.88,22.08-1.2s14.72-.69,22.08-.92c-7.34.66-14.68,1.23-22,1.76s-14.7,1-22,1.49l.53-.56,0,6,.07,6q0,3,.1,6Z"/><path class="b" d="M1542.13,649.65q3.45-1.64,7-3t7.12-2.7c2.41-.82,4.82-1.62,7.27-2.3a67.49,67.49,0,0,1,7.44-1.74l.63-.1-.12.59c-.58,3.11-1.19,6.21-1.9,9.29.27-3.16.64-6.29,1-9.42l.51.49c-2.45.58-4.87,1.26-7.29,2s-4.83,1.48-7.24,2.26Z"/><polygon class="f" points="1457.73 622.92 1458.35 634.91 1458.88 646.91 1459.81 670.91 1460.53 694.92 1460.82 706.92 1461.02 718.93 1460.39 706.94 1459.86 694.94 1458.94 670.94 1458.21 646.93 1457.92 634.93 1457.73 622.92"/><path class="f" d="M1454.29,630.15a2.27,2.27,0,0,1-1.55,2.61,2.24,2.24,0,0,1-2.86-1.72,2.25,2.25,0,1,1,4.41-.89Zm0,0a1.89,1.89,0,0,0-.9-1.24,1.81,1.81,0,0,0-2.66,2,1.83,1.83,0,0,0,1.93,1.46,1.85,1.85,0,0,0,1.28-.69A1.88,1.88,0,0,0,1454.29,630.15Z"/><path class="f" d="M1455.12,644.53a2.28,2.28,0,0,1-1.55,2.61,2.26,2.26,0,0,1-2.45-3.54,2.25,2.25,0,0,1,4,.93Zm0,0a1.87,1.87,0,0,0-.91-1.24,1.89,1.89,0,0,0-1.45-.14,1.83,1.83,0,0,0,.72,3.56,1.82,1.82,0,0,0,1.64-2.18Z"/><path class="f" d="M1455.64,659.8a2.25,2.25,0,0,1-1.55,2.6,2.26,2.26,0,1,1,1.55-2.6Zm0,0a1.86,1.86,0,0,0-.9-1.24,1.81,1.81,0,0,0-2.66,2,1.81,1.81,0,0,0,3.21.78A1.88,1.88,0,0,0,1455.64,659.8Z"/><path class="f" d="M1456.16,675.06a2.27,2.27,0,0,1-1.54,2.61,2.26,2.26,0,1,1-.89-4.41A2.24,2.24,0,0,1,1456.16,675.06Zm0,0a1.8,1.8,0,0,0-2.35-1.37,1.82,1.82,0,1,0,2.35,1.37Z"/><path class="f" d="M1456.69,690.33a2.27,2.27,0,0,1-1.55,2.61,2.33,2.33,0,0,1-1.78-.2,2.37,2.37,0,0,1-1.09-1.52,2.3,2.3,0,0,1,.42-1.82,2.25,2.25,0,0,1,1.56-.88A2.28,2.28,0,0,1,1456.69,690.33Zm0,0a1.89,1.89,0,0,0-.9-1.24,1.85,1.85,0,0,0-1.45-.14,1.83,1.83,0,0,0,.71,3.56,1.82,1.82,0,0,0,1.64-2.18Z"/><path class="f" d="M1457.21,705.59a2.25,2.25,0,0,1-3.32,2.41,2.28,2.28,0,0,1-.68-3.34,2.32,2.32,0,0,1,1.56-.87A2.26,2.26,0,0,1,1457.21,705.59Zm0,0a1.82,1.82,0,1,0-1.63,2.19,1.82,1.82,0,0,0,1.63-2.19Z"/><rect class="e" x="1407.1" y="737.06" width="57.04" height="6.67" transform="translate(-153.03 448.22) rotate(-16.86)"/><rect class="i" x="1407.1" y="737.06" width="57.04" height="6.67" transform="translate(-153.03 448.22) rotate(-16.86)"/><rect class="e" x="1430.79" y="735.45" width="6.67" height="9.9" transform="translate(-156.95 469.5) rotate(-17.64)"/><polygon class="e" points="1408.84 761.2 1394.75 700.2 1352.23 710.28 1373.17 769.73 1408.84 761.2"/><polygon class="e" points="1418.28 758.1 1408.84 761.2 1394.75 700.2 1408.32 703.43 1418.28 758.1"/><polygon class="h" points="1418.28 758.1 1408.84 761.2 1394.75 700.2 1408.32 703.43 1418.28 758.1"/><circle class="e" cx="1462.92" cy="732.12" r="7.24"/><rect class="e" x="1560.37" y="711.76" width="6.67" height="57.04" transform="translate(399.04 2019.64) rotate(-73.02)"/><rect class="i" x="1560.37" y="711.76" width="6.67" height="57.04" transform="translate(399.04 2019.64) rotate(-73.02)"/><rect class="e" x="1560.25" y="736.96" width="9.9" height="6.67" transform="matrix(0.31, -0.95, 0.95, 0.31, 382.5, 2004.85)"/><polygon class="e" points="1590.44 761.15 1604.65 700.18 1647.15 710.35 1626.09 769.76 1590.44 761.15"/><polygon class="e" points="1581.01 758.03 1590.44 761.15 1604.65 700.18 1591.08 703.38 1581.01 758.03"/><polygon class="h" points="1581.01 758.03 1590.44 761.15 1604.65 700.18 1591.08 703.38 1581.01 758.03"/><path class="e" d="M1529.19,731.94a7.24,7.24,0,1,0,7.25-7.22A7.22,7.22,0,0,0,1529.19,731.94Z"/><path class="e" d="M1583.8,656.7c.18-.16,17.71-16.42,38.34-10.86,21.09,5.69,38.51,37.46,38.68,37.78l5.86-3.17c-.76-1.41-18.93-34.61-42.81-41-24.29-6.55-43.84,11.68-44.66,12.46Z"/><path class="i" d="M1583.8,656.7c.18-.16,17.71-16.42,38.34-10.86,21.09,5.69,38.51,37.46,38.68,37.78l5.86-3.17c-.76-1.41-18.93-34.61-42.81-41-24.29-6.55-43.84,11.68-44.66,12.46Z"/><path class="e" d="M1653.05,715.61l12.63-6.67a26.57,26.57,0,0,1-2.93-9.8c-.28-4.62,1.56-6.25,3.58-7.31,4.42-2.34,7.06-1.41,8.87-.35,2.53,1.49,5.1,4.55,7.24,8.61l12.63-6.67c-3.45-6.55-7.7-11.34-12.61-14.24s-12.84-5.24-22.8,0c-7.77,4.1-11.73,11.49-11.16,20.8A41.11,41.11,0,0,0,1653.05,715.61Z"/><path class="d" d="M1586.47,634.45c2.74-1.89,5.54-3.68,8.35-5.44s5.66-3.48,8.51-5.17,5.73-3.35,8.65-4.94l4.37-2.39c1.48-.76,2.94-1.55,4.43-2.28-1.36,1-2.76,1.85-4.14,2.77l-4.21,2.67c-2.8,1.78-5.66,3.47-8.51,5.17s-5.73,3.34-8.65,4.94S1589.45,633,1586.47,634.45Z"/><path class="d" d="M1579.21,661.7c3.92,2.23,7.64,4.76,11.31,7.35s7.23,5.31,10.62,8.29a134.11,134.11,0,0,1-11.3-7.35C1586.2,667.37,1582.6,664.68,1579.21,661.7Z"/><path class="d" d="M1585.65,658.35c3,.92,6,2,9,3s5.92,2.17,8.86,3.3,5.87,2.32,8.77,3.56l4.35,1.87c1.43.66,2.88,1.28,4.3,2-1.52-.45-3-1-4.51-1.45l-4.47-1.57c-3-1-5.92-2.17-8.86-3.3s-5.87-2.31-8.76-3.56S1588.5,659.71,1585.65,658.35Z"/><path class="d" d="M1594.25,637c2.9-.75,5.82-1.38,8.74-2s5.87-1.15,8.8-1.68,5.89-1,8.85-1.42l4.44-.62c1.49-.16,3-.36,4.46-.49-1.45.39-2.91.7-4.36,1.06l-4.38.93c-2.93.62-5.87,1.16-8.8,1.68s-5.89,1-8.85,1.42S1597.23,636.72,1594.25,637Z"/><path class="d" d="M1524.36,655.14a30.88,30.88,0,0,1,2.31-6.85,27.29,27.29,0,0,1,3.85-6.14,14.8,14.8,0,0,1,5.85-4.38,10.29,10.29,0,0,1,7.35.08,9.74,9.74,0,0,1,5.24,5.2,11.39,11.39,0,0,1,1,3.62,8.05,8.05,0,0,1-.43,3.81,3.52,3.52,0,0,1-1.29,1.65,2.62,2.62,0,0,1-1,.39,2.37,2.37,0,0,1-1.16-.11,3.24,3.24,0,0,1-1.5-1.52,9,9,0,0,1-.69-1.8,23.72,23.72,0,0,1-.61-7.35,30.28,30.28,0,0,1,4.25-13.92,18.22,18.22,0,0,1,5-5.37,15.31,15.31,0,0,1,6.86-2.65,19.53,19.53,0,0,1,3.66-.32,11.3,11.3,0,0,1,1.84.11,11.1,11.1,0,0,1,1.81.25,22.1,22.1,0,0,1,6.82,2.58,28.83,28.83,0,0,1,5.71,4.47,30.48,30.48,0,0,1,4.49,5.65,31.32,31.32,0,0,0-10.48-9.62,21.6,21.6,0,0,0-6.67-2.36,11.44,11.44,0,0,0-1.75-.2,11.65,11.65,0,0,0-1.77-.07,18.76,18.76,0,0,0-3.5.39,15.16,15.16,0,0,0-6.44,2.59,17.24,17.24,0,0,0-4.73,5.11,29.29,29.29,0,0,0-4,13.43,22.66,22.66,0,0,0,.52,7c.28,1.06.78,2.27,1.52,2.6a1.56,1.56,0,0,0,.27.06,1.29,1.29,0,0,0,.34,0,1.27,1.27,0,0,0,.62-.23,2.38,2.38,0,0,0,.89-1.15,7,7,0,0,0,.38-3.29,10.65,10.65,0,0,0-.87-3.32,9.09,9.09,0,0,0-4.68-4.79,9.46,9.46,0,0,0-6.75-.21,14.45,14.45,0,0,0-5.68,4.06A31.32,31.32,0,0,0,1524.36,655.14Z"/><path class="d" d="M1416.75,685.32a16.45,16.45,0,0,1,4.7-5.4,17.72,17.72,0,0,1,6.53-3.13,14.05,14.05,0,0,1,7.28.15,14.56,14.56,0,0,1,6.22,3.87,18.51,18.51,0,0,1,3.89,6.2,16.91,16.91,0,0,1,1.2,7.26,5.94,5.94,0,0,1-1.35,3.63,2.79,2.79,0,0,1-2,.89,4.17,4.17,0,0,1-2-.46,3.24,3.24,0,0,1-1.44-1.53,5.11,5.11,0,0,1-.44-2,10.53,10.53,0,0,1,.62-3.72,21.41,21.41,0,0,1,3.56-6.41,25.9,25.9,0,0,1,5.28-5.07,19.64,19.64,0,0,1,13.87-3.82,18.44,18.44,0,0,1,12.44,7,25.35,25.35,0,0,1,3.59,6.26,29,29,0,0,1,1.91,6.93,29,29,0,0,0-6-12.82,18.26,18.26,0,0,0-5.41-4.45,18,18,0,0,0-6.67-2,18.92,18.92,0,0,0-13.15,3.76,23.85,23.85,0,0,0-8.37,11,9.7,9.7,0,0,0-.59,3.32,2.83,2.83,0,0,0,1.28,2.57,3.13,3.13,0,0,0,1.45.34,1.7,1.7,0,0,0,1.23-.55,5.1,5.1,0,0,0,1.08-3,16,16,0,0,0-1.11-6.81,18,18,0,0,0-3.63-5.91,13.93,13.93,0,0,0-5.77-3.75,13.27,13.27,0,0,0-6.91-.3A17.89,17.89,0,0,0,1416.75,685.32Z"/><path class="d" d="M1362.87,404.07a31.39,31.39,0,0,0-3.38-13.82A14.46,14.46,0,0,0,1355,385a9.55,9.55,0,0,0-6.61-1.42,9.12,9.12,0,0,0-5.68,3.54,10.91,10.91,0,0,0-1.65,3,7.1,7.1,0,0,0-.41,3.29,2.5,2.5,0,0,0,.58,1.34,1.57,1.57,0,0,0,.55.37c.1.05.23.05.33.09a2.6,2.6,0,0,0,.28,0c.8-.15,1.57-1.2,2.1-2.16a23,23,0,0,0,2.17-6.66,29.21,29.21,0,0,0-.67-14,17.18,17.18,0,0,0-3.37-6.09,15.23,15.23,0,0,0-5.64-4,18.5,18.5,0,0,0-3.31-1.22,12.33,12.33,0,0,0-1.73-.35,11.47,11.47,0,0,0-1.75-.22,21.74,21.74,0,0,0-7,.69,31.44,31.44,0,0,0-12.48,6.85,30,30,0,0,1,5.72-4.42,28.73,28.73,0,0,1,6.61-3,22.6,22.6,0,0,1,7.23-.88,11.26,11.26,0,0,1,1.83.2,11.06,11.06,0,0,1,1.81.32,19.58,19.58,0,0,1,3.48,1.19,15.42,15.42,0,0,1,6,4.21A18.17,18.17,0,0,1,1347,372a30.11,30.11,0,0,1,.8,14.54,23.91,23.91,0,0,1-2.34,7,9.16,9.16,0,0,1-1.1,1.58,3.29,3.29,0,0,1-1.82,1.12,2.47,2.47,0,0,1-1.15-.17,2.42,2.42,0,0,1-.93-.64,3.5,3.5,0,0,1-.86-1.9,8.21,8.21,0,0,1,.49-3.8,11.77,11.77,0,0,1,1.82-3.29,9.83,9.83,0,0,1,6.34-3.8,10.26,10.26,0,0,1,7.15,1.69A14.81,14.81,0,0,1,1360,390a27.31,27.31,0,0,1,2.27,6.89A31.63,31.63,0,0,1,1362.87,404.07Z"/><path class="d" d="M1620,464.82a31.37,31.37,0,0,0-14.23.06,14.43,14.43,0,0,0-6.21,3.18,9.56,9.56,0,0,0-2.91,6.1,9.06,9.06,0,0,0,2.11,6.35,10.73,10.73,0,0,0,2.55,2.3,7.16,7.16,0,0,0,3.1,1.18,2.47,2.47,0,0,0,1.43-.26,1.42,1.42,0,0,0,.49-.45,2.28,2.28,0,0,0,.17-.3c0-.11,0-.18.07-.27,0-.81-.8-1.81-1.62-2.55a22.7,22.7,0,0,0-6-3.66,29.23,29.23,0,0,0-13.77-2.62,17.11,17.11,0,0,0-6.7,1.86,15.1,15.1,0,0,0-5.26,4.54,18,18,0,0,0-2,2.93,11.66,11.66,0,0,0-.75,1.6,11,11,0,0,0-.63,1.65,21.84,21.84,0,0,0-1,7,31.38,31.38,0,0,0,3.74,13.73,30.41,30.41,0,0,1-3-6.58,28.73,28.73,0,0,1-1.36-7.13,22.21,22.21,0,0,1,.84-7.24,11.84,11.84,0,0,1,.61-1.73,12,12,0,0,1,.74-1.68,19.68,19.68,0,0,1,2-3.11,15.4,15.4,0,0,1,5.5-4.88,18,18,0,0,1,7.08-2,30.13,30.13,0,0,1,14.33,2.61,23.59,23.59,0,0,1,6.25,3.91,8.77,8.77,0,0,1,1.28,1.43,3.28,3.28,0,0,1,.67,2,2.4,2.4,0,0,1-.44,1.08,2.48,2.48,0,0,1-.83.75,3.45,3.45,0,0,1-2.06.39,8.09,8.09,0,0,1-3.57-1.36,11.57,11.57,0,0,1-2.77-2.54,9.79,9.79,0,0,1-2.22-7.05,10.25,10.25,0,0,1,3.31-6.56,14.86,14.86,0,0,1,6.57-3.2,27.88,27.88,0,0,1,7.23-.6A31.78,31.78,0,0,1,1620,464.82Z"/><path class="d" d="M1547.93,389.47a19.78,19.78,0,0,1-.45-8.56,21,21,0,0,1,3-8.11,16.76,16.76,0,0,1,6.35-5.93,17.25,17.25,0,0,1,8.52-1.87,22.11,22.11,0,0,1,8.5,2.05,20.35,20.35,0,0,1,7.06,5.19,7.07,7.07,0,0,1,1.86,4.18,3.21,3.21,0,0,1-.91,2.32,4.84,4.84,0,0,1-2,1.26,3.84,3.84,0,0,1-2.46-.1,6.18,6.18,0,0,1-2-1.29,12.59,12.59,0,0,1-2.56-3.67,25.86,25.86,0,0,1-2.31-8.45,30.71,30.71,0,0,1,.27-8.72,23.47,23.47,0,0,1,8.64-14.83,22.31,22.31,0,0,1,7.8-3.88,22.59,22.59,0,0,1,8.66-.55,30.4,30.4,0,0,1,8.32,2.33,34.93,34.93,0,0,1,7.44,4.31,34.74,34.74,0,0,0-15.83-6A21.63,21.63,0,0,0,1574.56,350a24.69,24.69,0,0,0-2.74,7.92,28.6,28.6,0,0,0,2,16.48,11.57,11.57,0,0,0,2.3,3.37,3.48,3.48,0,0,0,3.36,1.15,3.84,3.84,0,0,0,1.57-1,2.16,2.16,0,0,0,.62-1.57,6.12,6.12,0,0,0-1.6-3.52,19.28,19.28,0,0,0-6.68-4.93,21.74,21.74,0,0,0-8.1-2,16.72,16.72,0,0,0-8.12,1.65,16,16,0,0,0-6.19,5.56A21.4,21.4,0,0,0,1547.93,389.47Z"/><path class="k" d="M1412.86,685.57a5,5,0,1,0,3.23,6.21A5,5,0,0,0,1412.86,685.57Zm2.65,6a4.35,4.35,0,1,1-2.83-5.45A4.34,4.34,0,0,1,1415.51,691.6Zm-2.65-6a5,5,0,1,0,3.23,6.21A5,5,0,0,0,1412.86,685.57Zm2.65,6a4.35,4.35,0,1,1-2.83-5.45A4.34,4.34,0,0,1,1415.51,691.6Zm-2.65-6a5,5,0,1,0,3.23,6.21A5,5,0,0,0,1412.86,685.57Zm2.65,6a4.35,4.35,0,1,1-2.83-5.45A4.34,4.34,0,0,1,1415.51,691.6Zm-1-11.26a10.44,10.44,0,1,0,6.81,13.09A10.44,10.44,0,0,0,1414.51,680.34Zm2.31,11.67a5.72,5.72,0,1,1-3.73-7.17A5.71,5.71,0,0,1,1416.82,692Zm-.73-.23a5,5,0,1,0-6.21,3.24A5,5,0,0,0,1416.09,691.78Zm-.58-.18a4.35,4.35,0,1,1-2.83-5.45A4.34,4.34,0,0,1,1415.51,691.6Zm-2.65-6a5,5,0,1,0,3.23,6.21A5,5,0,0,0,1412.86,685.57Zm2.65,6a4.35,4.35,0,1,1-2.83-5.45A4.34,4.34,0,0,1,1415.51,691.6Zm-2.65-6a5,5,0,1,0,3.23,6.21A5,5,0,0,0,1412.86,685.57Zm2.65,6a4.35,4.35,0,1,1-2.83-5.45A4.34,4.34,0,0,1,1415.51,691.6Z"/><polygon class="k" points="1410.27 700.44 1406.44 699.23 1405.8 702.01 1409.21 703.08 1410.27 700.44"/><polygon class="k" points="1403.39 696.86 1401.54 693.3 1399.12 694.8 1400.77 697.97 1403.39 696.86"/><polygon class="k" points="1401.06 689.46 1402.27 685.63 1399.49 684.99 1398.42 688.39 1401.06 689.46"/><polygon class="k" points="1404.65 682.58 1408.21 680.72 1406.7 678.3 1403.53 679.95 1404.65 682.58"/><polygon class="k" points="1412.05 680.25 1415.88 681.45 1416.52 678.68 1413.12 677.6 1412.05 680.25"/><polygon class="k" points="1418.93 683.83 1420.78 687.39 1423.2 685.88 1421.55 682.72 1418.93 683.83"/><polygon class="k" points="1421.26 691.23 1420.05 695.06 1422.83 695.7 1423.9 692.3 1421.26 691.23"/><polygon class="k" points="1417.67 698.11 1414.11 699.97 1415.62 702.38 1418.79 700.73 1417.67 698.11"/><path class="d" d="M1605.94,652.3a16,16,0,1,0-22.31,3.3A16,16,0,0,0,1605.94,652.3Zm-6.82-5.07a7.45,7.45,0,1,1-1.55-10.42A7.45,7.45,0,0,1,1599.12,647.23Z"/><polygon class="d" points="1586.48 656.9 1581.56 653.24 1579.24 656.93 1583.62 660.18 1586.48 656.9"/><polygon class="d" points="1578.34 648.28 1577.44 642.21 1573.19 643.18 1573.99 648.58 1578.34 648.28"/><polygon class="d" points="1578.67 636.43 1582.33 631.5 1578.64 629.18 1575.39 633.57 1578.67 636.43"/><polygon class="d" points="1587.29 628.28 1593.36 627.38 1592.39 623.14 1586.99 623.94 1587.29 628.28"/><polygon class="d" points="1599.15 628.62 1604.07 632.27 1606.39 628.58 1602.01 625.33 1599.15 628.62"/><polygon class="d" points="1607.29 637.24 1608.19 643.3 1612.43 642.33 1611.64 636.93 1607.29 637.24"/><polygon class="d" points="1606.95 649.09 1603.3 654.01 1606.99 656.33 1610.24 651.95 1606.95 649.09"/><polygon class="d" points="1598.34 657.23 1592.27 658.13 1593.24 662.38 1598.64 661.58 1598.34 657.23"/><path class="d" d="M1587.42,643.56l3.39,4.27,5.39-.8,2-5.07-3.39-4.27-5.4.79Zm6.42-2.19a1.73,1.73,0,1,1-2.41.36A1.73,1.73,0,0,1,1593.84,641.37Z"/><path class="d" d="M1617.9,341.64a4.33,4.33,0,1,0,2.83,5.44A4.33,4.33,0,0,0,1617.9,341.64Zm2.33,5.28a3.81,3.81,0,1,1-2.48-4.77A3.81,3.81,0,0,1,1620.23,346.92Zm-2.33-5.28a4.33,4.33,0,1,0,2.83,5.44A4.33,4.33,0,0,0,1617.9,341.64Zm2.33,5.28a3.81,3.81,0,1,1-2.48-4.77A3.81,3.81,0,0,1,1620.23,346.92Zm-2.33-5.28a4.33,4.33,0,1,0,2.83,5.44A4.33,4.33,0,0,0,1617.9,341.64Zm2.33,5.28a3.81,3.81,0,1,1-2.48-4.77A3.81,3.81,0,0,1,1620.23,346.92Zm-.88-9.86a9.14,9.14,0,1,0,6,11.46A9.14,9.14,0,0,0,1619.35,337.06Zm2,10.22a5,5,0,1,1-3.27-6.28A5,5,0,0,1,1621.38,347.28Zm-.65-.2a4.33,4.33,0,1,0-5.43,2.83A4.33,4.33,0,0,0,1620.73,347.08Zm-.5-.16a3.81,3.81,0,1,1-2.48-4.77A3.81,3.81,0,0,1,1620.23,346.92Zm-2.33-5.28a4.33,4.33,0,1,0,2.83,5.44A4.33,4.33,0,0,0,1617.9,341.64Zm2.33,5.28a3.81,3.81,0,1,1-2.48-4.77A3.81,3.81,0,0,1,1620.23,346.92Zm-2.33-5.28a4.33,4.33,0,1,0,2.83,5.44A4.33,4.33,0,0,0,1617.9,341.64Zm2.33,5.28a3.81,3.81,0,1,1-2.48-4.77A3.81,3.81,0,0,1,1620.23,346.92Z"/><polygon class="d" points="1615.64 354.65 1612.3 353.6 1611.73 356.03 1614.71 356.96 1615.64 354.65"/><polygon class="d" points="1609.63 351.51 1608 348.4 1605.89 349.72 1607.33 352.49 1609.63 351.51"/><polygon class="d" points="1607.59 345.04 1608.64 341.69 1606.21 341.13 1605.28 344.11 1607.59 345.04"/><polygon class="d" points="1610.72 339.02 1613.84 337.4 1612.52 335.28 1609.75 336.73 1610.72 339.02"/><polygon class="d" points="1617.2 336.98 1620.55 338.04 1621.11 335.61 1618.13 334.67 1617.2 336.98"/><polygon class="d" points="1623.22 340.12 1624.84 343.23 1626.96 341.91 1625.51 339.14 1623.22 340.12"/><polygon class="d" points="1625.26 346.6 1624.2 349.94 1626.63 350.51 1627.57 347.53 1625.26 346.6"/><polygon class="d" points="1622.12 352.61 1619.01 354.24 1620.33 356.35 1623.1 354.91 1622.12 352.61"/><path class="d" d="M1573.4,508a4.33,4.33,0,1,0,2.83,5.44A4.34,4.34,0,0,0,1573.4,508Zm2.32,5.28a3.8,3.8,0,1,1-2.48-4.77A3.8,3.8,0,0,1,1575.72,513.3ZM1573.4,508a4.33,4.33,0,1,0,2.83,5.44A4.34,4.34,0,0,0,1573.4,508Zm2.32,5.28a3.8,3.8,0,1,1-2.48-4.77A3.8,3.8,0,0,1,1575.72,513.3ZM1573.4,508a4.33,4.33,0,1,0,2.83,5.44A4.34,4.34,0,0,0,1573.4,508Zm2.32,5.28a3.8,3.8,0,1,1-2.48-4.77A3.8,3.8,0,0,1,1575.72,513.3Zm-.88-9.86a9.14,9.14,0,1,0,6,11.46A9.15,9.15,0,0,0,1574.84,503.44Zm2,10.22a5,5,0,1,1-3.27-6.28A5,5,0,0,1,1576.87,513.66Zm-.64-.2a4.34,4.34,0,1,0-5.43,2.83A4.34,4.34,0,0,0,1576.23,513.46Zm-.51-.16a3.8,3.8,0,1,1-2.48-4.77A3.8,3.8,0,0,1,1575.72,513.3ZM1573.4,508a4.33,4.33,0,1,0,2.83,5.44A4.34,4.34,0,0,0,1573.4,508Zm2.32,5.28a3.8,3.8,0,1,1-2.48-4.77A3.8,3.8,0,0,1,1575.72,513.3ZM1573.4,508a4.33,4.33,0,1,0,2.83,5.44A4.34,4.34,0,0,0,1573.4,508Zm2.32,5.28a3.8,3.8,0,1,1-2.48-4.77A3.8,3.8,0,0,1,1575.72,513.3Z"/><polygon class="d" points="1571.14 521.03 1567.79 519.98 1567.23 522.41 1570.21 523.35 1571.14 521.03"/><polygon class="d" points="1565.12 517.9 1563.5 514.78 1561.38 516.1 1562.83 518.87 1565.12 517.9"/><polygon class="d" points="1563.08 511.42 1564.14 508.07 1561.71 507.51 1560.77 510.49 1563.08 511.42"/><polygon class="d" points="1566.22 505.4 1569.33 503.78 1568.01 501.66 1565.24 503.11 1566.22 505.4"/><polygon class="d" points="1572.69 503.36 1576.04 504.42 1576.61 501.99 1573.63 501.05 1572.69 503.36"/><polygon class="d" points="1578.71 506.5 1580.34 509.62 1582.45 508.29 1581.01 505.52 1578.71 506.5"/><polygon class="d" points="1580.75 512.98 1579.7 516.33 1582.13 516.89 1583.06 513.91 1580.75 512.98"/><polygon class="d" points="1577.61 519 1574.5 520.62 1575.82 522.73 1578.59 521.29 1577.61 519"/><path class="d" d="M1318.69,377a13.74,13.74,0,1,0-16.59,10.09A13.74,13.74,0,0,0,1318.69,377Zm-7.11-1.74a6.42,6.42,0,1,1-4.71-7.75A6.41,6.41,0,0,1,1311.58,375.3Z"/><polygon class="d" points="1304.8 387.2 1299.66 385.95 1299.06 389.66 1303.63 390.77 1304.8 387.2"/><polygon class="d" points="1295.45 383.1 1292.7 378.58 1289.66 380.77 1292.1 384.79 1295.45 383.1"/><polygon class="d" points="1291.74 373.58 1293 368.45 1289.29 367.85 1288.18 372.41 1291.74 373.58"/><polygon class="d" points="1295.86 364.23 1300.37 361.49 1298.17 358.44 1294.16 360.89 1295.86 364.23"/><polygon class="d" points="1305.37 360.53 1310.5 361.78 1311.1 358.08 1306.54 356.96 1305.37 360.53"/><polygon class="d" points="1314.72 364.64 1317.46 369.15 1320.51 366.96 1318.06 362.94 1314.72 364.64"/><polygon class="d" points="1318.42 374.15 1317.17 379.29 1320.87 379.89 1321.98 375.32 1318.42 374.15"/><polygon class="d" points="1314.31 383.5 1309.8 386.25 1311.99 389.29 1316.01 386.85 1314.31 383.5"/><path class="d" d="M1301.07,376.31l4.12,2.25,4-2.44-.11-4.69-4.11-2.26-4,2.44Zm4.36-3.89a1.49,1.49,0,1,1-1.79,1.09A1.49,1.49,0,0,1,1305.43,372.42Z"/></svg>