<svg xmlns="http://www.w3.org/2000/svg" viewBox="0 0 1600 448.03"><title>Untitled-3</title><path d="M1600,358c-23,21-93,84-193,49-63.44-22.2-86-38-140-38-107,0-124,45.72-228,48-74.23,1.63-110-21.89-195-31-103.13-11.05-180,39.43-301,34-127-5.69-114-36.31-219-42-77.44-4.2-91.81,25-171,40C68.23,434.05,0,356,0,354V272H1600Zm0-358H0V272H1600Z" style="fill:#515251;opacity:0.8"/><path d="M1599.49,448c-71.17-93.21-96.7-103.42-119.38-108.12-91.44-19-157.78,106.46-212.27,107.69-74.81,1.7-149.66-108.27-224.49-108.38C932.27,339.05,876.73,447,803.45,446.93c-83.34,0-151.7-108.06-242.94-107.85-118.71.27-178.06,108.4-246.88,109-69.25.56-108.48-106.87-177.41-107C78.69,341,31.55,448.45.51,448V.07h1599Z" style="fill:#e0e0e0;opacity:0.95"/></svg>