<svg id="bff1f9c2-4e52-494e-a841-fbab246c829d" data-name="Layer 1" xmlns="http://www.w3.org/2000/svg" viewBox="0 0 3573.67 565.72"><title>waves-2</title><path d="M101.81,163a15.16,15.16,0,0,0-15,15.3v209.2a15,15,0,1,0,30,0V178.26A15.15,15.15,0,0,0,101.81,163Z"/><path d="M169.21,47.81a15.09,15.09,0,0,0-15,15.16V502.75a15,15,0,1,0,29.93,0V63A15.08,15.08,0,0,0,169.21,47.81Z"/><path d="M236.6,127.65a15.15,15.15,0,0,0-15,15.31v279.8a15,15,0,1,0,30,0V143A15.16,15.16,0,0,0,236.6,127.65Z"/><path d="M304,227.68a15.09,15.09,0,0,0-15,15.16v80a15,15,0,1,0,30,0v-80A15.09,15.09,0,0,0,304,227.68Z"/><path d="M371.41,150.5a15.18,15.18,0,0,0-15,15.34v234a15,15,0,1,0,29.95,0v-234A15.18,15.18,0,0,0,371.41,150.5Z"/><path d="M438.8,151.94a15.09,15.09,0,0,0-15,15.16V398.62a15,15,0,1,0,29.94,0V167.1A15.09,15.09,0,0,0,438.8,151.94Z"/><path d="M506.21,0a15.18,15.18,0,0,0-15,15.33V550.39a15,15,0,1,0,30,0V15.33A15.18,15.18,0,0,0,506.21,0Z"/><path d="M573.62,90.81a15.09,15.09,0,0,0-15,15.16V459.75a15,15,0,1,0,30,0V106A15.09,15.09,0,0,0,573.62,90.81Z"/><path d="M641,184a15.18,15.18,0,0,0-15,15.33V366.43a15,15,0,1,0,29.93,0V199.29A15.17,15.17,0,0,0,641,184Z"/><path d="M708.41,251.16c-8.26,0-15,7-15,15.53V299c0,8.55,6.71,15.53,15,15.53s15-7,15-15.53V266.69C723.39,258.13,716.67,251.16,708.41,251.16Z"/><path d="M775.82,184a15.18,15.18,0,0,0-15,15.33V366.43a15,15,0,1,0,29.95,0V199.29A15.18,15.18,0,0,0,775.82,184Z"/><path d="M843.22,170.77a15.09,15.09,0,0,0-15,15.16V379.79a15,15,0,1,0,29.94,0V185.93A15.09,15.09,0,0,0,843.22,170.77Z"/><path d="M910.61,44.2a15.17,15.17,0,0,0-15,15.33V506.19a15,15,0,1,0,30,0V59.53A15.18,15.18,0,0,0,910.61,44.2Z"/><path d="M978,29.78a15.09,15.09,0,0,0-15,15.16V520.78a15,15,0,1,0,29.94,0V44.94A15.09,15.09,0,0,0,978,29.78Z"/><path d="M1045.42,80.5a15.18,15.18,0,0,0-15,15.33V469.89a15,15,0,1,0,30,0V95.83A15.18,15.18,0,0,0,1045.42,80.5Z"/><path d="M1112.82,178.63a15.09,15.09,0,0,0-15,15.16V371.93a15,15,0,1,0,29.94,0V193.79A15.09,15.09,0,0,0,1112.82,178.63Z"/><path d="M1180.22,240.53a15.15,15.15,0,0,0-15,15.31v54a15,15,0,1,0,30,0v-54A15.16,15.16,0,0,0,1180.22,240.53Z"/><path d="M1247.63,151.94a15.09,15.09,0,0,0-15,15.16V398.62a15,15,0,1,0,29.95,0V167.1A15.09,15.09,0,0,0,1247.63,151.94Z"/><path d="M1315,57.86a15.17,15.17,0,0,0-15,15.33V492.53a15,15,0,1,0,29.93,0V73.19A15.18,15.18,0,0,0,1315,57.86Z"/><path d="M1382.42,201.75a15.08,15.08,0,0,0-15,15.15V348.81a15,15,0,1,0,29.94,0V216.9A15.08,15.08,0,0,0,1382.42,201.75Z"/><path d="M1449.83,142.56a15.18,15.18,0,0,0-15,15.33V407.83a15,15,0,1,0,29.94,0V157.89A15.18,15.18,0,0,0,1449.83,142.56Z"/><path d="M1517.22,101.5a15.09,15.09,0,0,0-15,15.16v332.4a15,15,0,1,0,30,0V116.66A15.09,15.09,0,0,0,1517.22,101.5Z"/><path d="M1584.62,10a15.18,15.18,0,0,0-15,15.33V540.39a15,15,0,1,0,29.95,0V25.33A15.18,15.18,0,0,0,1584.62,10Z"/><path d="M1652,170.77a15.09,15.09,0,0,0-15,15.16V379.79a15,15,0,1,0,30,0V185.93A15.09,15.09,0,0,0,1652,170.77Z"/><path d="M1719.44,224.78a15.18,15.18,0,0,0-15,15.33v85.5a15,15,0,1,0,30,0v-85.5A15.18,15.18,0,0,0,1719.44,224.78Z"/><path d="M1786.83,241a15.08,15.08,0,0,0-15,15.16v53.32a15,15,0,1,0,29.93,0V256.2A15.09,15.09,0,0,0,1786.83,241Z"/><path d="M1854.24,154.83a15.18,15.18,0,0,0-15,15.33v225.4a15,15,0,1,0,30,0V170.16A15.18,15.18,0,0,0,1854.24,154.83Z"/><path d="M1921.64,164.33a15.09,15.09,0,0,0-15,15.16V386.23a15,15,0,1,0,29.94,0V179.49A15.09,15.09,0,0,0,1921.64,164.33Z"/><path d="M1989,45.12a15.18,15.18,0,0,0-15,15.33V505.27a15,15,0,1,0,29.94,0V60.45A15.18,15.18,0,0,0,1989,45.12Z"/><path d="M2056.43,129.42a15.09,15.09,0,0,0-15,15.16V421.14a15,15,0,1,0,29.94,0V144.58A15.09,15.09,0,0,0,2056.43,129.42Z"/><path d="M2123.84,227a15.15,15.15,0,0,0-15,15.31v81.06a15,15,0,1,0,29.93,0V242.33A15.16,15.16,0,0,0,2123.84,227Z"/><path d="M2191.23,152a15.08,15.08,0,0,0-15,15.15V398.55a15,15,0,1,0,29.94,0V167.17A15.09,15.09,0,0,0,2191.23,152Z"/><path d="M2258.63,150.42a15.18,15.18,0,0,0-15,15.34V400a15,15,0,1,0,29.94,0V165.76A15.18,15.18,0,0,0,2258.63,150.42Z"/><path d="M2326,3.19a15.09,15.09,0,0,0-15,15.16v529a15,15,0,1,0,29.95,0v-529A15.09,15.09,0,0,0,2326,3.19Z"/><path d="M2393.45,88.6a15.18,15.18,0,0,0-15,15.33V461.79a15,15,0,1,0,29.93,0V103.93A15.17,15.17,0,0,0,2393.45,88.6Z"/><path d="M2460.84,185.1a15.09,15.09,0,0,0-15,15.16v165.2a15,15,0,1,0,29.95,0V200.26A15.09,15.09,0,0,0,2460.84,185.1Z"/><path d="M2528.24,251.67a15.17,15.17,0,0,0-15,15.33v31.72a15,15,0,1,0,29.94,0V267A15.17,15.17,0,0,0,2528.24,251.67Z"/><path d="M2595.64,185.1a15.08,15.08,0,0,0-15,15.16v165.2a15,15,0,1,0,29.94,0V200.26A15.09,15.09,0,0,0,2595.64,185.1Z"/><path d="M2663,169.45a15.18,15.18,0,0,0-15,15.33V380.94a15,15,0,1,0,29.94,0V184.78A15.18,15.18,0,0,0,2663,169.45Z"/><path d="M2730.44,46.89a15.09,15.09,0,0,0-15,15.16V503.67a15,15,0,1,0,29.94,0V62.05A15.09,15.09,0,0,0,2730.44,46.89Z"/><path d="M2797.85,26.89a15.17,15.17,0,0,0-15,15.33V523.5a15,15,0,1,0,29.95,0V42.22A15.18,15.18,0,0,0,2797.85,26.89Z"/><path d="M2865.25,82.8a15.09,15.09,0,0,0-15,15.15V467.76a15,15,0,1,0,29.93,0V98A15.08,15.08,0,0,0,2865.25,82.8Z"/><path d="M2932.65,177.42a15.16,15.16,0,0,0-15,15.3V373a15,15,0,1,0,29.95,0V192.72A15.16,15.16,0,0,0,2932.65,177.42Z"/><path d="M3000.05,241a15.09,15.09,0,0,0-15,15.16v53.32a15,15,0,1,0,29.94,0V256.2A15.09,15.09,0,0,0,3000.05,241Z"/><path d="M3067.45,150.42a15.18,15.18,0,0,0-15,15.34V400a15,15,0,1,0,29.93,0V165.76A15.18,15.18,0,0,0,3067.45,150.42Z"/><path d="M3134.85,60.41a15.09,15.09,0,0,0-15,15.16V490.15a15,15,0,1,0,29.94,0V75.57A15.09,15.09,0,0,0,3134.85,60.41Z"/><path d="M3202.25,200.8a15.18,15.18,0,0,0-15,15.33V349.59a15,15,0,1,0,29.94,0V216.13A15.17,15.17,0,0,0,3202.25,200.8Z"/><path d="M3269.64,144.16a15.08,15.08,0,0,0-14.95,15.16V406.4a15,15,0,1,0,29.92,0V159.32A15.09,15.09,0,0,0,3269.64,144.16Z"/><path d="M3337.05,99.42a15.18,15.18,0,0,0-15,15.33V451a15,15,0,1,0,29.94,0V114.75A15.18,15.18,0,0,0,3337.05,99.42Z"/><path d="M3404.45,13.08a15.09,15.09,0,0,0-15,15.16V537.48a15,15,0,1,0,29.95,0V28.24A15.09,15.09,0,0,0,3404.45,13.08Z"/><path d="M3471.86,169.45a15.18,15.18,0,0,0-15,15.33V380.94a15,15,0,1,0,29.94,0V184.78A15.18,15.18,0,0,0,3471.86,169.45Z"/><rect y="267.89" width="86.83" height="29.95"/><rect x="3486.83" y="267.89" width="86.83" height="29.95"/></svg>