<svg id="bc708f21-358d-4650-a5ca-681b4d47e164" data-name="Layer 1" xmlns="http://www.w3.org/2000/svg" viewBox="0 0 4640 833.29"><title>waves-01</title><rect x="460.74" y="15.75" width="44" height="801.79" rx="21.98" style="fill:#6d009b"/><rect x="528.74" y="331.13" width="44" height="171.03" rx="21.98" style="fill:#6d009b"/><rect x="595.39" y="331.13" width="44" height="171.03" rx="21.98" style="fill:#6d009b"/><rect x="665.15" y="245.61" width="44" height="342.07" rx="21.98" style="fill:#6d009b"/><rect x="738.39" y="288.37" width="44" height="256.55" rx="21.98" style="fill:#6d009b"/><rect x="810.8" y="270" width="44" height="293.29" rx="21.98" style="fill:#6d009b"/><rect x="885.03" y="311.9" width="44" height="209.49" rx="21.98" style="fill:#6d009b"/><rect x="964.09" y="270" width="44" height="293.29" rx="21.98" style="fill:#6d009b"/><rect x="1038.97" y="332.85" width="44" height="167.6" rx="21.98" style="fill:#6d009b"/><rect x="1113.5" y="288.37" width="44" height="256.55" rx="21.98" style="fill:#6d009b"/><path d="M1207.74,581.29h0a22,22,0,0,1-22-22V274a22,22,0,0,1,22-22h0a22,22,0,0,1,22,22V559.32A22,22,0,0,1,1207.74,581.29Z" style="fill:#6d009b"/><rect x="1254.8" y="201.65" width="44" height="430" rx="21.98" style="fill:#6d009b"/><rect x="1329.62" y="75.26" width="40.68" height="682.77" rx="20.34" style="fill:#6d009b"/><path d="M1413.53,806.29h0A20.38,20.38,0,0,1,1393.21,786V47.32A20.38,20.38,0,0,1,1413.53,27h0a20.37,20.37,0,0,1,20.32,20.32V786A20.37,20.37,0,0,1,1413.53,806.29Z" style="fill:#6d009b"/><path d="M1476.4,785.32h0A20.4,20.4,0,0,1,1456.06,765V68.32A20.4,20.4,0,0,1,1476.4,48h0a20.4,20.4,0,0,1,20.34,20.34V765A20.4,20.4,0,0,1,1476.4,785.32Z" style="fill:#6d009b"/><rect x="1528.15" y="181.65" width="44" height="470" rx="21.98" style="fill:#6d009b"/><rect x="1596.15" y="241.65" width="44" height="350" rx="21.98" style="fill:#6d009b"/><rect x="1664.91" y="316.65" width="44" height="200" rx="21.98" style="fill:#6d009b"/><rect x="1732.91" y="291.65" width="44" height="250" rx="21.98" style="fill:#6d009b"/><rect x="1804.21" y="201.65" width="44" height="430" rx="21.98" style="fill:#6d009b"/><rect x="1872.21" y="256.65" width="44" height="320" rx="21.98" style="fill:#6d009b"/><rect x="1940.97" y="201.65" width="44" height="430" rx="21.98" style="fill:#6d009b"/><rect x="2008.97" y="266.65" width="44" height="300" rx="21.98" style="fill:#6d009b"/><rect x="2077.56" y="306.65" width="44" height="220" rx="21.98" style="fill:#6d009b"/><rect x="2145.56" y="186.65" width="44" height="460" rx="21.98" style="fill:#6d009b"/><path d="M2237.29,587h0a21.44,21.44,0,0,1-21.38-21.38v-298a21.44,21.44,0,0,1,21.38-21.38h0a21.44,21.44,0,0,1,21.37,21.38v298A21.44,21.44,0,0,1,2237.29,587Z" style="fill:#6d009b"/><path d="M2303.36,775.18h0A21.44,21.44,0,0,1,2282,753.81V79.49a21.44,21.44,0,0,1,21.38-21.38h0a21.44,21.44,0,0,1,21.38,21.38V753.81A21.44,21.44,0,0,1,2303.36,775.18Z" style="fill:#6d009b"/><rect x="2351.62" width="44" height="833.29" rx="21.98" style="fill:#6d009b"/><rect x="2419.62" y="68.18" width="44" height="696.94" rx="21.98" style="fill:#6d009b"/><rect x="2488.41" y="216" width="43.95" height="401.29" rx="21.98" style="fill:#6d009b"/><rect x="2556.38" y="266.65" width="44" height="300" rx="21.98" style="fill:#6d009b"/><rect x="2624.97" y="241.65" width="44" height="350" rx="21.98" style="fill:#6d009b"/><rect x="2692.97" y="341.65" width="44" height="150" rx="21.98" style="fill:#6d009b"/><rect x="2761.73" y="366.65" width="44" height="100" rx="21.98" style="fill:#6d009b"/><rect x="2829.73" y="306.65" width="44" height="220" rx="21.98" style="fill:#6d009b"/><rect x="2901.03" y="201.65" width="44" height="430" rx="21.98" style="fill:#6d009b"/><rect x="2969.03" y="316.65" width="44" height="200" rx="21.98" style="fill:#6d009b"/><rect x="3034.85" y="297" width="46.32" height="239.29" rx="21.98" style="fill:#6d009b"/><rect x="3106.42" y="310.91" width="46.32" height="211.47" rx="21.98" style="fill:#6d009b"/><rect x="3174.38" y="226.65" width="44" height="380" rx="21.98" style="fill:#6d009b"/><rect x="3242.38" y="276.65" width="44" height="280" rx="21.98" style="fill:#6d009b"/><rect x="3311.15" y="341.65" width="44" height="150" rx="21.98" style="fill:#6d009b"/><rect x="3379.14" y="291.65" width="44" height="250" rx="21.98" style="fill:#6d009b"/><rect x="3448.5" y="236.65" width="44" height="360" rx="21.98" style="fill:#6d009b"/><rect x="3516.5" y="116.65" width="44" height="600" rx="21.98" style="fill:#6d009b"/><rect x="3585.26" y="66.65" width="44" height="700" rx="21.98" style="fill:#6d009b"/><path d="M3675.94,752.29h0a21.63,21.63,0,0,1-21.57-21.56V102.57A21.63,21.63,0,0,1,3675.94,81h0a21.62,21.62,0,0,1,21.56,21.57V730.73A21.62,21.62,0,0,1,3675.94,752.29Z" style="fill:#6d009b"/><rect x="3721.61" y="131.98" width="43.13" height="569.32" rx="21.57" style="fill:#6d009b"/><path d="M3811.85,599.29h0a22,22,0,0,1-22-22V256a22,22,0,0,1,22-22h0a22,22,0,0,1,22,22V577.32A22,22,0,0,1,3811.85,599.29Z" style="fill:#6d009b"/><rect x="3858.61" y="341.65" width="44" height="150" rx="21.98" style="fill:#6d009b"/><rect x="3926.61" y="341.65" width="44" height="150" rx="21.98" style="fill:#6d009b"/><rect x="3997.91" y="226.65" width="44" height="380" rx="21.98" style="fill:#6d009b"/><path d="M4087.91,779.29h0a22,22,0,0,1-22-22V76a22,22,0,0,1,22-22h0a22,22,0,0,1,22,22V757.32A22,22,0,0,1,4087.91,779.29Z" style="fill:#6d009b"/><rect x="4134.67" y="316.65" width="44" height="200" rx="21.98" style="fill:#6d009b"/><rect x="4202.67" y="236.65" width="44" height="360" rx="21.98" style="fill:#6d009b"/><rect x="4271.26" y="159.15" width="44" height="515" rx="21.98" style="fill:#6d009b"/><rect x="4339.26" y="246.65" width="44" height="340" rx="21.98" style="fill:#6d009b"/><rect x="4408.03" y="366.65" width="44" height="100" rx="21.98" style="fill:#6d009b"/><rect x="392.97" y="223.58" width="44" height="393.38" rx="21.98" style="fill:#6d009b"/><rect x="323.09" y="155.52" width="44" height="515" rx="21.98" style="fill:#6d009b"/><rect x="251.09" y="243.02" width="44" height="340" rx="21.98" style="fill:#6d009b"/><rect x="185.97" y="363.02" width="44" height="100" rx="21.98" style="fill:#6d009b"/><rect y="398.65" width="187" height="26" style="fill:#6d009b"/><rect x="4453" y="403.65" width="187" height="26" style="fill:#6d009b"/></svg>