<svg id="a53eb47a-a835-4da3-be30-0c5b78276498" data-name="Layer 1" xmlns="http://www.w3.org/2000/svg" xmlns:xlink="http://www.w3.org/1999/xlink" viewBox="0 0 1600 600">
  <defs>
    <clipPath id="b174e8a6-9ab4-417b-8c60-dcd9c34ad9f3">
      <path d="M242.89,600.51H.89v-236c194-105,246.56-89,221-89,42.16,0-1,57,3,100,1,35,86.21,52.16,87,87C312.77,501,242,546,242.89,600.51Z" style="fill: none"/>
    </clipPath>
    <clipPath id="a8ccb1c5-1a19-44d9-b3ab-af339436cb1d">
      <path d="M256.89,116.39A23.54,23.54,0,0,0,230,93.12c-35.5,5-64,40.56-98.1,53.39-43.1,16.21-87.9-13.2-131,3v183c40.42,0,106.89-49.2,150-63,25.7-8.22,58.27-16.2,86.3-8.23C260.53,267.91,281.8,246,273.8,223c-8.75-25.06-16.91-49.83-16.91-70.53Z" style="fill: none"/>
    </clipPath>
    <clipPath id="b2401fb6-d6d1-43c6-a09b-c529b3e884b8">
      <path d="M285.89.51l-286-1v119c38,0,73,9,111,9,52,0,106.54-72.47,159-85.88a21.26,21.26,0,0,0,16-20.62Z" style="fill: none"/>
    </clipPath>
    <clipPath id="bb0be7b5-dd64-4901-acfb-35666d73eb1d">
      <path d="M566.52,337.46c.92-13.13-12-23-24.51-18.84C489.14,336,432.75,386.2,418.24,338.26,378.76,207.75,366,358.93,259.92,335c-14.22-3.21-19.81,19.09-7,26.1,43.51,23.88,87.53,57.37,87.53,91.5,0,46-75.59,101.94-75.59,148,93.33,0,163.24-.06,256.57-.06,11.35-40.39-18.95-88,24.22-107.48,30.68-13.84,46.47-48.26,37.72-80.75C575.8,384.26,565.14,357,566.52,337.46Z" style="fill: none"/>
    </clipPath>
    <clipPath id="ba228a89-517f-4ebd-86dd-41d2325e71d9">
      <path d="M545.49,191.1a12.12,12.12,0,0,1-.59,5c-5.66,18.32,51.46,80.55,40.1,94.87s-35.9,4.48-51.2,11.47A137.53,137.53,0,0,1,505,311.65c-16.49,3.49-29.09,8.06-37.55,13.46-30.09,19.2-30.26-15.7-42.75-35.85a51,51,0,0,0-60.62-21.06,12.51,12.51,0,0,0-1.45.64L286,309c-11.66,6.21-30.52,3.27-31.31-9.92C253,271,313.25,280.49,286,169c-33-135,5-61,22-164l1-5H499.91a11.47,11.47,0,0,1,10.42,6.74C525.19,39.14,589.47,69.26,597,102,605.06,137,541.34,156.89,545.49,191.1Z" style="fill: none"/>
    </clipPath>
    <clipPath id="e8b57ff3-b9a0-4f5d-aa10-78267a50a142">
      <path d="M1357.18,600.35h242v-236c-194-105-246.56-89-221-89-42.16,0,1,57-3,100-1,35-86.21,52.16-87,87C1287.3,500.84,1358.05,545.85,1357.18,600.35Z" style="fill: none"/>
    </clipPath>
    <clipPath id="bd159d18-be4b-4847-8218-7c4398823695">
      <path d="M1343.18,116.22A23.54,23.54,0,0,1,1370.08,93c35.49,5,64,40.57,98.1,53.4,43.1,16.2,87.9-13.21,131,3v183c-40.42,0-106.9-49.21-150-63-25.7-8.23-58.27-16.21-86.31-8.24-23.33,6.63-44.6-15.33-36.6-38.23,8.75-25.07,16.91-49.84,16.91-70.53Z" style="fill: none"/>
    </clipPath>
    <clipPath id="ad7dbe3f-b104-4753-a86e-4b7beb2005fd">
      <path d="M1314.18.35l286-1v119c-38,0-73,9-111,9-52,0-106.55-72.48-159-85.89a21.25,21.25,0,0,1-16-20.62Z" style="fill: none"/>
    </clipPath>
    <clipPath id="a394bd98-4b06-4f96-bf09-b7415840c573">
      <path d="M1033.55,337.29c-.93-13.13,12-23,24.51-18.84,52.87,17.42,109.26,67.58,123.76,19.64,39.49-130.5,52.27,20.67,158.33-3.25,14.22-3.21,19.81,19.09,7,26.11-43.52,23.87-87.53,57.37-87.53,91.49,0,46.05,75.58,101.94,75.58,148-93.33,0-163.23-.06-256.56-.06-11.36-40.38,18.95-88-24.22-107.48-30.68-13.83-46.47-48.25-37.72-80.75C1024.27,384.1,1034.93,356.84,1033.55,337.29Z" style="fill: none"/>
    </clipPath>
    <clipPath id="b40fef7d-dcdc-4dff-864a-f36987a52806">
      <path d="M1054.58,190.93a12.19,12.19,0,0,0,.59,5c5.66,18.31-51.46,80.54-40.1,94.86s35.9,4.49,51.2,11.47a137.37,137.37,0,0,0,28.79,9.19c16.49,3.48,29.08,8.05,37.55,13.45,30.09,19.2,30.26-15.69,42.75-35.84A51,51,0,0,1,1236,268a11.07,11.07,0,0,1,1.45.65l76.64,40.15c11.65,6.22,30.52,3.27,31.31-9.91,1.69-28.09-58.56-18.6-31.31-130.09,33-135-5-61-22-164l-1-5H1100.15a11.47,11.47,0,0,0-10.41,6.74c-14.86,32.4-79.14,62.53-86.67,95.26C995,136.86,1058.73,156.73,1054.58,190.93Z" style="fill: #fff"/>
    </clipPath>
    <clipPath id="f8ec16c1-7edd-45f4-8825-ca60147190df">
      <path d="M769.5,599.5H542.57c6.1-37,.86-58.25,0-64.24a48,48,0,0,1,0-14.76c.53-3.42.69-5.55,1.8-7.51,6.47-11.47,31.12-6.64,35.47-20a9.11,9.11,0,0,1,4.24-5.34c9.82-5.27,5.38-33.15,18.53-33.15,31.8,0,45.53,27,77.34,27,29.32,0,43.23-33,72.55-33,0,0,104,.78,35,55-13.54,10.64-25,36.79-25,54C762.5,573.55,769.5,583.45,769.5,599.5Z" style="fill: none"/>
    </clipPath>
    <clipPath id="af9ad27f-754b-44f5-858b-2e3753c11e2e">
      <path d="M797.5,442.5c-32.27,0-67.2-19-99,21-17.55,22.07-51.74-15.91-82-20.12a12.34,12.34,0,0,1-10.65-12.62c1.47-44.59-16.38-69.88-16.38-88.26,0-23.49,15.57-27.51,15.57-51,0-6.48-3-19.72-4.72-30-.87-5.26,4.42-13.58,8.28-10,34.32,31.75,21.93,4.12,53.86-14,44.13-25.06,59.36,5.3,95.31,11.31,12.4,2.08,25.05-.58,52.11-9.72,14-4.74,30.59,119.41-3,129.59C774.34,378.53,799.19,429,797.5,442.5Z" style="fill: none"/>
    </clipPath>
    <clipPath id="e0dda510-fd20-4629-8a77-df71b399327e">
      <path d="M787,215.58a18.41,18.41,0,0,1-24.54,18.92c-21.56-7.78-47.83-19.78-61-20-43-.72-57.5,24.07-100.46,23.35-4.35-.91-19.7-3.74-26.12-16.27-3.51-6.85-7.38-15.07-7.42-28.08-.11-36.85,57.77-63.94,58-96,.16-22.5-79.22-58-79.5-98.5l270.5.5c0,11.26-9.86,65.11-33.55,102a67,67,0,0,0-10.25,42.81C775.82,175.93,784.16,182.67,787,215.58Z" style="fill: none"/>
    </clipPath>
    <clipPath id="a34b2d2e-35b6-4231-ab47-70e6dcccf07d">
      <path d="M1062.29,600H784.87c0-16.67-4.87-32.33-4.87-49,0-26.23,36.12-45.82,44-70.13,2.43-7.52,8.23-13.45,15.73-15.28C873.1,457.42,905,467,957.16,489c28.5,12,15.87-27.44,37.13-36.28,4.22-1.76,10.08-.21,11.14,4.34,7.22,30.94,52.41,45.38,56.86,62.81C1072,558,1051.58,568,1062.29,600Z" style="fill: none"/>
    </clipPath>
    <clipPath id="b46d8e32-0fb7-493e-abce-70f06fdadaa4">
      <path d="M1008.43,407.3l-1.88,16.18a12.23,12.23,0,0,1-7.93,10C974,442.71,972.39,489.71,948,474c-13.06-8.41-44.17-40.82-116.56-17-10.46,3.45-20.36-8.18-23.21-18.82C804,422.47,800.62,402.9,806,390c2.77-6.65,12.64-11.7,20.75-18,26.23-20.37,12.16-81.29,4.12-118a4.55,4.55,0,0,1,6.9-4.85c5.21,3.45,20.74,13.42,24.52,14.84,57.68,25.75,103.88,3.13,147.09,39l.1.09a33.52,33.52,0,0,1,9.78,14.35l2,5.56a62.15,62.15,0,0,1,1.41,21.4,196.55,196.55,0,0,1-9.4,41.78A102.75,102.75,0,0,0,1008.43,407.3Z" style="fill: none"/>
    </clipPath>
    <clipPath id="b18999f8-96f8-4cd1-a7ee-8e7836a77f63">
      <path d="M816.41,225.67c27.91,8.14,53.11,24.58,81.59,33.33,23.63,7.26,49.38,8.22,73,14.25a40.72,40.72,0,0,0,18.88.47c5.75-1.28,11.7-3.68,14.27-10C1013.74,240.25,1037,216,1037,193c0-30.25-56-52.75-56-83,0-32.42,78-78.58,78-111H832c0,43.73-19,65.8-37,119-13.9,41.08,3.9,54.54,7.42,92.24A17.42,17.42,0,0,0,816.41,225.67Z" style="fill: none"/>
    </clipPath>
  </defs>
  <g style="clip-path: url(#b174e8a6-9ab4-417b-8c60-dcd9c34ad9f3)">
    <image width="500" height="500" transform="translate(-38 271) scale(0.7)" xlink:href="{IMAGE_0}"/>
  </g>
  <g style="clip-path: url(#a8ccb1c5-1a19-44d9-b3ab-af339436cb1d)">
    <image width="500" height="500" transform="translate(-44 25) scale(0.7)" xlink:href="{IMAGE_1}"/>
  </g>
  <g style="clip-path: url(#b2401fb6-d6d1-43c6-a09b-c529b3e884b8)">
    <image width="500" height="500" transform="translate(-37 -121) scale(0.7)" xlink:href="{IMAGE_2}"/>
  </g>
  <g style="clip-path: url(#bb0be7b5-dd64-4901-acfb-35666d73eb1d)">
    <image width="500" height="500" transform="translate(229.71 256.73) scale(0.75)" xlink:href="{IMAGE_3}"/>
  </g>
  <g style="clip-path: url(#ba228a89-517f-4ebd-86dd-41d2325e71d9)">
    <image width="500" height="500" transform="translate(252 -19) scale(0.7)" xlink:href="{IMAGE_4}"/>
  </g>
  <g style="clip-path: url(#e8b57ff3-b9a0-4f5d-aa10-78267a50a142)">
    <image width="500" height="500" transform="translate(1269 267) scale(0.7)" xlink:href="{IMAGE_5}"/>
  </g>
  <g style="clip-path: url(#bd159d18-be4b-4847-8218-7c4398823695)">
    <image width="500" height="500" transform="translate(1282 38) scale(0.7)" xlink:href="{IMAGE_6}"/>
  </g>
  <g style="clip-path: url(#ad7dbe3f-b104-4753-a86e-4b7beb2005fd)">
    <image width="500" height="500" transform="translate(1282 -112) scale(0.7)" xlink:href="{IMAGE_7}"/>
  </g>
  <g style="clip-path: url(#a394bd98-4b06-4f96-bf09-b7415840c573)">
    <image width="500" height="500" transform="translate(1009 267) scale(0.7)" xlink:href="{IMAGE_8}"/>
  </g>
  <g style="clip-path: url(#b40fef7d-dcdc-4dff-864a-f36987a52806)">
    <image width="500" height="500" transform="translate(999 -10) scale(0.7)" xlink:href="{IMAGE_9}"/>
  </g>
  <g style="clip-path: url(#f8ec16c1-7edd-45f4-8825-ca60147190df)">
    <image width="500" height="500" transform="translate(496 349) scale(0.7)" xlink:href="{IMAGE_10}"/>
  </g>
  <g style="clip-path: url(#af9ad27f-754b-44f5-858b-2e3753c11e2e)">
    <image width="500" height="500" transform="translate(534 156) scale(0.7)" xlink:href="{IMAGE_11}"/>
  </g>
  <g style="clip-path: url(#e0dda510-fd20-4629-8a77-df71b399327e)">
    <image width="500" height="500" transform="translate(506 -65) scale(0.7)" xlink:href="{IMAGE_12}"/>
  </g>
  <g style="clip-path: url(#a34b2d2e-35b6-4231-ab47-70e6dcccf07d)">
    <image width="500" height="500" transform="translate(749 356) scale(0.7)" xlink:href="{IMAGE_13}"/>
  </g>
  <g style="clip-path: url(#b46d8e32-0fb7-493e-abce-70f06fdadaa4)">
    <image width="500" height="500" transform="translate(730 188) scale(0.7)" xlink:href="{IMAGE_14}"/>
  </g>
  <g style="clip-path: url(#b18999f8-96f8-4cd1-a7ee-8e7836a77f63)">
    <image width="500" height="500" transform="translate(742 -44) scale(0.7)" xlink:href="{IMAGE_15}"/>
  </g>
</svg>